<svg width="326" height="170" viewBox="0 0 326 170" fill="none" xmlns="http://www.w3.org/2000/svg">
<g clip-path="url(#clip0_180_1170)">
<rect width="326" height="170" rx="24" fill="#E4E6E5"/>
<path d="M262.05 14.3727C272.238 14.6219 283.495 14.4347 293.724 14.4011C297.345 29.8111 301.087 45.1946 304.943 60.5504C300.596 60.709 295.492 60.5937 291.085 60.6033C291.075 66.0988 291.048 71.5987 291.091 77.0929C291.101 78.4954 292.544 78.322 292.52 80.1334C291.654 81.4578 291.011 81.9066 289.451 81.2451C288.14 79.7663 288.861 78.8843 290.049 77.7888L290.054 60.576C286.663 60.5244 283.199 60.5473 279.802 60.5346C280.205 94.1579 279.895 187.342 279.852 220.997L276.327 221.224C275.932 210.702 276.21 139.326 276.196 128.65L276.202 60.4997L251.1 60.54C255.077 46.2789 258.639 29.027 262.05 14.3727Z" fill="#D0D0D0"/>
<path d="M175.42 80.1394C180.201 81.3815 193.511 85.1809 197.037 87.8366C204.132 93.1853 212.607 104.138 218.915 110.736L227.65 120.22C229.183 117.128 231.173 113.759 232.89 110.717C237.326 102.817 241.933 94.8163 246.265 86.8749L246.663 87.4737L247.026 87.3141C248.086 88.1591 254.734 91.5295 256.261 92.2757L257.065 92.9416C256.189 96.3841 251.572 107.082 250.028 110.973L241.065 133.798C239.976 136.514 238.963 140.135 237.318 142.55C236.501 143.75 235.248 144.657 233.908 145.23C231.515 146.251 228.489 146.43 226.051 145.436C223.201 144.272 199.419 122.598 194.66 118.555C192.347 133.415 189.273 149.976 191.821 165.007C192.072 166.483 195.234 174.583 196.227 175.464C189.732 175.725 182.804 177.521 177.549 173.022C174.122 172.971 167.299 173.32 164.064 172.816C159.695 172.709 155.123 172.762 150.738 172.751C152.893 167.405 152.474 160.855 152.474 155.151L152.412 86.6427C152.45 85.3027 152.474 83.9625 152.49 82.6223C157.454 90.1182 169.817 89.5106 175.118 82.7171C175.126 84.7365 175.025 88.3765 175.212 90.2692C175.441 88.257 175.367 82.4895 175.42 80.1394Z" fill="#454141"/>
<path d="M152.49 82.6222C157.454 90.1182 170.099 87.7901 175.4 80.9966C175.408 83.016 175.4 89.1811 175.212 90.2692L175.196 140.437L175.182 156.122C175.18 161.899 174.664 167.424 177.225 172.778C173.086 172.831 168.044 172.665 164.064 172.816C159.695 172.709 155.123 172.762 150.738 172.751C152.893 167.405 152.474 160.855 152.474 155.151L152.46 138.473L152.412 86.6426C152.45 85.3027 152.474 83.9624 152.49 82.6222Z" fill="#FDFDFD"/>
<path d="M118.448 178.145C118.236 178.222 118.052 178.293 117.899 178.358L116.914 178.622L116.914 178.622L117.899 178.358C118.052 178.293 118.236 178.222 118.448 178.145Z" fill="#454141"/>
<path d="M152.295 80.1971C152.289 81.792 152.18 85.2264 152.412 86.6426L152.474 155.151C152.474 160.855 152.893 167.405 150.738 172.751C145.893 180.509 136.821 176.075 129.372 174.961C131.21 173.789 133.448 171.305 134.668 169.509C140.664 160.679 135.395 128.671 133.376 118.607C128.694 123.129 122.824 128.063 117.883 132.489L116.719 133.522C113.527 136.26 105.392 144.634 101.621 145.699C95.1172 147.535 90.9133 143.906 89.0996 137.852C86.3934 128.819 83.1328 119.739 80.5428 110.563C78.3261 104.385 76.1757 96.5848 74.3431 90.2338L74.8275 89.558L75.1659 89.8681C76.2548 89.9971 83.083 86.6745 84.5178 86.0171L85.4541 85.0358C89.3648 93.5828 93.1227 102.208 97.0857 110.729C98.5108 113.807 99.8937 116.904 101.234 120.018C103.962 116.959 106.722 113.927 109.513 110.922L109.513 110.922C114.636 105.364 126.848 90.2958 132.401 87.1467C137.916 84.0182 146.128 81.9513 152.295 80.1971Z" fill="#454141"/>
<path d="M123.371 176.633C122.698 176.824 122.031 177.017 121.399 177.204C121.946 177.042 122.52 176.876 123.101 176.71C123.191 176.684 123.281 176.659 123.371 176.633Z" fill="#454141"/>
<path d="M126.08 175.874C125.284 176.095 124.43 176.333 123.578 176.574C123.859 176.494 124.14 176.415 124.419 176.337C124.987 176.178 125.547 176.022 126.08 175.874Z" fill="#454141"/>
<path d="M173.254 37.1341C162.213 38.3741 153.502 39.6045 143.436 34.1191C142.848 41.436 142.381 48.6984 142.087 56.0309C141.78 63.6481 142.48 72.4856 152.132 73.8584C152.297 76.0796 152.3 77.9809 152.295 80.1971C152.289 81.792 152.18 85.2264 152.412 86.6426C152.449 85.3026 152.474 83.9624 152.49 82.6222C157.454 90.1181 170.119 89.4869 175.42 82.6934C175.515 82.1306 175.406 80.8509 175.42 80.1393C175.583 71.9582 175.682 63.7757 175.711 55.593C178.184 54.0872 179.955 53.3124 181.637 50.9475C183.899 47.4756 184.962 45.2203 185.996 41.2894C182.898 41.6078 176.953 41.519 173.532 41.5917C173.537 40.1535 173.372 38.5782 173.254 37.1341Z" fill="#FEA59E"/>
<path d="M173.532 41.5918C176.953 41.5192 182.898 41.6079 185.996 41.2896C184.962 45.2204 183.899 47.4757 181.637 50.9476C181.611 47.2125 181.44 45.2522 177.167 44.651C175.562 44.178 175.217 44.1319 173.556 44.0507L173.532 41.5918Z" fill="url(#paint0_linear_180_1170)"/>
<path d="M173.556 44.0507C175.217 44.1319 175.562 44.178 177.167 44.651C175.815 44.952 175.166 45.6218 174.09 45.7074C173.465 45.1615 173.663 45.1288 173.556 44.0507Z" fill="url(#paint1_linear_180_1170)"/>
<path d="M152.431 74.8652C152.535 73.8431 153.758 73.9712 154.685 73.9402C157.737 73.8384 159.679 73.4002 162.523 72.1777C164.369 71.379 166.094 70.3384 167.651 69.0843C168.821 68.1344 171.548 64.8952 172.221 64.7499C172.186 65.7749 171.956 65.7895 171.331 66.7949C168.709 74.6353 160.208 78.4779 152.45 79.6088C152.447 78.1077 152.49 76.3423 152.431 74.8652Z" fill="#DD8884"/>
<path d="M152.431 74.8652C152.535 73.8431 153.758 73.9712 154.685 73.9402C157.737 73.8384 159.679 73.4002 162.523 72.1777C164.369 71.379 166.094 70.3384 167.651 69.0843C168.821 68.1344 171.548 64.8952 172.221 64.7499C172.186 65.7749 171.956 65.7895 171.331 66.7949C167.013 71.4308 161.962 74.5572 155.355 74.949C154.581 74.9951 153.147 75.0479 152.431 74.8652Z" fill="black"/>
<path d="M148.139 59.8206C148.192 59.8094 160.665 59.2987 160.75 59.307C161.583 60.432 160.983 61.9378 160.309 63.1885C160.014 63.7349 159.614 64.2212 159.119 64.596C156.803 66.3475 154.196 67.1039 151.229 66.0381C149.458 65.1787 146.919 61.7409 147.549 59.8883L148.139 59.8206Z" fill="#3F082A"/>
<path d="M148.139 59.8206C148.193 59.8094 160.665 59.2987 160.75 59.307C158.493 62.4256 150.321 63.0072 148.139 59.8206Z" fill="#FDFDFD"/>
<path d="M151.229 66.0382C154.429 63.3679 155.719 63.0834 159.8 63.929C157.85 66.1747 154.511 67.2173 151.229 66.0382Z" fill="#DD8884"/>
<path d="M152.333 47.2581C152.433 46.832 152.946 46.678 153.116 47.0816C154.039 49.2714 150.83 53.3383 149.645 54.7208C148.77 55.7427 149.958 56.5634 151.169 57.1639C151.677 57.416 151.58 58.0221 151.017 57.9501C149.558 57.7635 148.292 56.9132 148.569 55.1166C148.764 53.8574 149.312 53.3182 150.123 52.7079C150.673 52.2949 151.112 51.7525 151.321 51.0983C151.688 49.9425 152.053 48.4393 152.333 47.2581Z" fill="#212121"/>
<path d="M157.704 42.6568C158.035 42.4557 158.411 42.3368 158.799 42.3287C160.798 42.2871 164.655 42.6407 164.126 44.9156C164.08 45.1131 163.908 45.2522 163.708 45.2897C163.533 45.3226 163.353 45.2739 163.218 45.1576L162.98 44.9512C160.734 43.1919 160.098 43.9859 157.236 43.9991C157.105 43.9997 156.982 43.9364 156.905 43.831C156.82 43.7136 156.801 43.5579 156.873 43.4322C157.082 43.0692 157.357 42.8672 157.704 42.6568Z" fill="#3F082A"/>
<path d="M145.071 41.6656C145.52 41.4398 146.012 41.3107 146.513 41.291C148.193 41.2248 150.436 41.3329 150.823 43.0599C150.867 43.2559 150.775 43.4537 150.615 43.5761C150.489 43.6732 150.327 43.716 150.17 43.6905C149.641 43.6052 149.529 43.5408 149.239 43.3006C148.856 42.9826 148.391 42.7659 147.894 42.7351C146.113 42.6249 145.812 43.3891 143.935 43.3078C143.817 43.3027 143.713 43.2297 143.665 43.1223C143.622 43.025 143.63 42.9118 143.69 42.8239C144.113 42.2064 144.497 41.9548 145.071 41.6656Z" fill="#0F0307"/>
<path d="M158.203 47.5274C158.587 46.8849 159.413 46.5257 160.055 46.9109C160.962 47.454 160.932 48.5492 160.49 49.5833C160.087 50.5245 158.819 50.8618 158.171 50.0687C157.57 49.3334 157.656 48.4417 158.203 47.5274Z" fill="#0F0307"/>
<path d="M146.454 46.646C146.965 45.8903 148.12 45.6213 148.663 46.3548C149.076 46.9129 149.038 47.6093 148.761 48.3003C148.309 49.4309 146.63 49.662 146.152 48.5423C145.888 47.9247 146.011 47.3007 146.454 46.646Z" fill="#0F0307"/>
<path d="M177.198 47.6392C177.306 47.5752 177.427 47.5352 177.552 47.5264C178.229 47.4788 178.487 47.5109 179.187 47.604C179.246 47.6118 179.299 47.6436 179.333 47.6917C179.409 47.7976 179.371 47.9468 179.256 48.0071C176.812 49.2833 178.59 48.6449 178.627 50.2304C178.63 50.3347 178.573 50.4303 178.485 50.4869C178.324 50.5909 178.108 50.5308 178.013 50.3642C177.212 48.9509 176.934 49.5574 176.07 49.4317C175.633 49.3681 175.491 48.8476 175.82 48.5535C176.217 48.1987 176.727 47.9194 177.198 47.6392Z" fill="black"/>
<path d="M143.436 34.1191C144.707 21.7277 154.57 14.2886 167.197 15.4994C172.91 16.0516 178.165 18.7797 181.827 23.0904C185.691 27.6932 186.904 33.1496 186.306 38.9862C186.223 39.7563 186.119 40.5243 185.996 41.2894C182.898 41.6078 176.953 41.519 173.532 41.5916C173.537 40.1535 173.372 38.5782 173.254 37.1341C162.214 38.3741 153.502 39.6045 143.436 34.1191Z" fill="#3F082A"/>
<path d="M66.0732 78.3186C68.0215 78.1791 70.9456 78.2463 72.3044 76.9584C72.9737 74.4859 66.4289 71.5896 68.9658 68.0826C70.0425 66.5944 70.7664 66.2882 71.8016 66.666C72.9184 67.0737 73.643 68.1201 74.2009 69.1683C78.1396 76.5677 82.8035 74.2089 85.454 85.0359L84.5177 86.0171C83.083 86.6745 76.2546 89.9972 75.1658 89.8681L74.8274 89.558L74.343 90.2338C71.1606 89.6397 67.6211 89.4414 64.2799 88.6926C58.6218 87.4248 52.1777 80.0103 48.9227 75.5281C48.4283 74.8472 48.2423 74.2423 48.3153 73.5418C48.3549 73.1618 48.5718 72.8134 48.9097 72.6338C50.8131 71.6224 53.0379 73.6868 54.3268 74.8605C54.2013 74.2087 54.0875 73.5547 53.9855 72.8991C53.8471 71.9778 53.8255 71.4847 54.4253 70.6995C56.055 70.1109 56.9718 71.1439 58.6669 71.8463C58.9406 71.7352 59.135 71.6538 59.3158 71.5908C59.9532 71.3691 60.6531 71.5614 61.1654 72C62.9044 73.4887 65.4681 76.6899 66.0732 78.3186Z" fill="#FEA59E"/>
<path d="M66.0732 78.3186C68.0215 78.1791 70.9456 78.2463 72.3044 76.9584C72.9737 74.4859 66.4289 71.5896 68.9658 68.0826C70.0112 66.6376 70.7241 66.307 71.7122 66.6349C72.899 67.0287 73.6545 68.1542 74.2467 69.2538C78.1757 76.5496 82.8137 74.2508 85.454 85.0359L84.5177 86.0171C83.5808 81.3443 82.7128 78.4795 78.4256 75.6288C75.7154 73.8265 73.6053 68.5525 70.7586 67.5447C70.5191 67.5802 70.0832 67.5856 70.0146 67.7353C68.1101 71.8937 73.4504 74.2815 73.886 77.2117C72.8439 80.2272 66.4776 77.5405 66.0139 80.7005C66.3331 81.722 66.5286 81.9207 67.2208 82.7658C69.8896 84.0883 80.3464 79.8096 80.7288 84.403C80.1771 84.4663 78.2654 83.0985 76.307 83.0339C72.0713 82.8944 66.7826 86.8502 64.9641 80.903C64.6495 79.8739 65.3874 75.8813 63.0789 75.962C62.6347 76.9508 62.4622 80.5648 62.6008 81.6609C62.8049 83.2724 64.6604 85.1937 64.3042 86.9288L64.0299 86.8703C61.0758 83.3492 61.559 80.0535 61.7515 75.8774L61.3133 76.2271L61.0686 76.1544C60.2119 75.9058 59.9985 75.8235 59.1631 76.1542C59.1623 79.3084 59.1233 83.8032 61.5867 86.184C64.266 88.7731 71.1213 88.3178 74.8274 89.558L74.343 90.2338C71.1606 89.6397 67.6211 89.4414 64.2799 88.6926C58.6218 87.4248 52.1777 80.0103 48.9227 75.5281C48.4211 74.8372 48.2369 74.2247 48.3186 73.5111C48.3598 73.1515 48.5646 72.8227 48.8825 72.6485C50.7918 71.6027 53.0317 73.6812 54.3268 74.8605C54.2013 74.2087 54.0875 73.5547 53.9855 72.8991C53.8471 71.9778 53.8255 71.4847 54.4253 70.6995C55.8478 70.1857 56.7272 70.9075 58.055 71.5664C58.4412 71.758 58.9085 71.7326 59.3157 71.5909C59.9681 71.3639 60.661 71.5661 61.1844 72.0163C62.923 73.5119 65.4703 76.6959 66.0732 78.3186Z" fill="black"/>
<path d="M59.1631 76.1539C59.1532 74.7041 58.8344 73.4089 60.0752 72.4761C61.6492 72.7857 61.8947 74.5411 61.7515 75.8772L61.3133 76.2268L61.0687 76.1542C60.2119 75.9056 59.9985 75.8233 59.1631 76.1539Z" fill="#FEA59E"/>
<path d="M49.0397 73.2653C51.6212 73.1919 52.8171 74.7709 54.5456 76.4173C55.0869 78.3771 55.69 80.4317 56.1269 82.4066C55.7175 82.0385 55.3249 81.653 54.9502 81.2512C53.5911 79.7975 48.9596 74.8886 49.0397 73.2653Z" fill="#FEA59E"/>
<path d="M56.5289 80.1042C56.0823 78.2373 54.7189 73.2052 54.9363 71.5906L55.4451 71.4128C58.4194 71.783 58.0925 75.1752 58.1307 77.4016C56.6047 78.3881 56.6429 78.2464 56.5289 80.1042Z" fill="#FEA59E"/>
<path d="M58.1307 77.4017C58.1667 81.5832 58.3694 82.3359 60.2568 86.1444C57.8337 83.7894 57.6342 83.3457 56.5288 80.1043C56.6428 78.2465 56.6047 78.3881 58.1307 77.4017Z" fill="#F59998"/>
<path d="M246.265 86.8749C247.849 83.4252 245.87 81.5463 246.153 78.059C246.396 75.0592 248.121 72.1072 248.741 69.1656C249.221 66.7564 247.579 61.5767 250.004 59.916C252.528 59.6135 254.418 62.3903 254.675 64.5896C254.878 66.3081 254.05 68.7155 254.632 70.2551C256.953 70.5686 263.766 68.4215 266.084 71.2837C266.768 72.1309 266.234 73.7952 267.753 76.2627C267.091 80.1477 268.084 85.335 264.77 87.6854C261.995 89.6533 258.32 89.8386 257.065 92.9416L256.261 92.2757C254.734 91.5295 248.086 88.1592 247.026 87.3141L246.663 87.4737L246.265 86.8749Z" fill="black"/>
<path d="M248.249 84.614C245.605 75.1916 250.06 74.0966 249.796 65.3138C249.745 63.6385 248.823 62.2566 250.786 61.1835C255.399 61.0947 252.341 69.4646 253.818 71.111L254.947 71.5164C254.018 72.1748 252.458 73.2317 252.026 74.2544C251.916 74.9963 252.474 76.517 252.496 76.4821C250.234 80.4286 254.605 83.6047 255.388 86.8569C257.041 88.5585 259.891 88.1885 262.139 88.1492C259.618 89.3189 257.209 89.8057 256.261 92.2756C254.734 91.5294 248.086 88.1591 247.026 87.314C247.432 86.4487 247.905 85.4935 248.249 84.614Z" fill="#FEA59E"/>
<path d="M258.296 71.0174C260.494 70.7771 265.067 70.2788 265.654 72.9921C266.562 76.9852 266.973 81.9931 265.222 85.8052C264.308 87.7908 258.622 87.3144 256.854 86.6906C256.318 86.5006 256.157 86.1574 256.045 85.6664C257.007 84.3772 260.791 84.4686 262.756 83.767L262.54 83.5746C258.369 83.1396 258.556 83.7105 255.276 83.9003C253.906 83.2279 253.663 82.5322 254.274 81.1527C256.48 80.1689 258.657 79.6763 261.071 79.6284C261.694 79.6162 262.281 79.6013 262.855 79.3576C259.415 77.0547 254.715 81.3604 252.931 79.2725C252.378 75.5671 260.153 75.5002 262.823 74.6778C261.835 73.3571 254.809 75.8826 253.057 75.2685L252.888 74.8603C253.505 73.386 256.772 71.8539 258.296 71.0174Z" fill="#FEA59E"/>
<path d="M16.2001 156.064C17.8319 156.309 22.3854 156.438 23.5311 156.756C22.4442 157.302 22.4869 158.14 22.3587 159.284C20.1367 170.029 18.2298 181.452 16.2001 192.303L15.5031 195.904H12.3303C12.3704 194.988 12.5012 193.932 12.592 193.007C12.7416 189.782 13.3612 185.04 13.6897 181.752C14.5736 173.194 15.4122 164.631 16.2001 156.064Z" fill="#D0D0D0"/>
<path d="M38.8956 157.371L45.5162 157.389C44.8298 170.224 44.2289 183.062 43.7135 195.905H40.7998L40.7009 194.003C40.5407 182.604 39.5499 168.867 38.8956 157.371Z" fill="#D0D0D0"/>
<path d="M33.0094 144.208C38.6098 143.939 76.8725 144.108 78.1598 148.378C75.9725 151.155 56.4632 151.904 51.8083 152.138C45.9835 152.234 7.19996 152.753 6.16107 148.189C8.0439 145.127 28.5333 144.442 33.0094 144.208Z" fill="#D0D0D0"/>
<path d="M78.2934 149.889C78.4162 150.749 78.4857 151.878 78.1625 152.692C77.8501 152.939 77.2625 153.336 76.8993 153.447C63.4044 157.601 17.6263 157.557 5.91543 153.025C5.48011 152.184 5.44274 151.686 5.40001 150.777C5.51485 150.59 5.66707 150.242 5.82731 150.237C7.3309 150.191 9.32057 151.098 11.0832 151.364C13.356 151.708 16.0827 152.128 18.31 152.331C31.6768 153.545 66.8843 154.293 78.2934 149.889Z" fill="#D0D0D0"/>
<path d="M60.8965 156.853C63.1585 156.76 65.4153 156.532 67.6506 156.169C67.7601 161.071 68.6895 166.222 68.9993 171.138C69.5094 179.304 71.0077 187.761 71.4189 195.904H68.1661C65.8399 182.87 63.4176 169.853 60.8965 156.853Z" fill="#D0D0D0"/>
<circle cx="62.27" cy="38.45" r="22.75" fill="#454141"/>
<path d="M65.8958 47.4078C66.7204 47.4078 67.3888 46.7394 67.3888 45.9148C67.3888 45.0903 66.7204 44.4219 65.8958 44.4219C65.0713 44.4219 64.4029 45.0903 64.4029 45.9148C64.4029 46.7394 65.0713 47.4078 65.8958 47.4078Z" fill="white"/>
<path d="M59.0707 47.4078C59.8952 47.4078 60.5637 46.7394 60.5637 45.9148C60.5637 45.0903 59.8952 44.4219 59.0707 44.4219C58.2462 44.4219 57.5777 45.0903 57.5777 45.9148C57.5777 46.7394 58.2462 47.4078 59.0707 47.4078Z" fill="white"/>
<path d="M56.1616 31.5737L55.9909 33.6639C55.9568 34.0648 56.2725 34.3976 56.6734 34.3976H69.7348C70.0931 34.3976 70.3917 34.1246 70.4173 33.7662C70.5282 32.2562 69.3765 31.0277 67.8664 31.0277H57.3815C57.2962 30.6523 57.1256 30.294 56.8611 29.9954C56.4346 29.5433 55.8374 29.2788 55.2231 29.2788H53.7387C53.3889 29.2788 53.0988 29.5689 53.0988 29.9187C53.0988 30.2684 53.3889 30.5585 53.7387 30.5585H55.2231C55.4876 30.5585 55.735 30.6694 55.9142 30.8571C56.0933 31.0533 56.1786 31.3092 56.1616 31.5737Z" fill="white"/>
<path d="M69.5302 35.6772H56.4432C56.0849 35.6772 55.7949 35.9502 55.7607 36.3L55.4536 40.0111C55.3342 41.47 56.4774 42.7155 57.9362 42.7155H67.423C68.7026 42.7155 69.8288 41.6662 69.9226 40.3865L70.2041 36.4024C70.2383 36.01 69.9311 35.6772 69.5302 35.6772Z" fill="white"/>
<path d="M86.5809 15.9971C86.7275 15.601 87.2878 15.601 87.4344 15.9971L88.4712 18.7991C88.5173 18.9236 88.6155 19.0218 88.74 19.0679L91.5419 20.1047C91.9381 20.2513 91.9381 20.8116 91.5419 20.9581L88.74 21.9949C88.6155 22.041 88.5173 22.1392 88.4712 22.2638L87.4344 25.0657C87.2878 25.4618 86.7275 25.4618 86.5809 25.0657L85.5441 22.2638C85.498 22.1392 85.3998 22.041 85.2753 21.9949L82.4733 20.9581C82.0772 20.8116 82.0772 20.2513 82.4733 20.1047L85.2753 19.0679C85.3998 19.0218 85.498 18.9236 85.5441 18.7991L86.5809 15.9971Z" fill="white"/>
<path d="M92.9488 25.4369C93.0385 25.1944 93.3815 25.1944 93.4712 25.4369L94.1059 27.1521C94.1341 27.2283 94.1942 27.2884 94.2704 27.3166L95.9856 27.9513C96.2281 28.041 96.2281 28.384 95.9856 28.4737L94.2704 29.1084C94.1942 29.1366 94.1341 29.1967 94.1059 29.273L93.4712 30.9881C93.3815 31.2306 93.0385 31.2306 92.9488 30.9881L92.3141 29.273C92.2859 29.1967 92.2258 29.1366 92.1496 29.1084L90.4344 28.4737C90.1919 28.384 90.1919 28.041 90.4344 27.9513L92.1496 27.3166C92.2258 27.2884 92.2859 27.2283 92.3141 27.1521L92.9488 25.4369Z" fill="white"/>
<path d="M40.3963 28.3944C40.486 28.1519 40.829 28.1519 40.9187 28.3944L41.5534 30.1096C41.5816 30.1858 41.6417 30.2459 41.718 30.2741L43.4331 30.9088C43.6756 30.9985 43.6756 31.3415 43.4331 31.4312L41.718 32.0659C41.6417 32.0941 41.5816 32.1542 41.5534 32.2305L40.9187 33.9457C40.829 34.1881 40.486 34.1881 40.3963 33.9457L39.7616 32.2305C39.7334 32.1542 39.6733 32.0941 39.5971 32.0659L37.8819 31.4312C37.6394 31.3415 37.6394 30.9985 37.8819 30.9088L39.5971 30.2741C39.6733 30.2459 39.7334 30.1858 39.7616 30.1096L40.3963 28.3944Z" fill="white"/>
</g>
<defs>
<linearGradient id="paint0_linear_180_1170" x1="179.764" y1="41.2896" x2="179.764" y2="50.9476" gradientUnits="userSpaceOnUse">
<stop stop-color="#3F082A"/>
<stop offset="1" stop-color="#FEA59E"/>
</linearGradient>
<linearGradient id="paint1_linear_180_1170" x1="179.764" y1="41.2896" x2="179.764" y2="50.9476" gradientUnits="userSpaceOnUse">
<stop stop-color="#3F082A"/>
<stop offset="1" stop-color="#FEA59E"/>
</linearGradient>
<clipPath id="clip0_180_1170">
<rect width="326" height="170" rx="24" fill="white"/>
</clipPath>
</defs>
</svg>
