<svg width="326" height="170" viewBox="0 0 326 170" fill="none" xmlns="http://www.w3.org/2000/svg">
<g clip-path="url(#clip0_220_3052)">
<rect width="326" height="170" rx="24" fill="#E4E6E5"/>
<path d="M133.907 162.103C133.899 160.66 134.055 157.823 133.713 156.554C133.512 158.045 133.531 160.554 133.606 162.091C125.372 162.157 117.137 162.176 108.902 162.149C106.277 162.148 98.4863 162.255 96.1343 162.088C84.9876 162.293 73.1598 162.087 61.9596 162.029C61.2471 162.026 61.1564 161.792 60.7856 161.454L60.769 161.904C59.575 162.402 6.91593 162.105 0 162.093V170H326V162.081C316.463 162.175 285.984 162.193 275.7 162.097L275.302 161.866C274.077 162.36 271.384 162.164 269.807 162.125C254.487 162.269 238.664 162.144 223.287 162.148L139.241 162.128C137.658 162.186 135.538 162.125 133.907 162.103Z" fill="#D9D9D9"/>
<path d="M25.0587 58.2148L41.3668 58.1851C41.5332 59.8851 42.7216 64.8404 43.1288 66.6314C44.3956 72.037 45.6121 77.4544 46.7782 82.8828C45.1764 82.8681 40.7815 82.8413 39.3562 83.0479L38.7073 83.0325C37.3509 82.8335 35.5648 82.8691 34.1624 82.8564C34.223 90.5335 34.2382 98.2109 34.208 105.888L34.2134 159.596C35.957 159.577 37.7072 159.544 39.4505 159.527C41.721 159.505 43.9232 159.38 44.3432 162.089C37.3464 162.293 29.9221 162.087 22.8918 162.029C22.4445 162.026 22.3876 161.792 22.1549 161.454C23.0138 159.461 24.692 159.526 26.6289 159.517C28.4475 159.509 30.2805 159.553 32.0987 159.579L32.0961 82.8496C27.9536 82.9069 23.724 82.8229 19.6023 82.9594C21.088 74.9249 23.5038 66.3732 25.0587 58.2148Z" fill="#B6B6B6"/>
<path d="M164.268 121.49C164.923 120.153 165.797 118.966 167.269 118.472C168.593 118.028 170.204 118.16 171.452 118.784C172.467 119.292 173.368 120.22 173.72 121.315C174.331 123.2 174.21 147.753 174 151.162C173.941 152.104 173.884 153.113 173.441 153.962C172.877 155.04 171.863 155.917 170.694 156.272C170.154 156.436 169.628 156.498 169.066 156.475C167.03 156.724 162.906 156.597 160.733 156.572C161.087 156.273 163.197 156.38 163.789 156.384C163.866 153.724 163.647 149.283 163.89 146.899C164.596 146.517 163.841 143.941 164.279 143.145C164.055 136.33 164.322 128.434 164.268 121.49Z" fill="#B6B6B6"/>
<path d="M163.89 146.899C164.596 146.517 163.841 143.941 164.279 143.145C164.612 146.275 164.284 152.839 164.339 156.394C165.646 156.391 167.835 156.323 169.066 156.476C167.03 156.724 162.906 156.597 160.733 156.573C161.087 156.273 163.197 156.38 163.789 156.384C163.866 153.724 163.647 149.283 163.89 146.899Z" fill="#A678A7"/>
<path d="M143.619 110.247C145.352 103.08 151.919 103.955 157.669 103.949L168.418 103.942L180.042 103.945C185.447 103.949 190.457 102.961 194.008 108.263C196.259 111.621 194.274 118.019 195.3 120.39C195.354 127.334 195.086 135.231 195.31 142.045C194.873 142.841 195.628 145.417 194.921 145.799C194.678 148.183 194.897 152.625 194.821 155.284C194.229 155.28 192.118 155.173 191.764 155.473C190.508 155.482 189.192 155.511 187.942 155.472C187.931 157.098 187.972 159.18 187.838 160.767C187.069 161.261 185.379 161.065 184.388 161.025C174.772 161.17 164.84 161.045 155.188 161.048L102.433 161.029C101.439 161.086 100.108 161.025 99.0845 161.004C99.0796 159.56 99.1777 156.723 98.9627 155.455C97.5001 155.632 87.9677 155.562 86.7941 155.386C88.0033 155.265 90.4257 155.336 91.7227 155.336C91.9834 143.838 92.0276 132.336 91.8556 120.837C92.8087 116.995 90.6963 111.879 93.2143 108.032C96.2735 103.357 100.495 103.96 105.296 103.957L114.86 103.954L127.888 103.957C134.317 103.959 141.358 102.589 143.619 110.247Z" fill="#D0D0D0"/>
<path d="M92.188 145.78C97.8788 145.641 103.764 145.746 109.473 145.72L150.4 145.698C164.93 145.742 180.491 145.426 194.921 145.799C194.678 148.183 194.897 152.625 194.821 155.284C194.229 155.28 192.118 155.173 191.764 155.473C190.508 155.482 189.192 155.511 187.942 155.472C187.931 157.098 187.972 159.18 187.838 160.767C187.069 161.261 185.379 161.064 184.388 161.025C174.772 161.17 164.84 161.045 155.188 161.048L102.433 161.029C101.439 161.086 100.108 161.025 99.0845 161.004C99.0797 159.56 99.1777 156.723 98.9627 155.454C97.607 155.276 93.802 155.337 92.2566 155.329C92.1285 152.216 92.1842 148.91 92.188 145.78Z" fill="#B6B6B6"/>
<path d="M152.921 134.258C154.545 134.223 156.247 134.219 157.879 134.241C169.469 134.397 181.098 134.017 192.672 134.384C193.734 134.418 194.52 135.645 195.039 136.433C195.083 137.203 195.104 137.949 195.124 138.747C195.161 140.273 195.343 142.323 193.873 143.282C193.328 143.637 192.728 143.851 192.077 143.871C188.441 143.983 184.804 143.949 181.166 143.951L161.084 143.954C156.25 143.953 150.493 144.203 145.703 143.82C144.893 143.755 144.104 142.628 143.685 141.979C142.942 142.974 142.655 143.219 141.586 143.866C139.312 144.011 136.337 143.936 134.008 143.938L106.226 143.948L98.2992 143.955C97.0631 143.955 95.7762 143.994 94.5454 143.895C93.4063 143.829 92.1697 142.634 92.135 141.457C92.0755 139.426 91.4538 136.156 93.4117 134.815C94.0367 134.387 95.1753 134.35 95.9232 134.333C99.8522 134.244 103.787 134.266 107.717 134.277L126.397 134.295L136.174 134.292C139.311 134.293 141.794 133.557 143.553 136.536C144.348 135.431 144.543 135.049 145.728 134.373C148.08 134.273 150.557 134.282 152.921 134.258Z" fill="#B6B6B6"/>
<path d="M86.7941 155.387C86.2144 155.384 85.6406 155.271 85.1038 155.052C83.9123 154.565 82.9403 153.562 82.4594 152.368C81.7445 150.593 81.8691 125.914 82.0553 122.363C82.0945 121.615 82.135 120.683 82.4437 119.996C82.9854 118.789 83.9615 117.873 85.2105 117.437C86.4864 116.992 88.067 117.004 89.285 117.62C90.6077 118.288 91.3945 119.471 91.8557 120.837C92.0277 132.336 91.9834 143.838 91.7227 155.336C90.4257 155.336 88.0033 155.265 86.7941 155.387Z" fill="#B6B6B6"/>
<path d="M182.381 111.328C180.648 104.161 174.081 105.036 168.331 105.03L157.582 105.023L145.958 105.026C140.553 105.03 135.543 104.042 131.992 109.344C129.74 112.702 131.726 119.1 130.7 121.471C130.646 128.415 130.914 136.311 130.69 143.126C131.127 143.922 130.372 146.498 131.079 146.88C131.322 149.264 131.103 153.705 131.179 156.365C131.771 156.361 133.882 156.254 134.236 156.553C135.492 156.562 136.808 156.591 138.058 156.552C138.069 158.178 138.028 160.261 138.162 161.847C138.931 162.341 140.621 162.145 141.612 162.106C151.228 162.25 161.16 162.125 170.812 162.128L223.567 162.109C224.561 162.167 225.892 162.106 226.915 162.084C226.92 160.641 226.822 157.804 227.037 156.535C228.5 156.712 238.032 156.643 239.206 156.467C237.997 156.345 235.574 156.416 234.277 156.416C234.017 144.918 233.972 133.417 234.144 121.917C233.191 118.076 235.304 112.96 232.786 109.112C229.726 104.438 225.505 105.041 220.704 105.038L211.14 105.034L198.112 105.037C191.683 105.04 184.642 103.67 182.381 111.328Z" fill="#D0D0D0"/>
<path d="M233.812 146.86C228.121 146.721 222.236 146.827 216.527 146.8L175.6 146.779C161.07 146.823 145.509 146.506 131.079 146.88C131.322 149.264 131.103 153.705 131.179 156.365C131.771 156.361 133.882 156.254 134.236 156.553C135.492 156.562 136.808 156.591 138.058 156.552C138.069 158.178 138.028 160.261 138.162 161.847C138.931 162.341 140.621 162.145 141.612 162.105C151.228 162.25 161.16 162.125 170.812 162.128L223.567 162.109C224.561 162.167 225.892 162.106 226.916 162.084C226.92 160.641 226.822 157.804 227.037 156.535C228.393 156.357 232.198 156.417 233.743 156.41C233.872 153.296 233.816 149.991 233.812 146.86Z" fill="#B6B6B6"/>
<path d="M173.079 135.339C171.455 135.304 169.753 135.299 168.121 135.321C156.531 135.478 144.902 135.097 133.328 135.465C132.266 135.498 131.479 136.726 130.961 137.514C130.917 138.284 130.896 139.03 130.875 139.828C130.839 141.354 130.657 143.404 132.127 144.362C132.672 144.717 133.272 144.932 133.923 144.952C137.559 145.063 141.196 145.029 144.834 145.032L164.916 145.035C169.75 145.034 175.507 145.284 180.297 144.901C181.107 144.836 181.896 143.709 182.315 143.06C183.058 144.054 183.345 144.3 184.414 144.946C186.688 145.092 189.663 145.016 191.992 145.019L219.774 145.028L227.701 145.036C228.937 145.036 230.224 145.075 231.455 144.975C232.594 144.91 233.83 143.714 233.865 142.537C233.925 140.507 234.546 137.236 232.588 135.895C231.963 135.467 230.825 135.431 230.077 135.414C226.148 135.325 222.213 135.347 218.283 135.357L199.603 135.376L189.826 135.373C186.689 135.374 184.206 134.637 182.447 137.617C181.652 136.512 181.457 136.13 180.272 135.453C177.92 135.354 175.443 135.363 173.079 135.339Z" fill="#B6B6B6"/>
<path d="M239.206 156.467C239.786 156.465 240.359 156.351 240.896 156.132C242.088 155.646 243.06 154.642 243.541 153.448C244.256 151.674 244.131 126.995 243.945 123.444C243.905 122.695 243.865 121.764 243.556 121.076C243.015 119.87 242.038 118.954 240.79 118.518C239.514 118.073 237.933 118.085 236.715 118.7C235.392 119.369 234.605 120.552 234.144 121.917C233.972 133.417 234.017 144.919 234.277 156.416C235.574 156.416 237.997 156.345 239.206 156.467Z" fill="#B6B6B6"/>
<path d="M38.7074 83.0325L39.3563 83.0479C39.347 85.6573 39.2985 88.3902 39.3713 90.9883C39.1416 90.9077 38.894 90.8947 38.6572 90.9508C38.7376 88.3622 38.7025 85.6327 38.7074 83.0325Z" fill="#D0D0D0"/>
<path d="M38.6572 90.9507C38.8939 90.8947 39.1416 90.9077 39.3712 90.9883C39.9674 91.1977 40.3192 91.8138 40.1967 92.434C40.0742 93.0543 39.5146 93.4902 38.8835 93.457C38.2525 93.4238 37.7418 92.9317 37.6849 92.3021C37.628 91.6723 38.0423 91.0966 38.6572 90.9507Z" fill="#A678A7"/>
<path d="M107.631 6.99951C109.047 7.23064 109.446 7.64513 110.136 8.88253C127.46 8.68093 145.119 8.87021 162.478 8.87073L215.894 8.85232C216.916 7.08911 219.03 6.26377 220.443 8.24855C221.059 9.11366 220.986 10.757 220.165 11.531C218.503 13.098 217.194 11.8757 215.641 10.9864C215.448 10.8767 214.198 10.9225 213.894 10.9347L213.966 49.3457L213.96 81.7214C210.477 81.6368 209.319 81.3102 207.639 78.1066C207.164 79.5454 206.464 80.5605 205.078 81.2551C203.993 81.7993 202.731 81.8752 201.589 81.4654C200.03 80.9009 199.388 79.7805 198.736 78.3855C196.936 81.3833 195.844 81.7028 192.475 81.7851L192.456 79.0599L133.82 79.0656L133.814 81.67C130.523 81.7309 128.987 81.5227 127.464 78.3457C125.32 82.8364 120.851 82.8482 118.6 78.3205C116.999 81.425 115.682 81.6807 112.37 81.7059L112.314 10.8571C111.818 10.8336 110.291 10.7215 110 11.0462C109.047 12.1091 108.032 12.7371 106.595 11.9486C105.93 11.5874 105.443 10.968 105.249 10.2363C104.781 8.44825 106.015 7.37598 107.631 6.99951Z" fill="#D0D0D0"/>
<path fill-rule="evenodd" clip-rule="evenodd" d="M208.316 10.934L208.333 14.5114L196.506 14.5261L196.493 71.4401L209.371 71.4444L209.43 75.477C208.439 75.6101 187.661 75.5499 186.555 75.5497L118.824 75.5606L118.81 71.4609C121.235 71.4246 122.94 71.4056 126.949 71.3974L127.202 14.5351L115.804 14.5273L115.803 10.9136L208.316 10.934ZM130.9 14.3259V71.9997H158.29V14.3259H130.9ZM164.849 14.3259V71.9997H193.293V14.3259H164.849Z" fill="#B6B6B6"/>
<path d="M285.887 37.8601L286.347 37.8797C286.869 38.6349 286.604 40.8213 286.607 41.8236L286.616 50.1598L286.621 75.1122L259.483 75.1085L259.093 75.0851C258.556 74.4895 258.811 71.5866 258.813 70.606L258.806 62.8267L258.824 37.9143L285.887 37.8601Z" fill="#B6B6B6"/>
<path d="M261.163 40.2095L284.268 40.2143C284.495 50.7424 284.278 62.2539 284.224 72.8243C276.654 72.967 268.696 72.8573 261.101 72.8589L261.163 40.2095Z" fill="#D0D0D0"/>
<path d="M272.223 47.5524C275.013 47.2701 277.508 49.2929 277.81 52.0818C278.112 54.8709 276.107 57.3812 273.321 57.7028C270.508 58.0277 267.969 55.9981 267.665 53.181C267.359 50.3639 269.406 47.8376 272.223 47.5524Z" fill="#B6B6B6"/>
<path d="M180.422 71.7689C179.528 70.9166 179.13 70.4967 178.452 69.4449C177.952 71.0505 177.547 72.389 176.678 73.885C174.204 78.152 168.726 81.5834 163.715 80.0173C162.975 79.786 161.762 78.7532 161.199 78.6667L161.078 78.9122C161.09 78.3693 159.642 76.7931 159.373 75.7193C159.056 74.4604 159.041 74.5973 159.06 73.2352C159.036 72.9764 158.988 72.8401 158.923 72.5909C155.987 76.1513 153.673 77.405 149.839 79.5926C149.485 79.8048 149.01 80.1121 148.641 80.2644C142.955 84.1082 142.115 85.5306 139.894 91.9052C139.23 93.8106 138.2 96.1631 137.599 98.1039C135.335 98.0633 133.951 98.3158 132.972 100.639C133.137 101.364 132.921 102.145 132.926 102.925L150.272 117.001C150.591 130.12 151.229 157.145 151.229 160.285C150.452 165.219 147.301 174.818 140.912 173.742C134.523 172.665 130.589 176.151 129.421 178.029C132.135 181.55 139.869 180.56 143.914 181.092C145.196 181.261 148.925 181.537 150.272 181.504C151.265 181.601 152.311 181.661 153.309 181.623C153.318 186.951 153.507 192.485 153.613 197.83C153.66 200.251 153.6 204.947 153.837 207.174C154.178 207.367 154.649 207.354 155.055 207.382H169.659H176.597L181.057 164.995C180.608 150.013 183.909 99.1886 185.615 75.6489C184.714 75.1288 183.353 74.4582 182.573 73.8181C182.458 73.6098 180.723 72.0577 180.422 71.7689Z" fill="white"/>
<path d="M192.976 139.646C192.065 139.633 190.169 139.709 189.494 139.217L189.529 139.04C190.554 138.511 192.388 138.77 193.556 138.866C194.489 139.808 197.783 145.062 198.823 146.569C201.96 151.174 205.505 157.007 208.733 161.34C209.911 161.341 216.305 161.189 216.964 161.511C217.826 162.434 218.045 164.717 217.083 165.659C216.545 166.183 215.784 166.06 215.095 166.018C214.547 170.468 213.646 174.987 212.998 179.433C212.741 181.201 212.144 186.397 211.061 187.587C209.85 188.179 207.315 188.123 205.909 188.061C202.06 187.892 197.874 188.257 194.069 188.007L194.443 201.379C194.468 202.281 194.64 206.526 194.504 207.206C194.117 207.351 194.095 207.342 193.699 207.382H176.597H169.659H155.055C154.649 207.354 154.178 207.367 153.837 207.174C153.6 204.947 153.66 200.251 153.613 197.83C153.507 192.485 153.318 186.951 153.308 181.623C154.946 181.599 156.561 181.241 158.056 180.569C163.235 178.266 165.684 172.394 166.836 167.181C166.984 166.513 167.073 165.897 167.32 165.255C167.648 165.098 168.086 165.16 168.467 165.175C168.423 164.325 168.122 162.391 168.682 161.75C169.565 160.739 175.749 161.669 177.385 161.305C177.785 161.216 177.843 160.96 178.024 160.633C178.043 159.044 177.909 157.018 177.882 155.36C179.863 154.754 180.527 153.878 182.605 153.946C183.572 152.468 184.013 152.054 185.503 151.099C185.4 151.754 184.225 153.259 183.782 153.874C182.115 156.377 180.431 158.869 178.733 161.349C184.282 161.352 190.588 161.208 196.089 161.372L194.462 147.991C195.569 147.668 196.778 147.209 197.874 146.82C196.91 145.368 193.961 140.567 192.976 139.646Z" fill="#1C2730"/>
<path d="M153.308 181.623C154.946 181.598 156.561 181.241 158.056 180.569C163.235 178.266 165.684 172.394 166.836 167.181C166.984 166.513 167.073 165.897 167.32 165.255C167.648 165.098 168.086 165.16 168.467 165.175C168.96 166.271 169.847 166.052 170.929 166.072L172.23 174.382C172.323 175.012 172.674 177.26 172.634 177.817C173.174 180.547 173.632 183.291 174.009 186.048C174.77 187.791 175.413 188.032 177.318 188.016C178.291 188.008 179.345 188.011 180.326 188.009L189.509 187.994C190.546 187.993 193.11 187.919 194.069 188.007L194.443 201.379C194.468 202.281 194.64 206.525 194.504 207.205C194.117 207.351 194.095 207.342 193.699 207.382H176.597H169.659H155.055C154.649 207.353 154.178 207.367 153.837 207.174C153.6 204.947 153.66 200.251 153.613 197.83C153.507 192.485 153.318 186.951 153.308 181.623Z" fill="#3C0628"/>
<path d="M197.874 146.819C200.974 151.365 204.573 156.717 207.513 161.371C203.705 161.35 199.897 161.351 196.088 161.372L194.461 147.991C195.569 147.668 196.778 147.209 197.874 146.819Z" fill="#B6B6B6"/>
<path d="M177.882 155.36C179.863 154.754 180.527 153.878 182.605 153.946C181.28 155.913 179.454 158.81 178.024 160.633C178.043 159.044 177.909 157.018 177.882 155.36Z" fill="#AD2464"/>
<path d="M171.819 166.074C173.88 166.02 176.138 166.064 178.217 166.069C178.525 167.919 178.663 170.565 178.835 172.502C176.842 172.469 174.849 172.481 172.855 172.533C172.544 170.375 172.198 168.221 171.819 166.074Z" fill="#3C0628"/>
<path d="M186.3 166.07C188.404 166.076 190.508 166.063 192.612 166.034L192.595 168.039L192.562 172.499L186.573 172.502C186.524 171.17 186.444 169.7 186.451 168.378C186.364 167.637 186.339 166.822 186.3 166.07Z" fill="#3C0628"/>
<path d="M186.3 166.07C188.404 166.076 190.508 166.063 192.612 166.034L192.595 168.039C190.546 168.135 188.498 168.249 186.451 168.378C186.364 167.637 186.339 166.822 186.3 166.07Z" fill="#AD2464"/>
<path d="M200.676 166.075C202.774 166.09 204.873 166.096 206.97 166.09C206.828 167.999 206.579 170.447 206.322 172.336L206.174 172.485C204.663 172.618 202.005 172.509 200.411 172.489C200.426 170.336 200.656 168.229 200.676 166.075Z" fill="#D9D9D9"/>
<path d="M193.509 166.061L196.38 166.069L199.812 166.082C199.703 168.221 199.575 170.359 199.427 172.495C197.501 172.552 195.619 172.522 193.694 172.497C193.381 172.084 193.513 166.915 193.509 166.061Z" fill="#D9D9D9"/>
<path d="M193.509 166.061L196.38 166.069L196.521 167.67C195.463 167.881 194.834 167.951 193.754 168.021C193.777 168.99 193.89 171.682 193.694 172.497C193.381 172.084 193.513 166.915 193.509 166.061Z" fill="#AD2464"/>
<path d="M207.873 166.079L214.236 166.077C213.904 168.155 213.561 170.231 213.205 172.304L213.1 172.444C212.493 172.57 208.108 172.507 207.264 172.505C207.434 170.372 207.754 168.224 207.873 166.079Z" fill="#D9D9D9"/>
<path d="M179.124 166.093L185.436 166.076C185.451 166.784 185.445 167.74 185.504 168.426C185.587 169.784 185.642 171.145 185.667 172.506L179.777 172.485C179.627 171.121 179.5 169.753 179.397 168.383C179.307 167.631 179.198 166.843 179.124 166.093Z" fill="#3C0628"/>
<path d="M179.124 166.093L185.436 166.076C185.451 166.784 185.445 167.74 185.504 168.426C183.468 168.435 181.432 168.421 179.397 168.383C179.307 167.631 179.198 166.843 179.124 166.093Z" fill="#AD2464"/>
<path d="M182.572 73.8181C183.353 74.4583 184.714 75.1288 185.615 75.6489C188.265 77.178 190.926 78.6496 193.524 80.2696C197.337 82.6496 198.486 86.782 200.248 90.648C202.034 94.566 203.639 98.653 205.528 102.528C205.949 103.514 206.392 104.49 206.857 105.456C208.459 109.057 210.082 112.649 211.728 116.231L212.542 118.031C214.189 121.728 215.856 125.415 217.546 129.092C217.791 129.766 218.116 130.588 218.305 131.263C218.856 133.374 218.65 135.585 217.555 137.491C216.941 138.549 216.083 139.447 215.054 140.109C213.83 140.908 212.082 141.512 210.695 142.032L202.997 144.912C202.021 145.277 199.643 146.118 198.823 146.569C197.783 145.062 194.489 139.807 193.556 138.866C192.388 138.77 190.554 138.511 189.529 139.04L189.494 139.217C190.169 139.709 192.065 139.633 192.976 139.646C193.961 140.567 196.91 145.368 197.874 146.819C196.778 147.209 195.569 147.668 194.462 147.991L196.089 161.372C190.588 161.208 184.282 161.352 178.733 161.349C180.431 158.868 182.115 156.377 183.782 153.874C184.225 153.259 185.4 151.754 185.503 151.099C186.194 150.894 186.434 150.171 187.752 150.083C186.688 147.787 185.394 144.816 184.402 142.48L183.602 143.004C182.98 142.696 181.75 143.004 181.75 142.412C180.845 142.217 177.652 145.595 177.596 141.736C177.418 129.417 177.326 117.096 177.319 104.775C177.329 101.015 177.379 97.255 177.469 93.4961C177.652 86.3967 177.973 79.7282 182.572 73.8181Z" fill="#454141"/>
<path d="M193.961 128.995C194.039 125.301 194.149 120.854 194.457 117.215C196.723 120.942 198.887 125.059 201.111 128.886C201.541 129.527 201.956 130.176 202.356 130.834C202.226 130.913 201.598 131.303 201.496 131.341C198.966 132.991 196.408 134.598 193.824 136.164C193.844 134.854 193.847 133.5 193.889 132.195C193.831 131.469 193.931 129.784 193.961 128.995Z" fill="#B487B4"/>
<path d="M201.111 128.886C201.541 129.527 201.956 130.176 202.356 130.834C202.226 130.913 201.598 131.303 201.496 131.341C198.966 132.991 196.408 134.598 193.824 136.164C193.844 134.854 193.847 133.5 193.889 132.195C193.831 131.469 193.931 129.784 193.961 128.995C195.082 128.976 200.485 129.1 201.111 128.886Z" fill="#B487B4"/>
<path d="M201.111 128.886C201.541 129.527 201.956 130.176 202.356 130.834C202.226 130.913 201.598 131.303 201.496 131.341C201.015 131.113 194.874 131.141 194.085 131.251C193.979 131.541 193.97 132.057 193.889 132.195C193.831 131.469 193.931 129.784 193.961 128.995C195.082 128.976 200.485 129.1 201.111 128.886Z" fill="#A073A1"/>
<path d="M111.212 100.625C111.95 99.6127 112.884 99.7588 113.289 100.941L113.747 100.519C115.87 100.507 117.733 100.639 119.849 100.8C120.507 100.85 122.079 100.997 122.68 100.981C126.924 101.467 128.84 101.423 132.926 102.925C133.751 103.346 134.388 103.707 135.181 104.19C142.782 109.964 143.95 118.729 144.591 127.592L144.5 127.766L144.805 131.315C144.804 131.315 144.803 131.315 144.802 131.315C144.86 136.604 144.5 141.404 143.946 146.644C143.016 155.462 140.837 167.188 144.169 175.677C145.443 177.852 146.255 179.2 148.492 180.507C148.825 180.701 150.093 181.348 150.272 181.504C148.925 181.537 145.196 181.261 143.914 181.092C139.869 180.56 132.135 181.55 129.421 178.029C123.291 170.078 126.003 156.083 126.915 146.797C127.344 142.418 127.897 138.681 128.048 134.565L127.779 134.52C126.836 133.762 125.739 131.971 125.042 130.926C122.981 127.437 121.378 123.256 119.59 119.642L119.022 118.354C118.107 116.389 116.342 112.442 115.696 110.479C114.923 112.144 114.49 113.326 114.092 115.132C107.93 114.688 101.883 114.181 95.6998 113.811C95.9459 112.948 96.1504 112.252 96.4646 111.415C96.619 111.029 96.7856 110.647 96.9642 110.27C99.1803 105.699 102.446 103.223 107.181 101.608C109.272 102.171 108.645 100.907 110.02 100.797L110.444 100.709C110.819 100.641 110.841 100.593 111.15 100.377L111.212 100.625Z" fill="#DEDEDE"/>
<path d="M113.289 100.941C112.884 99.759 111.95 99.6128 111.212 100.625L111.15 100.377C110.841 100.593 110.819 100.641 110.444 100.709L110.019 100.798C108.645 100.907 109.272 102.171 107.181 101.608C102.446 103.224 99.1803 105.699 96.9641 110.27C96.7856 110.647 96.6189 111.029 96.4646 111.415C96.1504 112.252 95.9458 112.948 95.6998 113.811C101.883 114.181 107.93 114.689 114.092 115.133C114.49 113.326 114.923 112.144 115.696 110.479C117.748 106.77 124.066 100.065 132.926 102.925C128.84 101.423 126.924 101.467 122.68 100.981C122.079 100.997 120.507 100.851 119.849 100.8C117.733 100.639 115.87 100.507 113.747 100.519L113.289 100.941Z" fill="white"/>
<path d="M115.696 110.479C116.907 108.335 118.331 106.415 120.412 105.03C128.867 111.638 128.29 124.868 128.048 134.565L127.779 134.52C126.836 133.762 125.739 131.971 125.042 130.926C122.981 127.437 121.378 123.256 119.59 119.642L119.022 118.354C118.107 116.389 116.342 112.442 115.696 110.479Z" fill="#454141"/>
<path d="M111.212 100.625C111.95 99.6126 112.884 99.7589 113.289 100.941C112.348 101.611 111.512 102.336 110.631 103.08C110.971 102.088 111.084 101.66 111.212 100.625Z" fill="#4C4C4C"/>
<path d="M99.1802 110.389C101.554 110.235 109.949 111.113 112.771 111.275C112.884 111.281 112.921 111.581 112.97 111.756C111.785 111.773 99.6853 110.929 99.3186 110.777L99.1802 110.389Z" fill="#565B77"/>
<path d="M107.733 104.492C108.75 104.505 116.738 104.934 117.119 105.171L117.212 105.629C116.152 105.603 107.99 105.119 107.741 104.917L107.733 104.492Z" fill="#565B77"/>
<path d="M105.55 107.616C106.327 107.561 113.916 107.905 114.348 108.163L114.412 108.602C111.949 108.478 108.359 108.356 105.856 108.007C105.639 107.977 105.663 107.874 105.55 107.616Z" fill="#565B77"/>
<path d="M106.729 103.177L106.999 103.249L107.078 103.465C106.749 104.029 104.545 105.396 103.899 105.699C103.578 105.558 103.649 105.536 103.425 105.166C103.299 104.752 103.165 104.498 103.291 104.093L103.449 104.015C103.814 104.218 103.877 104.542 104.043 104.944C104.869 104.47 105.919 103.723 106.729 103.177Z" fill="#565B77"/>
<path d="M104.643 106.415C104.871 106.549 104.791 106.452 104.875 106.712C104.616 107.231 102.405 109.032 101.744 108.823L101.602 108.487C101.452 108.023 101.305 107.791 101.469 107.373L101.634 107.314C102.033 107.635 101.944 107.651 102.169 108.197L104.643 106.415Z" fill="#6B6C83"/>
<path d="M158.923 72.5909C158.988 72.8401 159.036 72.9764 159.06 73.2352C159.041 74.5974 159.056 74.4604 159.373 75.7193C159.642 76.7931 161.09 78.3693 161.078 78.9122C159.81 87.8356 159.059 96.8253 158.833 105.836C158.667 114.595 159.123 123.274 159.635 132.013C159.846 135.585 159.931 139.211 160.24 142.768C160.106 143.353 158.734 144.143 158.206 144.539C153.038 148.408 152.086 154.422 151.158 160.342C150.939 160.325 151.05 160.358 150.834 160.223C150.661 159.399 150.614 154.454 150.596 153.427L150.371 137.809C150.339 135.966 150.368 131.984 150.171 130.356C150.05 126.955 149.803 123.458 149.553 120.061C149.524 119.664 149.504 119.52 149.211 119.308C148.957 119.487 145.098 127.208 144.627 128.092C143.993 119.059 142.925 110.072 135.181 104.19C134.387 103.707 133.751 103.346 132.926 102.925C132.921 102.145 133.137 101.364 132.972 100.639C133.951 98.3158 135.334 98.0633 137.599 98.1039C138.2 96.1631 139.23 93.8106 139.894 91.9052C142.115 85.5306 142.955 84.1082 148.641 80.2644C149.01 80.1121 149.485 79.8048 149.839 79.5926C153.673 77.405 155.987 76.1513 158.923 72.5909Z" fill="#454141"/>
<path d="M149.211 119.308C148.956 118.146 148.487 105.537 148.718 105.204C148.968 105.174 148.936 105.153 149.174 105.196C149.24 106.583 149.829 118.862 149.655 119.27C149.385 119.351 149.481 119.344 149.211 119.308Z" fill="black"/>
<path d="M181.75 142.411C182.438 142.51 182.98 142.696 183.602 143.004L184.402 142.48C185.394 144.816 186.688 147.787 187.752 150.083C186.434 150.17 186.194 150.894 185.503 151.099C184.013 152.054 183.572 152.468 182.605 153.946C180.527 153.878 179.863 154.754 177.882 155.36C175.033 156.138 172.394 156.148 169.592 155.095C169.837 154.171 170.008 153.608 170.408 152.751C170.646 152.387 171.141 151.168 171.429 150.634C172.485 148.668 173.507 147.594 175.072 146.103C174.404 145.842 172.913 144.914 173.541 144.069C174.368 143.64 175.949 143.792 176.934 143.812C177.695 143.845 178.263 143.642 178.966 143.368C179.654 143.101 181.324 142.878 181.75 142.411Z" fill="#FDA49A"/>
<path d="M175.072 146.103C177.167 146.855 180.222 147.423 179.037 150.221C178.507 151.477 177.531 152.201 176.317 152.74C175.003 153.407 171.717 153.214 170.408 152.751C170.646 152.387 171.141 151.168 171.429 150.634C172.485 148.668 173.507 147.594 175.072 146.103Z" fill="#E6CFE8"/>
<path d="M181.75 142.411C182.438 142.51 182.98 142.696 183.602 143.004C183.124 143.481 182.505 143.813 181.905 144.121C180.246 144.057 178.587 143.954 176.934 143.812C177.695 143.845 178.263 143.642 178.966 143.368C179.654 143.101 181.324 142.878 181.75 142.411Z" fill="#E6CFE8"/>
<path d="M152.282 164.041C153.208 163.954 164.131 164.843 164.533 165.071L164.63 165.516C162.444 165.58 155.256 164.625 152.556 164.418C152.371 164.404 152.374 164.265 152.282 164.041Z" fill="#565B77"/>
<path d="M154.376 153.525C155.515 153.457 166.197 154.244 166.885 154.547L167.011 154.879C165.873 154.923 155.176 154.132 154.494 153.855L154.376 153.525Z" fill="#565B77"/>
<path d="M161.911 147.147C164.182 147.229 168.387 147.663 170.808 147.916C170.923 147.927 170.977 148.276 171.025 148.445C170.052 148.419 162.556 147.823 162.017 147.525L161.911 147.147Z" fill="#565B77"/>
<path d="M151.286 167.379C152.292 167.407 159.403 167.922 159.784 168.208L159.839 168.631C158.86 168.547 151.76 168.066 151.369 167.821L151.286 167.379Z" fill="#565B77"/>
<path d="M160.474 150.512C161.838 150.421 166.881 150.877 168.468 151.093C168.641 151.117 168.642 151.293 168.726 151.524C166.98 151.611 162.672 151.198 160.76 150.924C160.561 150.895 160.573 150.76 160.474 150.512Z" fill="#565B77"/>
<path d="M157.981 160.908C159.693 161.008 162.705 161.148 164.43 161.492C164.613 161.529 164.601 161.684 164.686 161.939C163.794 161.964 158.676 161.629 158.081 161.292L157.981 160.908Z" fill="#565B77"/>
<path d="M153.431 156.98C154.66 156.953 157.868 157.138 159.139 157.477C159.331 157.529 159.318 157.68 159.405 157.933C158.096 157.931 154.976 157.694 153.638 157.417C153.472 157.382 153.489 157.211 153.431 156.98Z" fill="#565B77"/>
<path d="M161.255 157.697C162.062 157.595 165.751 157.832 166.493 158.13L166.653 158.508C165.88 158.636 162.671 158.287 161.709 158.143C161.369 158.094 161.393 157.97 161.255 157.697Z" fill="#565B77"/>
<path d="M160.795 145.708C160.917 145.706 160.991 145.745 161.117 145.785L161.169 145.964C160.848 146.582 158.963 147.941 158.327 148.263C157.943 148.034 158.025 148.009 157.779 147.539C157.586 147.083 157.477 146.971 157.561 146.55L157.742 146.541C158.17 146.808 158.258 147.137 158.478 147.606L160.795 145.708Z" fill="#565B77"/>
<path d="M159.389 149.177C159.573 149.249 159.486 149.189 159.624 149.392C159.487 149.989 157.524 151.543 156.966 151.968L156.415 150.915C156.272 150.566 156.231 150.54 156.257 150.157L156.42 150.089C156.882 150.35 156.94 150.622 157.165 151.111C157.983 150.328 158.472 149.858 159.389 149.177Z" fill="#565B77"/>
<path d="M156.566 159.358C156.842 159.424 156.727 159.352 156.91 159.573C156.726 160.263 155.248 161.632 154.538 161.927C154.182 161.814 154.294 161.844 154.043 161.419C153.833 161.038 153.654 160.824 153.701 160.4L153.84 160.33C154.259 160.524 154.385 160.862 154.629 161.277C155.235 160.737 155.936 159.958 156.566 159.358Z" fill="#565B77"/>
<path d="M161.697 168.302C162.236 168.317 163.197 168.29 163.654 168.527C163.847 168.628 163.801 168.711 163.878 169C163.311 168.998 162.36 169.044 161.873 168.783C161.709 168.694 161.749 168.572 161.697 168.302Z" fill="#565B77"/>
<path d="M111.986 91.4804C111.849 90.9873 112.032 89.7692 112.4 89.3971C113.702 88.0841 115.703 89.1189 116.828 90.1392C116.481 90.7626 116.123 91.3657 115.856 92.0273C116.418 91.9363 118.557 91.7524 118.77 91.6079C119.507 91.5061 120.434 91.9499 121.016 92.3802C122.251 93.2932 123.234 95.2024 123.395 96.7186C123.539 98.0876 122.923 99.662 122.68 100.981C122.079 100.997 120.507 100.851 119.849 100.8C117.733 100.639 115.87 100.507 113.747 100.519L113.289 100.941C112.884 99.7589 111.95 99.6126 111.212 100.625L111.149 100.377C111.224 100.031 111.453 99.5082 111.59 99.165L111.824 98.8053C110.162 97.3995 110.16 95.9584 109.537 94.1223L109.466 93.9158C109.447 93.0553 110.769 92.1978 111.433 91.7888L111.986 91.4804Z" fill="#FDA49A"/>
<path d="M111.986 91.4803C112.342 93.3829 112.597 94.4703 113.408 96.2626C113.247 96.5131 113.194 96.5721 113.093 96.8489C112.803 97.5645 112.292 98.1863 111.824 98.8052C110.162 97.3995 110.16 95.9584 109.537 94.1222L109.466 93.9158C109.447 93.0553 110.769 92.1977 111.433 91.7887L111.986 91.4803Z" fill="#FDA49A"/>
<path d="M111.986 91.4803C112.342 93.3829 112.597 94.4703 113.408 96.2626C113.247 96.5131 113.194 96.5721 113.093 96.8489C112.005 94.8463 111.969 93.9873 111.433 91.7887L111.986 91.4803Z" fill="#AD2464"/>
<path d="M115.449 93.1743C116.064 93.8121 116.37 94.0323 117.107 94.5432C115.999 96.542 114.879 98.5341 113.747 100.519L113.289 100.941C112.884 99.7589 111.95 99.6127 111.212 100.625L111.15 100.377C111.224 100.031 111.454 99.5082 111.59 99.165L111.824 98.8053C112.292 98.1863 112.803 97.5646 113.093 96.8489C113.194 96.5722 113.247 96.5131 113.408 96.2627C115.437 97.0949 115.488 94.4183 115.449 93.1743Z" fill="#454141"/>
<path d="M109.466 93.9158L109.537 94.1222C110.16 95.9583 110.162 97.3995 111.824 98.8052L111.59 99.1649C111.453 99.5081 111.224 100.031 111.149 100.377C110.841 100.593 110.819 100.641 110.444 100.709L110.019 100.797C108.091 100.561 107.47 98.4643 106.773 96.8701C106.868 96.6816 107.104 96.3773 107.235 96.1934C107.601 95.2039 108.244 94.8719 109.101 94.368L109.466 93.9158Z" fill="#FDA49A"/>
<path d="M106.773 96.8701C106.868 96.6816 107.104 96.3773 107.235 96.1934C107.72 97.6146 108.729 101.075 110.815 100.105L110.855 100.214L110.714 100.351C110.566 100.495 110.535 100.518 110.444 100.709L110.019 100.797C108.091 100.561 107.47 98.4643 106.773 96.8701Z" fill="#AD2464"/>
<path d="M109.466 93.9158L109.537 94.1222C110.16 95.9583 110.162 97.3995 111.824 98.8052L111.59 99.1649C109.843 98.4151 109.464 96.0571 109.101 94.368L109.466 93.9158Z" fill="#AD2464"/>
<path d="M106.773 96.8701C107.47 98.4644 108.091 100.561 110.019 100.797C108.645 100.907 109.272 102.171 107.181 101.608C105.559 99.7063 104.884 98.8235 106.773 96.8701Z" fill="#FDA49A"/>
<path d="M151.765 37.9647L179.399 38.1038L179.421 38.4987L179.675 38.7657C182.748 39.0215 183.45 39.1519 186.677 38.8205C186.762 38.661 186.822 38.5558 186.921 38.4006L187.009 38.2638C186.954 40.1523 186.554 43.0297 185.651 44.7038C184.386 47.8122 182.065 50.0294 179.302 51.8225C178.937 52.4027 178.708 67.1345 178.452 69.4449C177.952 71.0505 177.547 72.3889 176.678 73.885C174.204 78.152 168.726 81.5834 163.715 80.0173C162.975 79.786 161.762 78.7531 161.199 78.6667L161.078 78.9122C161.09 78.3693 159.642 76.7931 159.373 75.7193C159.056 74.4604 159.041 74.5973 159.06 73.2351C159.036 72.9763 158.988 72.84 158.923 72.5908C159.173 71.7977 159.183 70.6389 159.214 69.7857C152.873 69.3889 150.534 65.1655 150.815 59.209C151.141 52.3078 150.524 44.8887 151.057 38.031C151.336 38.1692 151.488 38.1508 151.564 38.4427C151.733 39.1015 151.577 39.7682 151.669 40.4524C151.75 39.835 151.747 38.627 151.765 37.9647Z" fill="#FDA49A"/>
<path d="M171.651 64.7358C170.66 69.0254 165.448 72.7446 161.13 73.0431C160.64 73.0768 159.489 73.1105 159.06 73.2352C159.036 72.9764 158.988 72.8401 158.923 72.5909C159.173 71.7978 159.183 70.639 159.214 69.7858C163.587 69.6971 168.121 67.1921 171.651 64.7358Z" fill="#D78580"/>
<path d="M151.057 38.0311C151.336 38.1693 151.488 38.1509 151.564 38.4428C151.733 39.1015 151.577 39.7683 151.669 40.4525C151.668 44.4334 151.639 48.4143 151.582 52.3947C151.552 54.1853 151.647 57.1294 151.544 58.7244C150.773 70.6182 160.624 70.9533 168.666 65.7851C169.211 65.4346 171.154 63.9168 171.734 64.2652C171.766 64.5849 171.788 64.4328 171.651 64.7358C168.121 67.1921 163.587 69.6971 159.214 69.7858C152.873 69.389 150.534 65.1656 150.815 59.2091C151.141 52.3079 150.524 44.8888 151.057 38.0311Z" fill="black"/>
<path d="M179.421 38.4987L179.674 38.7657C182.748 39.0216 183.45 39.1519 186.677 38.8205C186.762 38.6611 186.822 38.5558 186.921 38.4006L187.008 38.2639C186.954 40.1524 186.554 43.0298 185.651 44.7038L185.573 44.6975L185.489 44.5812C185.558 44.3627 185.652 44.1643 185.757 43.9606C184.922 43.6573 183.563 43.0634 182.734 43.1168C181.947 41.4778 180.929 41.3621 179.294 41.3922C179.365 40.4472 179.387 39.4492 179.421 38.4987Z" fill="#6E3449"/>
<path d="M182.734 43.1168C183.563 43.0635 184.922 43.6574 185.757 43.9607C185.652 44.1643 185.558 44.3627 185.489 44.5813L185.573 44.6975L185.651 44.7038C184.386 47.8123 182.065 50.0294 179.302 51.8226C179.16 51.5348 179.296 47.87 179.308 47.2392C179.56 47.2127 179.812 47.1821 180.064 47.1475C182.413 46.823 183.138 45.3069 182.734 43.1168Z" fill="#BC7275"/>
<path d="M166.081 57.1058C166.498 57.047 167.01 57.0582 167.441 57.0508C166.829 61.0762 163.029 63.4843 159.232 61.3368C157.892 60.4325 157.35 59.6147 156.927 58.0866C159.971 57.7213 163.025 57.456 166.081 57.1058Z" fill="#F9FAFB"/>
<path d="M164.291 43.7981C165.451 43.7189 167.845 43.6121 168.205 45.067C168.077 45.4367 168.19 45.3008 167.865 45.4979C167.516 45.5186 167.406 45.4277 167.114 45.2652C165.691 44.3649 163.532 45.4717 162.985 44.643C163.211 44.0106 163.706 43.9702 164.291 43.7981Z" fill="black"/>
<path d="M155.003 43.671C155.875 43.6119 158.01 43.5831 158.13 44.7567L157.882 44.9592C157.191 45.131 156.979 44.9574 156.257 44.716C155.023 44.7134 153.695 45.3783 152.934 44.9435C152.807 44.1162 154.429 43.7965 155.003 43.671Z" fill="#1A1317"/>
<path d="M165.041 47.3443C166.659 47.6998 166.559 49.6507 165.314 50.566C164.897 50.449 164.653 50.3353 164.411 49.968C164.123 49.529 164.034 48.9892 164.164 48.4807C164.308 47.8988 164.549 47.639 165.041 47.3443Z" fill="black"/>
<path d="M155.907 47.4128C157.69 47.4805 157.565 49.4368 156.593 50.5055C154.827 50.5046 154.864 48.4816 155.907 47.4128Z" fill="black"/>
<path d="M160.151 52.8484C160.1 52.1912 159.969 51.4459 160.232 50.8595L160.432 50.6606C161.253 50.9162 161.44 53.3819 160.531 53.6328C159.591 53.8923 159.459 53.7118 158.977 54.6623L158.949 54.7157L158.836 54.9145C158.594 54.6649 158.478 54.5666 158.215 54.3509C158.551 53.2457 159.104 53.0725 160.151 52.8484Z" fill="black"/>
<path d="M158.215 54.3508C158.478 54.5665 158.594 54.6648 158.836 54.9144L158.949 54.7157C159.396 56.6578 160.361 55.4191 161.199 56.5601L161.144 56.7656C160.46 57.2092 159.329 56.7762 158.804 56.2271C158.223 55.6183 158.193 55.1617 158.215 54.3508Z" fill="#1A1317"/>
<path d="M179.464 44.0176C179.015 44.3719 178.737 44.7573 178.147 44.7016L178.135 44.4826C178.694 43.5154 180.572 42.6532 181.2 43.5732L181.036 43.7604C180.648 43.8562 180.366 43.8121 179.968 43.7888L179.464 44.0176Z" fill="#453335"/>
<path d="M179.464 44.0175L179.968 43.7888C180.233 44.1058 180.455 44.2949 180.516 44.6948L180.426 44.8946C179.882 44.8547 179.747 44.4606 179.464 44.0175Z" fill="#453335"/>
<path d="M154.713 24.0347C161.049 16.0248 171.787 14.903 179.95 20.9329C184.043 23.9566 187.074 30.3255 186.932 35.4087C187.04 36.1584 187.054 37.4924 187.008 38.2638L186.921 38.4006C186.822 38.5558 186.762 38.661 186.677 38.8205C183.45 39.1519 182.748 39.0216 179.675 38.7657L179.421 38.4987L179.399 38.1038L151.765 37.9647C151.747 38.627 151.75 39.835 151.669 40.4524C151.577 39.7682 151.733 39.1015 151.563 38.4427C151.488 38.1508 151.336 38.1692 151.057 38.031C151.094 33.7256 151.005 31.7058 152.668 27.5503C153.233 26.3145 153.919 25.137 154.713 24.0347Z" fill="#3C0628"/>
<path d="M186.932 35.4088C187.04 36.1584 187.054 37.4925 187.008 38.2639L186.921 38.4006C186.822 38.5558 186.762 38.6611 186.677 38.8205C183.45 39.1519 182.748 39.0216 179.675 38.7657L179.421 38.4987L179.399 38.1038C179.937 38.0836 180.589 38.1184 181.134 38.1482C183.06 38.2538 184.94 38.1508 186.866 38.0585C186.867 37.152 186.86 36.3158 186.932 35.4088Z" fill="#4F1835"/>
<path d="M117.958 88.1671C118.779 86.8754 122.128 80.2344 123.109 79.979C123.405 79.9017 123.754 79.967 124.02 80.1118C124.374 80.3039 124.685 80.6837 124.752 81.0862C124.867 81.7757 121.449 87.0301 120.83 88.0783C120.343 88.9149 119.136 90.8355 118.77 91.6079C118.557 91.7523 116.418 91.9363 115.856 92.0273C116.123 91.3657 116.481 90.7626 116.828 90.1391C117.188 89.4726 117.565 88.815 117.958 88.1671Z" fill="#454141"/>
<path d="M207.116 127.389C207.233 127.315 207.387 127.35 207.461 127.466C207.535 127.583 207.5 127.737 207.383 127.811L184.714 142.147L188.185 150.231L205.86 143.466C205.989 143.417 206.134 143.482 206.183 143.611C206.233 143.739 206.168 143.884 206.039 143.933L188.139 150.783C188.014 150.831 187.873 150.772 187.82 150.649L184.17 142.149C184.122 142.036 184.162 141.904 184.266 141.839L207.116 127.389Z" fill="black"/>
<path d="M101.417 89.5968C101.514 89.3344 101.886 89.3344 101.983 89.5968L102.669 91.4526C102.7 91.5351 102.765 91.6002 102.847 91.6307L104.703 92.3174C104.966 92.4145 104.966 92.7856 104.703 92.8827L102.847 93.5694C102.765 93.5999 102.7 93.6649 102.669 93.7474L101.983 95.6032C101.886 95.8656 101.514 95.8656 101.417 95.6032L100.731 93.7474C100.7 93.6649 100.635 93.5999 100.553 93.5694L98.6968 92.8827C98.4344 92.7856 98.4344 92.4145 98.6968 92.3174L100.553 91.6307C100.635 91.6002 100.7 91.5351 100.731 91.4526L101.417 89.5968Z" fill="#454141"/>
<path d="M99.0234 96.123C99.084 95.959 99.316 95.959 99.3766 96.123L99.8058 97.2829C99.8249 97.3344 99.8656 97.3751 99.9171 97.3942L101.077 97.8234C101.241 97.884 101.241 98.116 101.077 98.1766L99.9171 98.6058C99.8656 98.6249 99.8249 98.6656 99.8058 98.7171L99.3766 99.877C99.316 100.041 99.084 100.041 99.0234 99.877L98.5942 98.7171C98.5751 98.6656 98.5344 98.6249 98.4829 98.6058L97.323 98.1766C97.159 98.116 97.159 97.884 97.323 97.8234L98.4829 97.3942C98.5344 97.3751 98.5751 97.3344 98.5942 97.2829L99.0234 96.123Z" fill="#454141"/>
</g>
<defs>
<clipPath id="clip0_220_3052">
<rect width="326" height="170" rx="24" fill="white"/>
</clipPath>
</defs>
</svg>
