<svg width="326" height="170" viewBox="0 0 326 170" fill="none" xmlns="http://www.w3.org/2000/svg">
<g clip-path="url(#clip0_171_2368)">
<path d="M0 0H326V20.491V50.3796V71.6749V109.64V112.652V122.031V157.429V170H221.642H172.996H166.437H155.206H125.459H116.684H82.2574H65.9009H43.7725H26.5653H23.2789H4.66177H0V166.177V153.144V116.513V98.0755V94.6786V72.6435V57.8176V47.2633V44.0306V27.2879V0Z" fill="#E4E6E5"/>
<path d="M247.544 71.1118L247.665 71.5174C248.392 71.7948 259.73 71.6401 261.523 71.6445L305.439 71.6541C312.237 71.6555 319.224 71.5711 326 71.6747V109.64V112.652V122.03V157.429V170H221.642C220.945 166.841 220.276 160.928 219.744 157.472C219.17 154.263 218.882 150.779 218.344 147.513C218.582 147.342 218.812 147.16 219.031 146.968C220.278 145.876 220.586 145.213 220.687 143.586C220.566 142.712 220.631 139.734 220.631 138.699L220.636 128.475L220.629 109.027C220.633 103.6 220.668 96.1237 221.308 90.7795C222.205 89.9062 224.227 88.5394 225.314 87.764L232.146 82.885C237.37 79.0802 242.504 75.1548 247.544 71.1118Z" fill="#D0D0D0"/>
<path d="M326 122.031L270.375 122.04L270.311 157.432C273.888 157.439 306.257 157.728 307.207 157.198L318.374 157.318C319.59 157.572 324.561 157.444 326 157.429V122.031Z" fill="#EAEAEA"/>
<path d="M220.836 121.987L262.424 122.037C262.451 124.786 262.513 127.572 262.46 130.318C262.287 139.36 262.658 148.403 262.37 157.447L233.738 157.451L224.421 157.451C223.113 157.451 220.989 157.386 219.744 157.473C219.17 154.263 218.882 150.78 218.344 147.513C218.582 147.342 218.812 147.16 219.031 146.968C220.278 145.876 220.586 145.213 220.687 143.586C220.949 143.059 220.824 124.387 220.836 121.987Z" fill="#EAEAEA"/>
<path d="M326 109.64V112.653C313.28 112.719 300.56 112.691 287.842 112.569C265.494 112.396 243.147 112.462 220.801 112.766C220.754 111.803 220.801 110.732 220.822 109.761L326 109.64Z" fill="#EAEAEA"/>
<path d="M0 44.0307C8.3417 43.9789 18.5825 43.5504 26.8087 43.9934C26.5894 45.9867 26.3547 66.8042 26.771 68.0012C26.4708 69.3124 26.5561 73.3508 26.5585 74.9502L26.5887 86.6523C31.1335 88.959 35.6725 90.6936 40.2269 92.8002L82.3015 111.897C82.0511 112.711 82.1068 114.291 82.1276 115.176L82.2574 170H65.9009H43.7725H26.5653H23.2789H4.66177H0V166.177V153.144V116.513V98.0756V94.6786V72.6436V57.8177V47.2634V44.0307Z" fill="#D0D0D0"/>
<path d="M0 44.0307C8.3417 43.9789 18.5825 43.5504 26.8087 43.9934C26.5894 45.9867 26.3547 66.8042 26.771 68.0012C26.4708 69.3124 26.5561 73.3508 26.5585 74.9502L26.5887 86.6523C31.1335 88.959 35.6725 90.6936 40.2269 92.8002L82.3015 111.897C82.0511 112.711 82.1068 114.291 82.1276 115.176C79.3022 114.206 76.3937 112.899 73.6601 111.671C67.9689 109.114 62.2918 106.43 56.5897 103.892L35.9807 94.5067C33.1915 93.2301 29.3631 91.8368 26.7398 90.3508C26.4818 93.5072 26.5618 97.1824 26.5637 100.388L26.568 115.728L26.5653 170H23.2789H4.66177H0V166.177V153.144V116.513V98.0756V94.6786V72.6436V57.8177V47.2634V44.0307Z" fill="#D0D0D0"/>
<path d="M0 44.0307C8.3417 43.9789 18.5825 43.5504 26.8087 43.9934C26.5894 45.9867 26.3547 66.8042 26.771 68.0012C26.4708 69.3124 26.5561 73.3508 26.5585 74.9502L26.5887 86.6523C31.1335 88.959 35.6725 90.6936 40.2269 92.8002L82.3015 111.897C82.0511 112.711 82.1068 114.291 82.1276 115.176C79.3022 114.206 76.3937 112.899 73.6601 111.671C67.9689 109.114 62.2918 106.43 56.5897 103.892L35.9807 94.5067C33.1915 93.2301 29.3631 91.8368 26.7398 90.3508C26.4818 93.5072 26.5618 97.1824 26.5637 100.388L26.568 115.728L26.5653 170H23.2789L23.306 47.2305C21.7352 47.3651 19.9427 47.3471 18.3482 47.333C12.2515 47.2784 6.08993 47.4474 0 47.2634V44.0307Z" fill="#EAEAEA"/>
<path d="M0 116.513L4.54697 116.458C4.83979 122.885 4.62049 130.945 4.61725 137.483L4.59869 146.862C4.59281 148.86 4.64751 151.191 4.45515 153.146L0 153.144V116.513Z" fill="#EAEAEA"/>
<path d="M12.3338 71.9385L15.5428 71.9636C15.8755 73.7073 15.6987 81.6715 15.7029 83.9087L15.7353 92.7268C15.7352 94.2962 15.7988 96.5063 15.5759 98.0052C10.6202 98.02 4.885 98.2105 0 98.0756V94.6786C4.01048 94.7026 8.26999 94.6106 12.2382 94.6992C12.4159 87.2996 12.0033 79.1277 12.3338 71.9385Z" fill="#EAEAEA"/>
<path d="M0 57.8176L4.59063 57.826L4.5937 72.6885C3.00745 72.6165 1.58169 72.6253 0 72.6435V57.8176Z" fill="#EAEAEA"/>
<path d="M0 166.177C1.57406 166.184 3.19179 166.168 4.76135 166.196C4.71578 167.437 4.64332 168.767 4.66177 170H0V166.177Z" fill="#EAEAEA"/>
<path d="M43.8097 126.487L65.7671 126.477C66.0902 132.282 65.8857 140.125 65.8546 146.009L65.9008 170H43.7724L43.7301 142.23C43.7322 137.124 43.6031 131.544 43.8097 126.487Z" fill="#EAEAEA"/>
<path d="M62.1916 146.02C64.8485 145.894 65.7386 148.292 63.4925 149.836C63.2588 149.848 62.2899 149.901 62.1294 149.826C59.9389 148.805 60.582 146.949 62.1916 146.02Z" fill="#D0D0D0"/>
<path d="M182.66 20.8296C182.945 20.06 183.267 19.3047 183.623 18.5665C187.682 10.142 198.172 6.34207 206.61 10.3984C208.027 9.47218 209.977 8.57395 211.639 9.03713C216.153 10.2957 219.402 17.0808 221.374 20.7371C221.943 21.8839 222.858 23.8821 223.945 24.6017C224.747 24.451 224.924 24.6158 225.615 25.0867C232.245 29.6082 238.738 34.3384 245.289 38.9732C248.191 41.0059 251.072 43.07 253.93 45.1653C256.324 46.9238 258.352 48.1082 259.98 50.6781C261.137 53.2656 261.687 55.7932 260.622 58.5521C259.136 62.4009 251.021 68.261 247.543 71.1119C242.504 75.1549 237.37 79.0803 232.146 82.8851L225.314 87.7641C224.227 88.5395 222.205 89.9063 221.307 90.7796C220.668 96.1238 220.633 103.6 220.629 109.027L220.636 128.475L220.631 138.699C220.631 139.735 220.566 142.712 220.687 143.586C220.586 145.213 220.278 145.876 219.031 146.968C218.811 147.16 218.582 147.342 218.344 147.513C216.029 148.066 213.019 147.91 210.58 147.915L200.995 147.929C198.234 147.932 192.235 148.105 189.715 147.884L188.01 147.891C187.843 145.969 187.972 141.324 187.972 139.216V121.747C187.97 105.19 187.764 88.1745 187.978 71.6635C187.787 70.6372 187.843 65.6792 187.842 64.3272C187.856 62.8656 187.854 61.4041 187.837 59.9427L187.7 59.9041C177.828 57.6995 180.3 45.5568 180.745 38.4632L180.9 36.4163C181.608 31.3243 181.285 25.8516 182.66 20.8296Z" fill="#454141"/>
<path d="M182.66 20.8296C182.945 20.06 183.267 19.3047 183.623 18.5665C187.682 10.142 198.172 6.34207 206.61 10.3984C208.027 9.47218 209.977 8.57395 211.639 9.03713C216.153 10.2957 219.402 17.0808 221.374 20.7371C221.943 21.8839 222.858 23.8821 223.945 24.6017L223.934 25.3667C222.501 27.0655 221.225 29.2854 219.771 30.997L219.407 31.4706L218.13 30.2214L217.708 31.595C217.522 32.2853 217.312 33.1717 217.054 33.8212C216.868 34.3725 216.69 34.9277 216.468 35.4656C216.082 36.2579 215.676 37.137 215.262 37.9069L215.157 38.2474C213.807 40.3321 213.266 40.5421 210.81 40.9274C210.671 42.8346 209.127 48.2239 208.605 50.3929C208.045 52.7112 205.151 62.831 205.21 64.2534L205.345 64.3853C204.734 65.0402 204.395 68.0591 203.965 69.0107C202.368 72.5526 202.763 75.6156 202.763 79.4568L202.771 91.9124L202.773 131.355L202.793 141.991C202.796 143.565 202.887 146.368 202.715 147.818L194.605 147.794C193.4 147.793 190.877 147.755 189.715 147.884L188.01 147.891C187.843 145.969 187.972 141.324 187.972 139.216V121.747C187.97 105.19 187.764 88.1745 187.978 71.6635C187.787 70.6372 187.843 65.6792 187.842 64.3272C187.856 62.8656 187.854 61.4041 187.837 59.9427L187.7 59.9041C177.828 57.6995 180.3 45.5568 180.745 38.4632L180.9 36.4163C181.608 31.3243 181.285 25.8516 182.66 20.8296Z" fill="#FEA49C"/>
<path d="M187.978 71.6636C188.604 72.6392 188.84 73.6337 189.686 74.4932C192.279 77.1253 196.407 77.0254 199.387 75.1163C200.71 74.2851 201.601 73.3361 202.644 72.1725L202.65 124.65L202.637 140.045C202.636 141.707 202.534 146.369 202.715 147.818L194.605 147.794C193.4 147.793 190.877 147.755 189.715 147.884L188.01 147.891C187.843 145.969 187.972 141.324 187.972 139.216V121.747C187.97 105.19 187.764 88.1745 187.978 71.6636Z" fill="#FEFEFE"/>
<path d="M182.66 20.8296C182.945 20.06 183.267 19.3047 183.623 18.5665C187.682 10.142 198.172 6.34207 206.61 10.3984C208.027 9.47218 209.977 8.57395 211.639 9.03713C216.153 10.2957 219.402 17.0808 221.374 20.7371C221.943 21.8839 222.858 23.8821 223.945 24.6017L223.934 25.3667C222.501 27.0655 221.225 29.2854 219.771 30.997L219.407 31.4706L218.13 30.2214L217.708 31.595C215.27 31.3693 212.056 31.0261 209.665 30.9798C209.667 30.5671 209.733 30.0772 209.515 29.7673C206.94 29.5482 204.059 29.5142 201.431 29.3763C195 29.0641 188.571 28.7063 182.144 28.3027C181.893 32.4504 181.595 36.5952 181.25 40.7362C180.737 47.2291 179.273 57.2633 187.88 59.3471L187.7 59.9041C177.828 57.6996 180.3 45.5568 180.745 38.4632L180.9 36.4163C181.608 31.3243 181.285 25.8516 182.66 20.8296Z" fill="#060001"/>
<path d="M206.61 10.3984C208.027 9.47218 209.977 8.57394 211.639 9.03712C216.153 10.2957 219.402 17.0808 221.374 20.7371C221.943 21.8839 222.858 23.8821 223.945 24.6016L223.934 25.3666C222.501 27.0655 221.225 29.2854 219.771 30.997L219.407 31.4706L218.13 30.2213L218.501 29.7056C213.579 24.9062 216.441 19.7479 209.415 16.9054C208.135 17.1842 205.88 17.9855 204.961 16.8975C205.128 15.2344 208.49 13.9505 209.958 14.1306C210.757 14.2287 211.913 15.4473 212.79 15.4535L212.755 15.2471C211.636 14.1749 211.147 13.9541 209.761 13.3604C208.209 13.6414 206.579 14.6259 205.324 14.4323C204.874 14.1204 204.992 14.2971 204.872 13.7754C205.143 12.9113 206.169 12.4605 206.951 12.0177L206.811 11.3229L206.739 11.1184L207.129 10.6332L206.61 10.3984Z" fill="#FEA49C"/>
<path d="M206.61 10.3984C208.027 9.47218 209.977 8.57394 211.639 9.03712C216.153 10.2957 219.402 17.0808 221.374 20.7371C221.943 21.8839 222.858 23.8821 223.945 24.6016L223.934 25.3666C220.543 22.8862 218.111 12.5224 211.914 9.48492C209.843 9.51846 208.952 9.53534 207.129 10.6332L206.61 10.3984Z" fill="#24000B"/>
<path d="M206.811 11.3229C207.962 11.052 209.239 10.7084 210.405 10.6516C212.158 11.5771 213.189 12.3174 214.332 13.9942C212.675 13.2285 211.911 12.0053 210.272 11.1586C209.094 11.3341 208.057 11.5425 206.951 12.0177L206.811 11.3229Z" fill="#060001"/>
<path d="M218.501 29.7058L219.771 30.9972L219.407 31.4708L218.13 30.2215L218.501 29.7058Z" fill="#3B0B1C"/>
<path d="M187.837 59.9428C192.233 60.5823 196.156 58.9993 200.059 57.1541C199.865 57.9448 199.338 58.6121 198.86 59.2562C196.359 62.6241 192.019 64.5877 187.842 64.3273C187.856 62.8657 187.854 61.4042 187.837 59.9428Z" fill="#D78983"/>
<path d="M187.88 59.347C190.42 59.851 193.795 59.025 196.243 58.2567C197.124 57.9801 199.527 56.4216 200.407 56.312C200.502 56.3002 200.576 56.375 200.591 56.4694C200.602 56.5368 200.58 56.6054 200.533 56.6549L200.21 56.9949C200.11 57.1 199.991 57.1858 199.86 57.2475C196.022 59.0522 192.159 60.5713 187.837 59.9427L187.7 59.9041L187.88 59.347Z" fill="#060001"/>
<path d="M209.665 30.98C212.056 31.0262 215.27 31.3694 217.708 31.5952C217.522 32.2855 217.312 33.1719 217.054 33.8214C215.916 33.7953 214.071 33.5853 213.022 33.7861C211.728 33.4633 210.784 33.5911 209.482 33.7108L209.665 30.98Z" fill="url(#paint0_linear_171_2368)"/>
<path d="M213.022 33.7861C214.071 33.5853 215.916 33.7953 217.054 33.8214C216.868 34.3727 216.69 34.9278 216.468 35.4657C216.082 36.2581 215.676 37.1371 215.262 37.9071C215.213 37.5825 215.16 37.2587 215.101 36.9357C214.811 35.29 214.358 34.7141 213.022 33.7861Z" fill="url(#paint1_linear_171_2368)"/>
<path d="M191.085 40.1013C191.157 39.3447 192.055 39.0701 192.177 39.8204C192.229 40.1418 192.216 40.5086 192.178 40.8757C192.099 41.6551 191.414 42.1835 190.643 42.3259C190.171 42.4131 189.762 42.5977 189.581 43.0194C189.474 43.2714 189.544 43.5585 189.678 43.7979C190.279 44.8758 190.797 44.8388 191.409 45.4222C191.481 45.4911 191.512 45.5922 191.497 45.6909C191.469 45.8785 191.287 46.0038 191.104 45.9527C189.5 45.5044 187.955 44.3921 188.899 42.4637C189.273 41.6969 189.675 41.5401 190.324 41.3543C190.638 41.2642 190.938 41.0788 191.006 40.7591C191.048 40.5616 191.062 40.34 191.085 40.1013Z" fill="#060001"/>
<path d="M195.6 32.4029C195.384 31.8624 196.256 31.5913 196.734 31.9246C197.388 32.3806 198.12 33.0884 198.72 33.3368C199.307 33.5798 199.994 33.5881 200.507 33.8201C200.731 33.9213 200.874 34.1797 200.84 34.4225C200.783 34.8295 200.298 35.0084 199.894 34.9256C198.361 34.6109 196.149 33.7657 195.6 32.4029Z" fill="#060001"/>
<path d="M188.943 30.8768C189.19 30.7421 189.492 30.6776 189.728 30.8317C189.792 30.874 189.854 30.9228 189.928 30.9815C190.024 31.0578 190.085 31.1691 190.098 31.2907C190.108 31.3838 190.09 31.4787 190.036 31.555C189.266 32.6335 186.775 33.0162 185.446 33.0671C185.313 33.0722 185.182 33.0531 185.053 33.0203C184.781 32.9512 184.795 32.9688 184.625 32.7952C184.538 32.7064 184.497 32.5821 184.516 32.4595C184.525 32.395 184.55 32.3327 184.597 32.2872C185.198 31.7019 187.24 31.6464 188.056 31.296C188.439 31.1316 188.659 31.0313 188.943 30.8768Z" fill="#060001"/>
<path d="M187.776 48.1205C188.135 47.9356 188.531 47.8294 188.935 47.8166C191.042 47.7495 193.441 48.5544 193.693 50.9288C193.698 50.9827 193.676 51.0367 193.635 51.0716C193.582 51.1155 193.508 51.1238 193.45 51.0883C192.933 50.7732 192.675 50.2686 192.256 49.6966C192.139 49.5377 191.999 49.3947 191.842 49.2749C188.964 47.0712 187.986 49.8384 186.392 49.717C186.305 49.7104 186.233 49.648 186.204 49.5655C186.178 49.4906 186.19 49.4071 186.238 49.3441C186.661 48.7957 187.185 48.4248 187.776 48.1205Z" fill="#060001"/>
<path d="M195.989 36.7871C196.175 36.3745 196.575 36.0874 197.009 36.2161C197.189 36.2694 197.392 36.3675 197.519 36.5052C198.069 37.0977 197.993 37.8318 197.689 38.512C197.377 39.2095 196.501 39.8208 195.937 39.3046C195.391 38.8054 195.596 37.6615 195.989 36.7871Z" fill="#060001"/>
<path d="M186.474 35.941C186.885 35.2082 187.994 35.0043 188.385 35.7483C188.659 36.2697 188.586 36.8922 188.29 37.4652C187.902 38.2154 186.788 38.3777 186.367 37.6453C186.063 37.1153 186.151 36.5145 186.474 35.941Z" fill="#060001"/>
<path d="M211.806 36.6999C212.113 36.5881 212.44 36.5313 212.764 36.567C213.359 36.6324 213.713 36.7804 214.294 37.1934C214.343 37.2286 214.37 37.288 214.363 37.3484C214.355 37.4211 214.301 37.4812 214.229 37.494C213.302 37.6587 213.552 37.1974 212.734 37.2241C212.653 37.2267 212.575 37.2778 212.572 37.3586C212.552 37.7678 213.216 38.2556 213.182 38.9493C213.178 39.0469 213.115 39.1298 213.03 39.178C212.882 39.2615 212.695 39.2217 212.607 39.0769C212.409 38.7527 212.208 38.3381 212.028 37.9526C211.885 37.6462 211.499 37.5799 211.245 37.8032C211.004 38.0145 210.752 38.1791 210.429 38.2085C210.307 38.2196 210.211 38.118 210.204 37.9962C210.202 37.9471 210.214 37.8979 210.24 37.8562C210.686 37.1448 211.101 36.9572 211.806 36.6999Z" fill="#060001"/>
<path d="M218.13 30.2214L219.407 31.4707C220.564 32.9082 221.854 33.9613 223.006 35.2673C223.834 36.1644 224.673 37.0526 225.521 37.9317C230.378 42.7517 234.967 47.8736 239.776 52.7428C240.213 53.1853 240.67 53.6331 241.087 54.0918C233.762 58.3467 225.441 63.5257 217.966 67.342L214.87 66.5447C212.245 65.7505 208.113 64.9771 205.345 64.3854L205.21 64.2535C205.151 62.8311 208.045 52.7113 208.605 50.393C209.127 48.224 210.671 42.8346 210.81 40.9275C213.266 40.5422 213.807 40.3321 215.157 38.2475L215.262 37.907C215.676 37.1371 216.082 36.258 216.469 35.4657C216.69 34.9277 216.868 34.3726 217.054 33.8213C217.312 33.1718 217.522 32.2854 217.709 31.5951L218.13 30.2214Z" fill="#D0D0D0"/>
<path d="M208.605 50.3928C210.771 50.3842 213.016 50.3475 215.174 50.3873C215.187 52.5169 215.496 65.594 214.87 66.5446C212.245 65.7503 208.113 64.9769 205.345 64.3853L205.21 64.2534C205.151 62.8309 208.045 52.7112 208.605 50.3928Z" fill="#EAEAEA"/>
<path d="M218.13 30.2214L219.407 31.4707C220.564 32.9082 221.854 33.9613 223.006 35.2673C223.834 36.1644 224.673 37.0526 225.521 37.9317C224.872 38.6112 215.712 38.6301 215.157 38.2475L215.262 37.907C215.676 37.1371 216.082 36.258 216.468 35.4657C216.69 34.9277 216.868 34.3726 217.054 33.8213C217.312 33.1718 217.522 32.2854 217.708 31.5951L218.13 30.2214Z" fill="#EAEAEA"/>
<path d="M218.13 30.2214L219.407 31.4707C220.564 32.9082 221.853 33.9613 223.006 35.2673C221.503 35.5907 217.989 35.7016 216.468 35.4657C216.69 34.9277 216.868 34.3726 217.054 33.8213C217.312 33.1718 217.522 32.2854 217.708 31.5951L218.13 30.2214Z" fill="#D0D0D0"/>
<path d="M187.842 64.3271C187.843 65.6792 187.787 70.6372 187.978 71.6635C187.764 88.1745 187.971 105.19 187.972 121.747V139.216C187.972 141.324 187.843 145.969 188.01 147.891L189.715 147.884C192.235 148.105 198.234 147.932 200.995 147.929L210.58 147.915C213.019 147.909 216.029 148.066 218.344 147.513C218.882 150.779 219.17 154.263 219.744 157.473C220.276 160.928 220.945 166.841 221.642 170H172.996H166.437H155.206H125.459L125.444 151.006C126.215 151.005 128.761 151.122 129.212 150.833C131.989 150.78 139.665 151.443 141.711 150.06C142.304 149.659 142.788 149.134 143.079 148.477C144.058 146.262 144.358 143.388 144.846 141.011L147.452 128.369C147.677 127.288 147.807 126.589 147.914 125.49C148.64 125.5 149.663 125.563 150.233 125.035C150.63 124.667 150.679 124.165 150.698 123.659C150.734 122.707 150.843 121.139 150.126 120.416C149.219 119.502 140.488 119.969 138.792 119.983C138.268 119.955 137.685 119.856 137.254 120.126L137.006 120.529C136.21 119.15 135.44 117.756 134.698 116.348C134.514 116.222 132.677 112.798 132.478 112.367C133.533 110.599 135.293 107.724 136.049 105.85L136.473 105.556C137.311 105.929 142.119 109.185 143.152 109.869C147.28 112.587 151.426 115.276 155.592 117.935C157.496 108.996 158.837 99.6736 160.644 90.6946C161.397 86.9453 161.945 81.7204 163.277 78.2406C165.617 72.1294 171.554 70.144 177.106 67.8215C180.363 66.5788 184.445 65.1126 187.842 64.3271Z" fill="#454141"/>
<path d="M189.715 147.884C192.235 148.105 198.234 147.932 200.995 147.929L210.58 147.915C213.019 147.909 216.029 148.066 218.344 147.513C218.882 150.779 219.17 154.263 219.744 157.472C220.276 160.928 220.945 166.841 221.642 170H172.996C173.052 169.024 173.184 167.92 173.3 166.948C174.073 160.52 174.56 153.979 175.443 147.568C177.04 148.084 186.016 148.023 188.01 147.891L189.715 147.884Z" fill="black"/>
<path d="M147.452 128.369C148.148 128.701 154.187 134.197 155.306 135.15C155.037 138.961 155.203 144.15 155.211 148.099L155.206 170H125.459L125.444 151.006C126.215 151.005 128.761 151.122 129.212 150.833C131.989 150.78 139.665 151.443 141.711 150.06C142.304 149.659 142.788 149.134 143.079 148.477C144.058 146.262 144.358 143.388 144.846 141.011L147.452 128.369Z" fill="#EAEAEA"/>
<path d="M172.328 120.222C172.581 122.579 172.578 125.54 172.645 127.949L172.987 137.914C173.057 140.169 172.864 143.007 173.472 145.158C173.702 145.969 175.179 147.123 175.443 147.568C174.56 153.979 174.072 160.52 173.3 166.948C173.184 167.92 173.052 169.024 172.996 170H166.437H155.206L155.21 148.099C155.203 144.15 155.037 138.961 155.306 135.15C158.7 138.139 162.08 139.15 166.141 136.421C168.468 134.262 168.902 131.478 169.781 128.53C170.59 125.748 171.44 122.979 172.328 120.222Z" fill="#D0D0D0"/>
<path d="M134.698 116.348C135.413 116.447 138.082 119.307 138.792 119.983C138.268 119.955 137.685 119.856 137.254 120.126L137.006 120.529C136.21 119.15 135.44 117.756 134.698 116.348Z" fill="#EAEAEA"/>
<path d="M260.413 7.72029C279.656 7.94593 299.232 7.57158 318.528 7.6667L318.52 20.4864L326 20.4912V50.3797V71.675C319.224 71.5714 312.237 71.6557 305.439 71.6543L261.523 71.6448C259.73 71.6403 248.392 71.7951 247.664 71.5177L247.543 71.1121C251.021 68.2612 259.136 62.4011 260.622 58.5522C261.687 55.7933 261.137 53.2657 259.98 50.6782C258.352 48.1084 256.324 46.9239 253.93 45.1655C251.072 43.0702 248.191 41.006 245.289 38.9733C238.738 34.3385 232.245 29.6084 225.615 25.0869C224.924 24.616 224.747 24.4512 223.945 24.6018C222.858 23.8823 221.943 21.884 221.374 20.7373C223.039 20.3922 230.233 20.602 232.491 20.5752C241.737 20.4654 251.192 20.7728 260.421 20.5194L260.413 7.72029Z" fill="#D0D0D0"/>
<path d="M259.98 50.6781C260.644 50.1554 268.336 50.3829 269.728 50.3828L288.429 50.358C288.414 56.4537 288.44 62.5494 288.505 68.6448C290.385 68.7124 292.052 68.7801 293.932 68.6149C293.877 64.7352 293.868 60.8549 293.905 56.975C293.909 54.8624 293.836 52.5532 293.955 50.4689C296.463 50.2179 302.171 50.372 304.885 50.3723L326 50.3796V71.6749C319.224 71.5713 312.237 71.6557 305.439 71.6542L261.523 71.6447C259.73 71.6402 248.392 71.795 247.664 71.5176L247.543 71.112C251.022 68.2611 259.137 62.401 260.622 58.5522C261.687 55.7932 261.137 53.2656 259.98 50.6781Z" fill="#EAEAEA"/>
<path d="M141.344 35.5781C145.342 35.853 179.838 35.3644 180.737 35.9113L180.9 36.4165L180.745 38.4634C180.3 45.557 177.828 57.6997 187.7 59.9043L187.837 59.9429C187.854 61.4043 187.856 62.8658 187.842 64.3273C184.445 65.1128 180.363 66.579 177.106 67.8217C171.554 70.1442 165.617 72.1296 163.277 78.2408C161.945 81.7206 161.397 86.9455 160.644 90.6948C158.837 99.6738 157.496 108.996 155.592 117.935C151.426 115.276 147.28 112.587 143.152 109.869C142.119 109.185 137.311 105.929 136.473 105.556C134.937 104.251 133.277 103.453 131.636 102.361C130.375 101.454 129.298 100.435 127.969 99.613C126.097 98.4546 123.84 98.8798 121.756 98.8027C121.344 98.7876 120.731 98.831 120.344 98.7655C118.634 98.4761 117.153 98.0318 115.4 97.9073C115.765 97.8574 116.131 97.8045 116.496 97.7486C116.71 97.4076 116.623 93.5168 116.624 92.8216L116.546 75.8551C116.553 74.0568 116.861 70.2964 116.727 68.886C119.298 68.9672 125.112 69.0746 127.348 68.7907C127.199 58.752 127.345 48.3419 127.346 38.2725L127.352 35.6407C131.995 35.5694 136.697 35.5934 141.344 35.5781Z" fill="#D0D0D0"/>
<path d="M141.344 35.5781C145.342 35.853 179.838 35.3644 180.737 35.9113L180.9 36.4165L180.745 38.4634C178.999 38.2802 176.175 38.4058 174.303 38.4132L162.911 38.4217C151.056 38.4568 139.201 38.4071 127.346 38.2725L127.353 35.6407C131.995 35.5694 136.697 35.5934 141.344 35.5781Z" fill="#EAEAEA"/>
<path d="M115.4 97.9072C117.153 98.0318 118.634 98.476 120.344 98.7655C120.731 98.8309 121.344 98.7876 121.756 98.8027C123.84 98.8797 126.097 98.4546 127.969 99.6129C129.298 100.435 130.375 101.454 131.636 102.361C133.277 103.453 134.937 104.251 136.473 105.556L136.049 105.85C135.293 107.724 133.533 110.599 132.478 112.368C132.677 112.798 134.514 116.222 134.698 116.348C135.44 117.756 136.21 119.15 137.006 120.529L137.254 120.126C137.685 119.856 138.268 119.955 138.792 119.983C140.488 119.969 149.219 119.502 150.126 120.416C150.843 121.139 150.734 122.707 150.698 123.659C150.679 124.165 150.63 124.667 150.233 125.035C149.663 125.564 148.64 125.501 147.914 125.49C147.807 126.589 147.677 127.288 147.452 128.369L144.846 141.011C144.358 143.389 144.058 146.262 143.079 148.477C142.788 149.134 142.304 149.659 141.711 150.06C139.665 151.443 131.989 150.78 129.212 150.833C128.136 150.788 126.851 150.807 125.771 150.835C118.528 151.023 111.036 150.52 103.824 150.839C99.3794 150.669 98.868 148.278 98.1762 144.513C97.9017 143.02 97.5821 141.463 97.2793 139.971L94.2958 125.512C92.0738 125.522 91.251 124.652 91.4322 122.264C91.5174 121.14 91.8481 120.652 92.7586 120.007C96.4346 119.923 102.083 119.84 105.686 120.055C107.412 116.971 109.101 113.866 110.752 110.742C111.94 108.513 113.211 105.485 115.243 104.025C115.569 103.31 115.813 103.101 116.363 102.525L117.067 102.066C115.022 101.43 112.382 99.5888 115.4 97.9072Z" fill="#202020"/>
<path d="M115.4 97.9072C117.153 98.0318 118.634 98.476 120.344 98.7655C120.731 98.8309 121.344 98.7876 121.756 98.8027C123.84 98.8797 126.097 98.4546 127.969 99.6129C129.298 100.435 130.375 101.454 131.636 102.361C133.277 103.453 134.937 104.251 136.473 105.556L136.049 105.85C135.293 107.724 133.533 110.599 132.478 112.368C132.677 112.798 134.514 116.222 134.698 116.348C135.44 117.756 136.21 119.15 137.006 120.529L137.254 120.126C137.685 119.856 138.268 119.955 138.792 119.983C140.488 119.969 149.219 119.502 150.126 120.416C150.843 121.139 150.734 122.707 150.698 123.659C150.679 124.165 150.63 124.667 150.233 125.035C149.663 125.564 148.64 125.501 147.914 125.49C142.108 125.353 135.779 125.48 129.911 125.481L94.2958 125.512C92.0738 125.522 91.251 124.652 91.4322 122.264C91.5174 121.14 91.8481 120.652 92.7586 120.007C96.4346 119.923 102.083 119.84 105.686 120.055C107.412 116.971 109.101 113.866 110.752 110.742C111.94 108.513 113.211 105.485 115.243 104.025C115.569 103.31 115.813 103.101 116.363 102.525L117.067 102.066C115.022 101.43 112.382 99.5888 115.4 97.9072Z" fill="#FEFEFE"/>
<path d="M115.399 97.9072C117.153 98.0318 118.634 98.476 120.344 98.7655C120.731 98.8309 121.344 98.7876 121.756 98.8027C123.84 98.8797 126.097 98.4546 127.969 99.6129C129.298 100.435 130.375 101.454 131.636 102.361C133.277 103.453 134.937 104.251 136.473 105.556L136.049 105.85C135.293 107.724 133.533 110.599 132.478 112.368C132.677 112.798 134.513 116.222 134.697 116.348C135.44 117.756 136.21 119.15 137.006 120.529C137.636 121.706 138.187 123.276 136.833 124.25C135.006 124.89 133.46 121.15 132.803 119.927C130.371 119.97 127.889 119.96 125.452 119.976C125.463 118.146 125.554 114.198 125.243 112.532C122.848 112.771 119.261 111.413 116.706 110.772L116.633 110.569L116.607 110.348C116.314 109.832 115.484 109.394 114.953 109.056C114.786 107.201 115.056 106.193 115.672 104.517L115.243 104.025C115.569 103.31 115.813 103.101 116.363 102.525L117.067 102.066C115.022 101.43 112.382 99.5888 115.399 97.9072Z" fill="#3B0522"/>
<path d="M119.421 103.058C120.112 102.211 121.017 100.882 122.308 101.23C123.27 102.659 118.82 107.747 121.022 108.762C121.268 108.442 121.205 107.113 121.281 106.539C121.456 105.214 123.725 100.967 125.461 102.454C125.92 104.094 123.057 106.853 123.552 109.357L123.802 109.484C124.096 109.309 124.223 109.307 124.254 108.927C124.384 107.341 124.827 104.097 126.996 104.019C127.196 104.113 127.438 104.171 127.473 104.345C127.664 105.283 126.806 107.659 126.582 108.595C127.103 109.672 127.563 110.56 128.153 111.6C127.2 112.035 126.312 112.48 125.243 112.532C122.848 112.771 119.261 111.412 116.706 110.771L116.633 110.569L116.608 110.348C116.314 109.832 115.484 109.393 114.953 109.055C114.786 107.2 115.056 106.193 115.673 104.517L115.243 104.025C115.569 103.31 115.813 103.101 116.363 102.525L117.067 102.066L119.013 102.685L119.421 103.058Z" fill="#FEA49C"/>
<path d="M117.067 102.066L119.013 102.685L119.421 103.058C118.759 103.993 118.629 104.131 118.274 105.247C118.014 106.066 118.356 107.543 118.149 108.327C118.052 108.697 117.59 108.616 117.483 108.248C117.049 106.762 118.381 104.471 117.646 103.388C117.065 103.095 117.306 103.133 116.712 103.17C116.184 103.491 115.949 103.964 115.673 104.517L115.243 104.025C115.569 103.31 115.813 103.101 116.363 102.525L117.067 102.066Z" fill="#24000B"/>
<path d="M117.067 102.066L119.013 102.685L118.666 103.141C118.113 103.329 117.562 102.547 116.363 102.525L117.067 102.066Z" fill="#D0D0D0"/>
<path d="M120.752 100.797C119.746 101.433 118.599 101.95 117.47 101.572C116.393 101.211 115.319 100.724 114.735 99.9696C114.608 99.4046 114.726 98.8279 115.396 98.6896C117.029 98.3531 118.822 99.2435 120.431 99.3927C122.129 99.55 123.923 99.1806 125.628 99.4475C128.001 99.7284 129.137 101.305 130.96 102.561C132.59 103.683 134.356 104.78 136.049 105.85C135.293 107.724 133.533 110.599 132.478 112.367C130.884 109.722 129.367 106.626 127.903 103.898C127.828 103.758 127.657 103.659 127.451 103.586C126.836 103.366 126.258 103.087 126.077 102.46C126.07 102.434 126.062 102.408 126.053 102.381C125.93 101.985 125.653 101.625 125.256 101.503C124.539 101.283 124.012 101.801 123.292 101.672C123.05 101.629 122.552 100.92 122.003 100.605C121.764 100.467 121.471 100.469 121.213 100.565C121.053 100.625 120.9 100.704 120.752 100.797Z" fill="#FEA49C"/>
<path d="M128.153 111.6C129.675 114.391 131.224 117.167 132.803 119.927C130.371 119.97 127.889 119.96 125.452 119.976C125.463 118.146 125.554 114.198 125.243 112.532C126.312 112.48 127.2 112.035 128.153 111.6Z" fill="#EAEAEA"/>
<path d="M115.243 104.025L115.673 104.517C115.056 106.193 114.786 107.2 114.953 109.055C115.484 109.393 116.314 109.832 116.608 110.348L116.633 110.569L116.706 110.771C119.261 111.412 122.848 112.771 125.243 112.532C125.554 114.198 125.463 118.146 125.452 119.976L116.633 119.964C114.845 119.966 111.32 120.039 109.695 119.76C109.121 120.773 106.119 127.373 104.749 122.762C104.485 121.872 105.203 120.827 105.686 120.055C107.412 116.971 109.101 113.866 110.752 110.742C111.94 108.513 113.211 105.485 115.243 104.025Z" fill="#202020"/>
<path d="M116.706 110.771C119.261 111.412 122.848 112.771 125.243 112.532C125.554 114.198 125.463 118.146 125.452 119.976L116.633 119.964C116.576 117.231 116.595 113.487 116.706 110.771Z" fill="#D0D0D0"/>
<path d="M115.112 110.018C115.604 110.237 116.122 110.398 116.633 110.569L116.706 110.772C116.595 113.487 116.576 117.231 116.633 119.964C114.845 119.966 111.32 120.04 109.695 119.76C111.546 116.556 113.304 113.255 115.112 110.018Z" fill="#E7CFE8"/>
<path d="M26.771 68.001C29.6576 69.6665 35.2933 72.016 38.5199 73.4729L57.1099 82.0142C67.3298 86.8025 77.5804 91.5255 87.8608 96.1827C91.9705 98.0333 96.4796 100.215 100.653 101.87C98.5977 106.848 95.8628 111.824 93.686 116.791C89.912 115.251 86.0038 113.306 82.3015 111.897L40.227 92.8C35.6725 90.6934 31.1335 88.9588 26.5888 86.652L26.5585 74.95C26.5561 73.3506 26.4708 69.3122 26.771 68.001Z" fill="#D0D0D0"/>
<path d="M141.347 20.6325L166.812 20.6225C170.827 20.6117 178.907 20.4201 182.66 20.8295C181.285 25.8515 181.608 31.3242 180.9 36.4163L180.737 35.9111C179.838 35.3642 145.342 35.8527 141.344 35.5779L141.347 20.6325Z" fill="#D0D0D0"/>
<path d="M0 27.2878L33.2514 27.3204L33.2694 37.6041C33.2692 39.5615 33.3298 42.0898 33.1567 43.9899C31.0891 43.9977 28.8628 44.0446 26.8087 43.9933C18.5825 43.5503 8.3417 43.9788 0 44.0306V27.2878Z" fill="#D0D0D0"/>
<path d="M103.824 150.839C111.036 150.52 118.528 151.023 125.771 150.835C126.851 150.807 128.136 150.788 129.212 150.833C128.761 151.122 126.215 151.005 125.444 151.007L125.459 170H116.684C116.626 164.23 116.934 156.545 116.589 150.989C115.245 150.987 104.295 151.079 103.824 150.839Z" fill="#D0D0D0"/>
</g>
<defs>
<linearGradient id="paint0_linear_171_2368" x1="213.595" y1="30.98" x2="213.595" y2="37.9071" gradientUnits="userSpaceOnUse">
<stop stop-color="#290D11"/>
<stop offset="1" stop-color="#FEA49C"/>
</linearGradient>
<linearGradient id="paint1_linear_171_2368" x1="213.595" y1="30.98" x2="213.595" y2="37.9071" gradientUnits="userSpaceOnUse">
<stop stop-color="#290D11"/>
<stop offset="1" stop-color="#FEA49C"/>
</linearGradient>
<clipPath id="clip0_171_2368">
<rect width="326" height="170" rx="24" fill="white"/>
</clipPath>
</defs>
</svg>
