<svg width="326" height="170" viewBox="0 0 326 170" fill="none" xmlns="http://www.w3.org/2000/svg">
<g clip-path="url(#clip0_180_2477)">
<path d="M0 0H326V160.082V170.078H235.906H231.123H205.87H201.189H181.083H174.206H167.331H154.174H144.418H131.917C131.733 169.123 131.568 167.585 131.428 166.577L131.363 166.052L130.581 159.984L130.363 160.05C129.029 160.644 113.262 159.964 110.62 160.086C106.942 160.146 103.264 160.16 99.5863 160.129C99.5898 161.589 99.6669 164.675 99.5486 166.014L99.5734 166.571L99.5943 170.078H94.9042H69.0677H64.3727H0V160.084V0Z" fill="#E4E6E5"/>
<path d="M219.787 159.574C221.528 159.525 223.272 159.503 225.015 159.51L226.754 159.488L228.351 159.479L236.413 159.491L239.139 159.461C246.404 159.464 254.48 159.284 261.675 159.486L264.137 159.511C264.424 160.907 264.291 169.378 264.291 171.348L264.282 194.06C264.282 197.757 264.142 202.271 264.308 205.863L263.797 206.306L264.298 206.801L264.293 211.499H226.764H219.806H189.925H179.705H169.487H149.933H135.434H116.855C116.581 210.201 116.336 208.11 116.128 206.739L116.031 206.025L114.869 197.774L114.545 197.864C112.563 198.671 89.1299 197.747 85.2028 197.913C85.3278 185.181 85.2078 172.226 85.1785 159.476L90.4245 159.446L140.982 159.476C143.116 159.488 154.976 159.327 156.273 159.614C156.901 159.352 168.494 159.332 170.036 159.509L170.407 159.802L170.464 160.352L170.715 160.917C175.577 161.066 183.244 161.165 188.068 160.92L188.285 160.67L188.477 159.65C188.959 159.362 213.475 159.513 216.056 159.534L219.787 159.574Z" fill="black"/>
<path d="M219.787 159.574C221.528 159.525 223.272 159.503 225.015 159.51L226.754 159.488L228.351 159.479L236.413 159.491L239.139 159.461C246.404 159.464 254.48 159.284 261.675 159.486L264.137 159.511C264.424 160.907 264.291 169.378 264.291 171.348L264.282 194.06C264.282 197.757 264.142 202.271 264.308 205.863L263.797 206.306L264.298 206.801L264.293 211.499H226.764H219.806H189.925H179.705H169.487C169.426 210.257 169.229 208.685 169.109 207.42L168.981 206.879L169.452 206.33L169.158 205.921C168.593 204.603 168.316 199.83 168.2 198.126C167.966 197.349 167.322 189.091 167.214 187.862L177.928 187.84C179.404 187.644 181.609 187.797 183.125 187.719C190.05 187.362 198.985 188.576 205.344 186.09C211.625 182.73 212.96 176.662 213.307 170.105C213.338 169.977 213.511 169.56 213.568 169.412C214.419 169.066 215.813 169.208 216.778 169.238C216.723 166.501 216.265 162.39 216.056 159.534L219.787 159.574Z" fill="#626262"/>
<path d="M228.351 159.479L236.413 159.491L239.139 159.461C246.404 159.464 254.481 159.284 261.675 159.486L264.137 159.511C264.424 160.907 264.291 169.378 264.291 171.348L264.282 194.06C264.282 197.757 264.142 202.271 264.308 205.863L226.849 205.865C226.809 204.162 226.515 196.421 226.861 195.277C227.35 187.386 226.276 178.324 226.636 170.94C226.804 168.897 226.714 165.03 226.731 162.852L226.754 159.488L228.351 159.479Z" fill="#D0D0D0"/>
<path d="M228.351 159.479L236.413 159.492C235.801 169.054 234.682 178.719 233.837 188.271C233.444 192.716 231.024 194.459 226.861 195.278C227.35 187.387 226.276 178.324 226.636 170.94C226.804 168.897 226.714 165.031 226.731 162.852L226.754 159.489L228.351 159.479Z" fill="#626262"/>
<path d="M226.754 159.489L228.351 159.479C228.001 163.031 227.781 167.631 227.258 170.995L227.045 171.153L226.636 170.94C226.804 168.897 226.714 165.031 226.73 162.852L226.754 159.489Z" fill="#9A9A9A"/>
<path d="M216.056 159.534L219.787 159.574L219.773 162.806C219.714 170.444 219.704 178.083 219.745 185.722C217.334 185.743 206.478 186.339 205.344 186.09C211.625 182.73 212.96 176.662 213.307 170.105C213.338 169.977 213.511 169.56 213.568 169.412C214.419 169.066 215.813 169.208 216.778 169.238C216.723 166.501 216.265 162.39 216.056 159.534Z" fill="#9A9A9A"/>
<path d="M219.787 159.574C221.528 159.525 223.272 159.503 225.015 159.51L226.754 159.488L226.731 162.852L219.773 162.806L219.787 159.574Z" fill="#632946"/>
<path d="M85.1785 159.476L90.4245 159.446L140.982 159.476C143.116 159.488 154.976 159.326 156.273 159.613L155.655 160.453C148.432 160.989 140.977 161.941 133.781 162.793C130.439 163.189 124.605 163.489 121.686 164.421C119.492 165.102 117.53 166.377 116.018 168.104C112.547 172.127 112.623 177.336 113.069 182.322C113.532 187.478 114.214 192.637 114.869 197.774L114.545 197.864C112.563 198.671 89.1299 197.747 85.2028 197.912C85.3278 185.181 85.2078 172.226 85.1785 159.476Z" fill="#EAEAEA"/>
<path d="M85.1785 159.477L90.4245 159.446C90.6639 172.192 90.4356 185.083 90.5177 197.854C98.5268 197.912 106.536 197.916 114.545 197.864C112.563 198.671 89.1299 197.748 85.2028 197.913C85.3278 185.181 85.2078 172.226 85.1785 159.477Z" fill="#D0D0D0"/>
<path d="M188.285 160.67L188.477 159.65C188.959 159.362 213.475 159.513 216.056 159.534C216.265 162.39 216.724 166.501 216.778 169.238C215.813 169.208 214.419 169.066 213.568 169.412C213.511 169.56 213.338 169.977 213.307 170.105C213.262 169.939 213.028 169.465 213.035 169.466C211.441 169.201 205.484 168.878 204.377 168.679C198.822 167.684 193.312 166.614 188.191 164.32C188.202 163.185 188.257 162.037 188.068 160.92L188.285 160.67Z" fill="#AC2466"/>
<path d="M156.273 159.614C156.901 159.353 168.494 159.333 170.036 159.509L170.407 159.802L170.464 160.352L170.715 160.917C170.604 161.494 170.613 161.548 170.294 162.028C168.316 163.092 165.03 163.424 162.816 163.124C161.33 162.922 156.63 162.221 155.63 161.278L155.655 160.454L156.273 159.614Z" fill="#AC2466"/>
<path d="M249.574 126.113C252.928 126.139 265.76 127.449 261.374 120.064C261.174 119.725 260.27 119.684 259.616 119.378C259.328 119.243 259.389 118.881 259.683 118.759C262.288 117.68 265.463 117.719 263.577 113.061C263.308 112.398 262.535 112.377 261.824 112.224C261.235 112.097 261.272 111.514 261.87 111.447C262.419 111.386 263.034 111.395 263.371 111.396C271.786 111.41 280.198 111.513 288.611 111.387C288.897 111.382 289.184 111.412 289.471 111.457C289.897 111.522 290.161 112.581 289.936 112.948C289.197 114.152 289.116 115.873 289.699 117.04C290.177 117.999 293.149 118.268 294.163 118.901C294.262 118.963 294.29 119.088 294.246 119.196C294.213 119.277 294.143 119.339 294.057 119.358C293.157 119.562 292.142 119.62 291.61 120.454C291.073 121.295 291.045 122.574 291.289 123.512C291.447 124.128 291.755 124.799 292.33 125.122C295.372 126.828 314.735 126.151 319.434 126.119L319.453 133.751L306.727 133.774L306.694 175.37C306.694 182.715 306.548 190.637 306.744 197.946L358.567 197.956C367.33 197.957 376.753 197.788 385.463 197.993L388.262 198.008L388.421 197.985C394.049 197.907 399.639 198.062 405.3 197.908V211.499H264.293L264.298 206.802L263.797 206.306L264.308 205.863C264.142 202.271 264.282 197.757 264.282 194.061L264.291 171.348C264.291 169.379 264.424 160.908 264.137 159.511L261.675 159.487C254.48 159.284 246.404 159.465 239.139 159.461L236.413 159.492L228.351 159.479L226.754 159.489L225.015 159.51C225.065 155.868 225.015 152.115 225.011 148.464L185.607 148.427C180.869 148.409 175.998 148.527 171.283 148.418C171.188 148.126 170.93 147.981 170.663 147.738L170.686 147.505L171.257 147.583L172.224 147.387C173.409 147.359 175.229 147.504 176.002 146.823L176.165 147.333C177.597 147.776 186.118 147.339 188.306 147.557C196.518 147.189 206.719 147.548 215.127 147.508L229.117 147.499L237.44 147.532C237.71 143.888 237.989 139.64 238.49 136.055L238.576 134.456C238.644 130.609 239.714 122.281 240.123 118.127C243.541 118.175 246.962 118.181 250.381 118.145C250.452 120.038 250.555 122.019 250.585 123.927C250.593 124.402 250.447 124.866 250.175 125.255L249.574 126.113Z" fill="#D0D0D0"/>
<path d="M176.002 146.822L176.165 147.333C177.597 147.776 186.118 147.339 188.306 147.556C196.518 147.189 206.719 147.548 215.127 147.508L229.117 147.499L237.44 147.531L239.139 147.511L282.013 147.508C282.003 150.908 282.164 156.248 281.944 159.487C281.764 160.973 281.577 162.283 281.582 163.784L271.353 163.721L271.336 179.622L271.341 183.435C271.343 186.714 271.043 204.305 271.603 206.01L271.457 206.747C271.393 208.33 271.374 209.915 271.402 211.499H264.293L264.298 206.801L263.797 206.306L264.308 205.863C264.142 202.271 264.282 197.757 264.282 194.06L264.291 171.348C264.291 169.378 264.424 160.907 264.137 159.511L261.675 159.486C254.48 159.284 246.404 159.464 239.139 159.461L236.413 159.492L228.351 159.479L226.754 159.489L225.015 159.51C225.065 155.867 225.015 152.115 225.011 148.464L185.607 148.427C180.869 148.408 175.998 148.526 171.283 148.417C171.188 148.125 170.93 147.981 170.663 147.738L170.686 147.504L171.257 147.583L172.224 147.387C173.409 147.359 175.229 147.504 176.002 146.822Z" fill="#451133"/>
<path d="M176.002 146.822L176.165 147.333C177.597 147.776 186.118 147.339 188.306 147.556C186.932 147.893 172.693 147.936 171.257 147.583L172.224 147.387C173.409 147.359 175.229 147.504 176.002 146.822Z" fill="#626262"/>
<path d="M238.576 134.456C239.536 135.54 239.236 138.306 239.188 139.781C239.082 138.684 239.051 136.92 238.49 136.055L238.576 134.456Z" fill="#DCB4DD"/>
<path d="M191.524 70.0083C197.727 71.0028 203.778 73.0426 209.636 75.2635C219.352 78.947 219.813 87.6083 221.699 96.4423C223.804 96.4309 227.762 96.2866 229.721 96.4196C237.648 96.3509 242.297 95.9103 241.31 105.924C240.932 109.776 240.331 114.287 240.123 118.127C239.714 122.281 238.644 130.609 238.576 134.456L238.491 136.055C237.989 139.64 237.71 143.888 237.44 147.532L229.118 147.499L215.127 147.508C206.719 147.549 196.518 147.189 188.306 147.557C186.118 147.339 177.597 147.776 176.166 147.333L176.002 146.823C175.229 147.504 173.409 147.359 172.224 147.387C170.109 146.048 163.585 147.815 162.726 147.247L162.239 147.347C162.26 147.324 163.646 147.067 163.895 147.03C160.161 146.859 155.218 146.987 151.399 146.982C144.49 146.949 137.58 146.959 130.671 147.013C129.262 147.832 129.326 148.098 127.603 147.757L127.394 147.575C130.205 147.652 129.722 147.031 130.719 144.669C132.353 140.801 132.346 137.883 132.309 133.783L132.313 123.168L132.342 116.957L132.283 113.646C130.202 111.504 128.769 110.001 127.727 107.182C128.734 103.197 129.979 100.461 133.306 97.8596C134.282 97.0961 134.504 95.7979 136.408 96.245C139.602 96.995 141.901 100.076 143.726 102.558C144.451 102.669 145.198 102.809 145.923 102.936C148.561 103.45 152.298 103.3 155.061 103.292C154.979 102.86 154.901 102.427 154.825 101.993C154.68 101.154 154.411 100.084 154.923 99.358L155.255 99.6159C155.749 100.776 155.695 102.016 155.739 103.284L161.886 102.986C164.025 99.6351 166.674 97.1746 170.608 96.1761C170.632 88.8775 170.616 81.5787 170.559 74.2801C174.869 78.8267 179.78 79.2602 185.453 76.8325C186.165 76.5283 187.689 75.3186 188.318 75.2368C188.503 74.419 190.637 72.7504 191.524 70.0083Z" fill="#454141"/>
<path d="M170.608 96.1758C175.297 96.1333 180.575 101.597 184.427 103.88C184.959 104.196 187.124 104.704 188.321 105.23L205.588 113.131C204.994 110.959 200.76 97.4219 201.027 96.3081L201.396 96.3352C201.834 96.7871 206.168 111.829 206.716 113.67C208.266 114.339 212.527 115.983 213.475 117.291C210.315 117.467 188.271 104.945 184.862 105.074C184.67 106.392 181.645 112.243 180.963 114.135L180.606 114.745C180.509 115.189 180.49 115.448 180.249 115.826C180.769 116.986 186.71 120.261 188.349 121.263L188.306 147.556C186.118 147.339 177.597 147.776 176.166 147.333L176.002 146.822C175.229 147.504 173.409 147.359 172.224 147.387C170.109 146.048 163.585 147.815 162.726 147.247L162.239 147.346C162.26 147.324 163.646 147.067 163.895 147.03C160.161 146.859 155.218 146.986 151.399 146.982C144.49 146.949 137.58 146.959 130.671 147.012C129.262 147.831 129.326 148.098 127.603 147.757L127.394 147.575C130.205 147.652 129.722 147.031 130.719 144.669C132.353 140.801 132.346 137.882 132.309 133.783L132.313 123.167L132.342 116.957L132.283 113.646C130.202 111.504 128.769 110.001 127.727 107.181C128.734 103.197 129.979 100.461 133.306 97.8593C134.282 97.0959 134.504 95.7976 136.408 96.2448C139.602 96.9948 141.901 100.076 143.726 102.557C144.451 102.669 145.198 102.809 145.923 102.936C148.561 103.45 152.298 103.299 155.061 103.292C154.979 102.86 154.901 102.426 154.825 101.993C154.68 101.154 154.411 100.084 154.923 99.3577L155.255 99.6157C155.749 100.776 155.695 102.016 155.739 103.284L161.886 102.986C164.025 99.6348 166.674 97.1743 170.608 96.1758Z" fill="#DA8D76"/>
<path d="M170.608 96.1758C175.297 96.1333 180.575 101.597 184.427 103.88C184.959 104.196 187.124 104.704 188.321 105.23L205.588 113.131C204.994 110.959 200.76 97.4219 201.027 96.3081L201.396 96.3352C201.834 96.7871 206.168 111.829 206.716 113.67C208.266 114.339 212.527 115.983 213.475 117.291C210.315 117.467 188.271 104.945 184.862 105.074C184.67 106.392 181.645 112.243 180.963 114.135L180.606 114.745C180.509 115.189 180.49 115.448 180.249 115.826C180.769 116.986 186.71 120.261 188.349 121.263L188.306 147.556C186.118 147.339 177.597 147.776 176.166 147.333L176.002 146.822C175.229 147.504 173.409 147.359 172.224 147.387C170.109 146.048 163.585 147.815 162.726 147.247L162.239 147.346C162.26 147.324 163.646 147.067 163.895 147.03L165.903 146.956C166.625 145.198 168.077 143.509 168.375 141.624C168.74 139.316 168.995 114.464 168.742 114.102C168.418 113.638 165.146 113.229 164.398 112.4C163.173 111.045 163.911 108.818 162.891 107.461C160.926 106.581 161.105 106.001 161.335 103.968C155.798 104.071 150.436 104.218 144.898 103.96C143.717 104.947 146.299 106.584 142.065 107.217C141.943 107.891 142.556 108.388 142.427 109.17C141.543 114.521 143.159 124.808 149.929 125.248C151.787 125.351 153.612 124.722 155.01 123.496C159.099 119.845 158.425 113.289 158.643 108.776L159.061 108.567L159.594 108.769C160.022 109.497 159.641 110.263 159.662 111.063C159.825 117.412 157.253 128.023 148.649 125.878C143.723 124.65 141.917 119.206 141.489 114.693C141.392 113.67 141.663 110.852 141.27 110.176C140.516 112.157 140.827 111.296 139.31 112.199C136.347 113.963 136.34 113.721 133.213 111.904C133.147 117.91 133.133 123.916 133.17 129.922C133.187 133.107 133.342 137.686 132.978 140.79C132.87 141.705 131.081 145.408 130.712 146.847L130.671 147.012C129.262 147.831 129.326 148.098 127.603 147.757L127.394 147.575C130.205 147.652 129.722 147.031 130.719 144.669C132.353 140.801 132.346 137.882 132.309 133.783L132.313 123.167L132.342 116.957L132.283 113.646C130.202 111.504 128.769 110.001 127.727 107.181C128.734 103.197 129.979 100.461 133.306 97.8593C134.282 97.0959 134.504 95.7976 136.408 96.2448C139.602 96.9948 141.901 100.076 143.726 102.557C144.451 102.669 145.198 102.809 145.923 102.936C148.561 103.45 152.298 103.299 155.061 103.292C154.979 102.86 154.901 102.426 154.825 101.993C154.68 101.154 154.411 100.084 154.923 99.3577L155.255 99.6157C155.749 100.776 155.695 102.016 155.739 103.284L161.886 102.986C164.025 99.6348 166.674 97.1743 170.608 96.1758Z" fill="black"/>
<path d="M176.002 146.822C174.959 144.155 174.169 142.078 174.174 139.166C174.19 129.335 173.357 119.29 173.523 109.48C175.047 113.277 176.369 114.627 180.606 114.745C180.509 115.189 180.49 115.448 180.249 115.826C180.769 116.986 186.71 120.261 188.349 121.263L188.306 147.557C186.118 147.339 177.597 147.776 176.166 147.333L176.002 146.822Z" fill="#FDFCFD"/>
<path d="M171.444 96.8154C175.335 98.0242 178.219 100.481 181.458 102.816C182.579 103.623 183.61 104.514 184.862 105.074C184.67 106.392 181.645 112.243 180.963 114.135C178.243 113.865 175.799 113.436 174.808 110.394C174.597 109.755 174.358 109.095 174.01 108.521C172.191 109.235 169.054 113.159 167.438 112.97L167.247 112.516C167.833 108.614 171.19 106.738 173.942 104.299C171.096 105.203 168.976 107.008 167.507 109.61C167.039 110.44 166.691 111.352 165.962 111.926C165.248 112.069 165.525 112.123 164.926 111.736C162.918 108.16 169.492 103.967 171.351 102.117L171.072 101.735C168.657 101.534 165.037 107.703 164.155 108.089C163.178 106.176 166.459 102.122 168.035 100.963C168.773 100.419 170.029 100.031 170.303 99.1897L169.887 98.8888C167.559 98.8389 163.956 104.703 162.752 106.428L162.409 106.367C161.503 105.391 161.652 104.926 162.314 103.785C164.318 100.35 167.599 97.8444 171.444 96.8154Z" fill="#FDA69E"/>
<path d="M172.447 110.579C172.83 111.827 172.726 115.822 172.757 117.388L173.154 132.2C173.294 138.167 172.823 140.947 175.089 146.587C173.421 146.574 171.753 146.597 170.088 146.656L166.951 146.67C169.665 141.566 169.267 140.586 169.449 135.006C169.686 127.711 169.378 120.152 169.873 112.895C170.831 111.916 171.392 111.431 172.447 110.579Z" fill="#DA8D76"/>
<path d="M133.239 99.0402C134.525 98.5926 134.576 96.244 136.905 97.2666C139.74 98.5113 142.109 101.24 143.484 103.97C143.883 104.762 143.999 105.769 143.042 106.143C140.429 105.389 138.137 99.5585 134.849 99.8887C136.807 101.431 142.383 105.557 141.123 108.288L140.786 108.485C140.069 108.091 139.19 106.795 138.558 106.089C137.702 105.135 134.045 102.314 132.963 102.385L132.848 102.775C134.654 104.051 141.385 108.283 140.14 111.025C137.71 111.74 133.805 105.627 130.909 105.747C131.87 107.489 136.98 109.371 137.558 111.787C137.365 112.432 137.528 112.208 136.9 112.602C135.413 112.454 132.968 110.821 131.911 109.876C130.424 108.796 130.515 109.939 128.945 108.343C128.296 105.582 130.845 100.421 133.239 99.0402Z" fill="#FDA69E"/>
<path d="M130.554 107.411C131.667 107.718 132.219 107.812 133.144 108.537L133.346 109.047C132.875 109.691 132.809 109.55 131.911 109.876C130.424 108.796 130.515 109.939 128.946 108.343C129.431 107.673 129.758 107.649 130.554 107.411Z" fill="#FBAFA9"/>
<path d="M130.281 110.039C130.646 110.127 131.001 110.254 131.339 110.418C132.075 110.778 132.307 111.27 132.56 111.99C131.685 111.974 130.81 110.691 130.281 110.039Z" fill="#D08075"/>
<path d="M221.699 96.4419C223.804 96.4306 227.762 96.2862 229.721 96.4192C237.648 96.3505 242.297 95.9099 241.311 105.924C240.932 109.775 240.331 114.287 240.123 118.126C239.714 122.28 238.644 130.608 238.576 134.456L238.491 136.055C237.989 139.64 237.71 143.888 237.44 147.531L229.118 147.499L215.127 147.508C215.11 144.264 214.464 140.739 214.594 137.444L214.904 137.24C221.36 140.121 228.514 135.777 228.495 128.971C228.486 125.84 226.939 120.111 226.234 116.908L221.699 96.4419Z" fill="#626262"/>
<path d="M221.699 96.4419C223.804 96.4306 227.762 96.2862 229.721 96.4192C230.897 97.17 233.189 98.8382 233.116 100.43C232.408 116.083 230.22 131.82 229.118 147.499L215.127 147.508C215.11 144.264 214.464 140.739 214.594 137.444L214.904 137.24C221.36 140.121 228.514 135.777 228.495 128.971C228.486 125.84 226.939 120.111 226.234 116.908L221.699 96.4419Z" fill="#9A9A9A"/>
<path d="M188.349 121.263C196.206 126.418 204.396 131.148 212.316 136.211C213.083 136.701 213.738 137.117 214.594 137.444C214.464 140.739 215.11 144.264 215.127 147.508C206.719 147.548 196.518 147.189 188.307 147.556L188.349 121.263Z" fill="#454141"/>
<path d="M170.559 74.2798C174.869 78.8264 179.78 79.2598 185.453 76.8322C186.166 76.5279 187.689 75.3182 188.318 75.2365L188.321 105.23C187.124 104.704 184.959 104.195 184.427 103.88C180.575 101.597 175.297 96.1332 170.609 96.1757C170.632 88.8771 170.616 81.5783 170.559 74.2798Z" fill="#FDFCFD"/>
<path d="M180.249 115.826C181.666 115.824 187.28 119.624 188.9 120.63L202.576 129.119C203.956 129.972 214.703 136.309 214.904 137.24L214.594 137.444C213.738 137.117 213.083 136.701 212.316 136.211C204.396 131.148 196.206 126.418 188.349 121.263C186.71 120.261 180.769 116.986 180.249 115.826Z" fill="#451133"/>
<path d="M37.966 87.9591C36.2575 87.2575 34.9845 86.6911 35.0126 84.6048C34.9724 80.3948 38.6251 82.397 39.3883 81.7307C46.3846 75.6219 53.9524 68.0548 60.5615 61.4935C62.5801 59.4892 61.1087 57.4824 62.8427 56.0814C66.6634 52.9947 69.027 57.1725 71.1334 59.7065C71.4232 59.693 71.713 59.6826 72.0031 59.6751C79.3829 59.4854 82.809 62.7828 87.8562 67.5649C85.9447 69.2404 84.5274 70.344 82.4998 71.8417C82.6673 73.4251 82.8878 74.6282 82.1532 76.0833C80.509 79.3403 77.3456 79.4365 74.4196 77.9454C72.6094 79.2985 70.5626 81.0132 68.7802 82.4341C64.7133 76.0353 62.609 71.5958 65.1548 64.0584L63.5279 62.0184C56.9668 68.2029 50.615 74.7784 43.9591 80.8432C39.7547 84.6742 42.5728 84.1257 40.2735 87.3067C44.6352 97.2722 48.5173 109.365 52.7932 119.52C53.4153 120.997 54.0061 120.624 54.8494 122.588C56.6938 122.554 58.9956 122.409 60.7578 122.78C63.7453 123.408 62.535 124.839 63.1598 125.801C64.5312 126.52 75.3468 126.146 77.6181 126.123C76.5727 121.836 78.5828 120.472 78.6209 116.334C78.6474 113.428 75.2533 111.761 78.3524 108.64C81.7858 107.445 93.0369 108.643 97.3418 108.202C98.594 108.073 107.124 108.114 107.99 108.293C107.891 108.978 106.426 109.048 106.338 109.957C106.099 112.401 106.009 113.552 108.594 114.109C108.835 114.926 106.136 116.36 107.874 118.678C109.119 120.34 109.76 119.094 110.545 119.951C109.89 120.938 108.86 122.17 108.706 123.365C108.63 123.958 108.722 124.566 109.164 125.007C111.098 126.937 125.095 126.091 128.381 126.076C128.672 122.997 129.577 123.142 132.313 123.168L132.309 133.783C132.346 137.883 132.353 140.801 130.719 144.669C129.722 147.031 130.205 147.652 127.394 147.575C115.21 147.396 102.721 147.527 90.5141 147.523L85.1851 147.52L49.2119 147.539L43.6932 147.525C43.9326 143.335 43.7658 138.069 43.7315 133.81L31.6784 133.767C31.5407 131.444 31.5684 128.55 31.5341 126.179C35.0815 126.192 38.6286 126.174 42.1756 126.124C43.1029 117.76 52.3571 127.349 49.9999 119.235C49.039 115.927 47.1873 111.641 45.9032 108.346L37.966 87.9591Z" fill="#D0D0D0"/>
<path d="M90.537 133.759L132.309 133.783C132.346 137.883 132.353 140.801 130.719 144.669C129.722 147.031 130.205 147.652 127.394 147.575C115.21 147.396 102.721 147.526 90.514 147.523C90.4972 142.935 90.5048 138.347 90.537 133.759Z" fill="#EAEAEA"/>
<path d="M49.2339 133.797L85.1553 133.812C85.2017 138.381 85.2116 142.95 85.1851 147.519L49.2119 147.538C49.2429 142.958 49.2502 138.377 49.2339 133.797Z" fill="#EAEAEA"/>
<path d="M163.895 147.03C163.646 147.067 162.26 147.324 162.239 147.347L162.726 147.247C163.585 147.815 170.109 146.048 172.224 147.387L171.257 147.583L170.687 147.505L170.663 147.738C170.93 147.981 171.188 148.126 171.283 148.418C175.998 148.527 180.869 148.409 185.607 148.427L225.011 148.464C225.015 152.115 225.065 155.868 225.015 159.51C223.272 159.504 221.528 159.525 219.787 159.575L216.056 159.534C213.475 159.513 188.959 159.362 188.477 159.651L188.285 160.67L188.068 160.921C183.244 161.166 175.577 161.067 170.715 160.917L170.464 160.353L170.407 159.802L170.036 159.51C168.494 159.333 156.901 159.353 156.273 159.614C154.976 159.327 143.116 159.489 140.982 159.476L90.4244 159.446L85.1785 159.477C79.8258 159.488 74.0004 159.379 68.6901 159.513C66.7062 159.432 63.8536 159.528 61.8094 159.54C58.0389 159.365 53.0815 159.514 49.2192 159.515L43.754 159.514L23.387 159.492L23.391 162.287L23.1866 162.311C21.2812 162.491 18.6487 162.373 16.682 162.339C16.6872 163.258 16.7388 163.767 16.4443 164.634L16.3669 159.521L5.43397 159.511C5.41126 157.975 5.13731 148.658 5.50991 147.71C6.74222 147.243 39.0672 147.534 43.6931 147.525L49.2119 147.539L85.1851 147.52L90.5141 147.523C102.721 147.527 115.21 147.396 127.394 147.575L127.603 147.757C129.326 148.098 129.263 147.832 130.671 147.013C137.58 146.959 144.49 146.949 151.4 146.982C155.218 146.987 160.161 146.859 163.895 147.03Z" fill="#626262"/>
<path d="M163.895 147.03C163.646 147.067 162.26 147.324 162.239 147.347L162.726 147.247C163.585 147.815 170.109 146.048 172.224 147.387L171.257 147.583L170.687 147.505L170.663 147.738C170.93 147.981 171.188 148.126 171.283 148.418C157.024 148.774 141.281 148.45 126.932 148.425L51.4047 148.424L18.8296 148.436C16.9356 148.437 6.67808 148.57 5.66886 148.245L5.50989 147.71C6.74219 147.243 39.0672 147.534 43.6931 147.525L49.2119 147.539L85.1851 147.52L90.5141 147.523C102.721 147.527 115.21 147.396 127.394 147.575L127.603 147.757C129.326 148.098 129.263 147.832 130.671 147.013C137.58 146.959 144.49 146.949 151.4 146.982C155.218 146.987 160.161 146.859 163.895 147.03Z" fill="#451133"/>
<path d="M170.464 160.353L170.703 159.572C171.347 159.236 186.3 159.406 187.947 159.53C188.354 160.042 188.226 159.894 188.285 160.67L188.067 160.92C183.244 161.165 175.576 161.066 170.715 160.917L170.464 160.353Z" fill="#FDFCFD"/>
<path d="M23.1535 159.496L23.1866 162.311C21.2813 162.491 18.6487 162.373 16.6821 162.339L16.5964 159.533L23.1535 159.496Z" fill="#632946"/>
<path d="M68.6901 159.513C74.0004 159.379 79.8258 159.488 85.1785 159.477C85.2078 172.226 85.3277 185.181 85.2028 197.913C79.7371 197.994 74.2708 198.014 68.8048 197.971C68.81 199.956 68.9245 204.153 68.7488 205.974L68.7857 206.731L68.8167 211.499H61.8463L61.8073 206.789L61.5073 206.461L61.6289 206.015C61.9868 204.744 61.8458 199.561 61.8338 197.99C58.3126 197.955 54.791 197.964 51.2701 198.017C50.4993 198.103 47.6713 197.908 46.6096 197.925C44.3246 197.962 41.9252 198.146 39.6769 197.999L23.4317 197.978C23.3482 186.081 23.3347 174.184 23.391 162.286L23.387 159.492L43.7539 159.514L49.2192 159.514C53.0815 159.514 58.0389 159.365 61.8094 159.54C63.8536 159.528 66.7062 159.432 68.6901 159.513Z" fill="#EAEAEA"/>
<path d="M68.6901 159.513C74.0005 159.379 79.8258 159.488 85.1785 159.477C85.2078 172.226 85.3278 185.181 85.2029 197.913C79.7371 197.994 74.2709 198.014 68.8049 197.971C68.8101 199.956 68.9246 204.153 68.7488 205.974L68.7857 206.731L68.8167 211.499H61.8463L61.8073 206.789L61.5073 206.461L61.6289 206.015C61.9869 204.744 61.8459 199.561 61.8338 197.99L61.8094 159.54C63.8536 159.528 66.7062 159.432 68.6901 159.513Z" fill="#EAEAEA"/>
<path d="M61.8094 159.54C63.8536 159.527 66.7062 159.432 68.6901 159.513C68.8309 172.134 68.9284 185.339 68.8049 197.971C68.8101 199.956 68.9246 204.153 68.7488 205.973L68.7857 206.731L68.8167 211.499H61.8463L61.8073 206.789L61.5073 206.461L61.6289 206.015C61.9869 204.744 61.8459 199.561 61.8338 197.99L61.8094 159.54Z" fill="#451133"/>
<path d="M49.2192 159.514C53.0815 159.514 58.0389 159.365 61.8094 159.54L61.8337 197.99C58.3126 197.955 54.791 197.964 51.2701 198.016C50.6062 197.946 50.1381 197.865 49.4884 197.739C48.9772 197.02 49.161 162.864 49.2192 159.514Z" fill="#EAEAEA"/>
<path d="M43.754 159.514L49.2193 159.514C49.1611 162.864 48.9772 197.02 49.4885 197.739C50.1381 197.865 50.6063 197.946 51.2701 198.017C50.4994 198.103 47.6714 197.908 46.6096 197.926C44.3246 197.962 41.9253 198.146 39.6769 197.999C40.6426 197.856 42.6307 197.846 43.6932 197.814C43.8883 193.788 43.7466 188.497 43.7466 184.378L43.754 159.514Z" fill="#D0D0D0"/>
<path d="M16.6821 162.339C18.6487 162.373 21.2813 162.491 23.1866 162.311L23.391 162.287C23.3347 174.184 23.3482 186.081 23.4317 197.978L39.6769 197.999C41.9253 198.147 44.3246 197.963 46.6096 197.926C47.6714 197.908 50.4994 198.104 51.2701 198.017C54.791 197.964 58.3126 197.955 61.8338 197.99C61.8459 199.561 61.9868 204.744 61.6289 206.015L61.5073 206.462L61.8073 206.789L61.8463 211.499H23.4483H16.4706H-79.2V197.911C-47.5016 198.39 -15.1598 197.389 16.4431 198.003L16.4443 164.633C16.7388 163.767 16.6873 163.258 16.6821 162.339Z" fill="#BC8DBC"/>
<path d="M16.682 162.339C18.6486 162.373 21.2812 162.491 23.1866 162.311L23.391 162.287C23.3347 174.184 23.3481 186.081 23.4317 197.978L39.6768 197.999C41.9252 198.147 44.3245 197.963 46.6096 197.926C47.6713 197.908 50.4993 198.104 51.2701 198.017C54.791 197.964 58.3126 197.955 61.8337 197.99C61.8458 199.561 61.9868 204.744 61.6289 206.015L61.5073 206.462L61.8072 206.789L61.8463 211.499H23.4482H16.4705L16.4402 206.756C10.9617 206.754 -33.6502 206.905 -34.2572 206.52L-34.1604 206.192C-33.2404 205.603 11.4822 205.911 16.4528 205.925L16.4431 198.003L16.4443 164.633C16.7388 163.767 16.6872 163.258 16.682 162.339Z" fill="#7B4872"/>
<path d="M170.247 71.3154C170.289 71.8148 170.445 73.8751 170.559 74.28C170.616 81.5786 170.632 88.8774 170.608 96.1759C166.674 97.1744 164.025 99.6349 161.886 102.986L155.739 103.284C155.695 102.016 155.749 100.776 155.255 99.6158L154.923 99.3578C154.411 100.084 154.68 101.154 154.825 101.993C154.901 102.427 154.979 102.86 155.061 103.292C152.298 103.299 148.561 103.45 145.923 102.936C145.198 102.809 144.451 102.669 143.726 102.557C141.901 100.076 139.602 96.9949 136.408 96.2449C134.504 95.7977 134.282 97.096 133.306 97.8595C129.979 100.461 128.734 103.197 127.727 107.182C128.769 110.001 130.202 111.504 132.283 113.646L132.342 116.957C129.389 117.019 121.63 117.748 119.738 115.938C119.41 114.613 119.315 113.202 119.303 111.84L119.305 88.3738C119.298 84.4137 119.203 80.4135 119.377 76.4648C119.423 75.4212 120.669 74.4097 121.675 74.3686C125.936 74.1945 130.289 74.2647 134.554 74.2654L163.064 74.2703C165.428 73.1795 167.826 72.2648 170.247 71.3154Z" fill="#D0D0D0"/>
<path d="M170.247 71.3154C170.289 71.8148 170.445 73.8751 170.559 74.28C170.616 81.5786 170.632 88.8774 170.608 96.1759C166.674 97.1744 164.025 99.6349 161.886 102.986L155.739 103.284C155.695 102.016 155.749 100.776 155.255 99.6158L154.923 99.3578C154.411 100.084 154.68 101.154 154.825 101.993C154.901 102.427 154.979 102.86 155.061 103.292C152.298 103.299 148.561 103.45 145.923 102.936C147.453 97.6769 148.463 91.7404 150.115 86.4615C152.282 79.5376 157.042 77.3089 163.064 74.2703C165.428 73.1795 167.826 72.2648 170.247 71.3154Z" fill="#454141"/>
<path d="M157.075 29.9105C169.085 33.7413 174.739 30.7547 185.56 28.7178L186.307 32.9414C187.786 33.7807 195.224 31.1476 197.372 31.2489C197.029 35.2333 196.646 37.0139 195.042 40.689C193.584 43.8074 192.624 44.5808 189.969 46.7174C190.632 53.6465 191.318 63.0617 191.524 70.008C190.637 72.7501 188.503 74.4188 188.318 75.2366C187.689 75.3183 186.165 76.528 185.453 76.8322C179.78 79.2599 174.869 78.8264 170.559 74.2799C170.445 73.875 170.289 71.8146 170.246 71.3153L170.22 70.7909C170.071 69.3475 169.958 67.9007 169.882 66.4515L169.452 65.6315C158.673 64.1223 159.442 53.7871 158.269 45.486C157.531 40.2655 157.277 35.1674 157.075 29.9105Z" fill="#FDA69E"/>
<path d="M197.372 31.249C197.029 35.2333 196.646 37.014 195.042 40.6891C194.665 39.8916 194.63 39.0185 194.053 38.1986C191.853 35.0606 189.638 36.2382 187.079 38.047C186.797 36.349 186.539 34.647 186.307 32.9415C187.786 33.7808 195.224 31.1476 197.372 31.249Z" fill="url(#paint0_linear_180_2477)"/>
<path d="M187.06 57.5059C185.023 65.0494 177.436 69.3503 170.221 70.7908C170.071 69.3474 169.958 67.9006 169.882 66.4514C171.108 66.4388 172.331 66.3389 173.542 66.1528C179.347 65.3078 183.644 62.0921 187.06 57.5059Z" fill="#D08075"/>
<path d="M169.452 65.6318C183.225 65.1133 186.315 55.7617 187.658 55.5435C187.791 56.241 187.381 56.8576 187.06 57.5062C183.644 62.0925 179.347 65.3082 173.542 66.1531C172.331 66.3393 171.108 66.4392 169.882 66.4517L169.452 65.6318Z" fill="#632946"/>
<path d="M172.142 37.1375C171.687 36.2449 172.684 35.6293 173.526 36.1748C174.297 36.6749 175.116 37.2495 175.763 37.4312C176.822 37.7283 178.31 37.8121 179.552 37.9188C179.895 37.9483 180.256 38.072 180.357 38.4002C180.533 38.9655 179.843 39.4781 179.25 39.4988C176.824 39.5832 173.177 39.1659 172.142 37.1375Z" fill="#060001"/>
<path d="M164.641 36.0122C164.872 35.7925 165.178 35.6302 165.486 35.7111C165.583 35.7364 165.676 35.7707 165.777 35.8102C165.948 35.8776 166.085 36.0126 166.156 36.1824C166.211 36.3163 166.225 36.4658 166.174 36.6012C165.455 38.4892 161.772 39.7711 159.93 40.1651C159.838 40.1847 159.745 40.1944 159.651 40.1963L159.602 40.1973C159.304 40.2032 158.939 40.1029 158.707 39.917C158.355 39.6353 158.564 39.0927 158.943 38.8495C159.988 38.1801 162.02 37.9083 162.958 37.3574C163.584 36.9885 164.119 36.5083 164.641 36.0122Z" fill="#060001"/>
<path d="M167.744 40.297C167.763 40.0775 167.999 39.9545 168.193 40.0585C168.247 40.0874 168.292 40.1323 168.32 40.1868C169.928 43.3345 166.284 47.171 166.216 48.8387C166.211 48.9783 166.271 49.1087 166.364 49.2137C166.986 49.9216 167.716 49.9868 168.752 50.2233C168.847 50.245 168.927 50.31 168.968 50.3984C169.059 50.5937 168.929 50.8217 168.714 50.8425C162.971 51.3987 166.312 46.625 167.344 44.0477C167.501 43.6519 167.649 41.407 167.744 40.297Z" fill="black"/>
<path d="M168.395 54.1555C168.825 54.0064 169.276 53.9176 169.731 53.9044C169.889 53.8998 170.047 53.8977 170.206 53.898C171.164 53.8992 173.049 54.2572 174.019 55.0674C174.601 55.5537 174.02 56.1504 173.349 55.7952C172.961 55.5898 172.533 55.3446 172.04 55.1345C171.625 54.958 171.173 54.8809 170.722 54.8763C168.309 54.8515 168.465 55.6175 166.141 56.2086C166.051 56.2316 165.956 56.1825 165.924 56.0953C165.909 56.056 165.917 56.0112 165.943 55.9785C166.865 54.8304 167.247 54.553 168.395 54.1555Z" fill="black"/>
<path d="M173.989 41.5446C174.245 40.6301 175.425 40.2397 176.064 40.9431C176.54 41.467 176.608 42.1025 176.408 42.8453C176.181 43.6915 175.184 44.229 174.497 43.6832C173.859 43.1763 173.755 42.3772 173.989 41.5446Z" fill="#010002"/>
<path d="M161.85 41.7366C162.177 40.8472 163.369 40.459 163.954 41.2053C164.392 41.7645 164.428 42.4557 164.163 43.1681C163.837 44.0437 162.645 44.3255 162.057 43.5981C161.617 43.0522 161.595 42.4324 161.85 41.7366Z" fill="#010002"/>
<path d="M191.005 38.5576C191.033 38.54 191.066 38.5292 191.099 38.527C191.709 38.4863 191.834 38.4905 192.393 38.6665C192.451 38.6847 192.494 38.7328 192.507 38.7918C192.523 38.8687 192.483 38.9465 192.411 38.9783C191.949 39.1826 191.588 39.3315 191.18 39.6111C191.08 39.6796 191.071 39.8219 191.159 39.9051C191.749 40.4624 191.975 40.5361 191.921 41.331C191.916 41.4008 191.873 41.4626 191.81 41.4931L191.776 41.5093C191.704 41.5444 191.617 41.5324 191.557 41.4789L191.329 41.2775C191.319 41.268 191.309 41.2572 191.3 41.2458C191.045 40.8984 190.962 40.8225 190.663 40.5696C190.61 40.5247 190.537 40.5105 190.471 40.5323C189.904 40.72 189.673 40.8074 189.09 40.7473C188.989 40.7368 188.914 40.6491 188.916 40.5475L188.918 40.4736C188.919 40.4339 188.932 40.3947 188.955 40.3623C189.66 39.3764 189.958 39.2151 191.005 38.5576Z" fill="black"/>
<path d="M157.075 29.9106C156.654 25.0518 158.195 20.2267 161.356 16.5085C168.59 8.01092 182.182 6.96634 190.641 14.2696C194.59 17.7244 197.003 22.6038 197.348 27.8342C197.422 28.893 197.391 30.1759 197.372 31.2491C195.224 31.1477 187.786 33.7809 186.307 32.9416L185.56 28.7179C174.739 30.7549 169.085 33.7414 157.075 29.9106Z" fill="#060001"/>
</g>
<defs>
<linearGradient id="paint0_linear_180_2477" x1="191.84" y1="31.2461" x2="191.84" y2="40.6891" gradientUnits="userSpaceOnUse">
<stop stop-color="#060001"/>
<stop offset="1" stop-color="#FDA69E"/>
</linearGradient>
<clipPath id="clip0_180_2477">
<rect width="326" height="170" rx="24" fill="white"/>
</clipPath>
</defs>
</svg>
