<svg width="326" height="170" viewBox="0 0 326 170" fill="none" xmlns="http://www.w3.org/2000/svg">
<g clip-path="url(#clip0_173_3177)">
<path d="M326 0H319.885H11.5039H0V18.9686V151.162V169.978H11.2031H14.3262H23.5904H35.8743H51.8432H68.6606H77.3168H126.607H137.573H201.694H214.602H276.816H300.86H314.551H326V151.129V6.24793V0Z" fill="#E4E6E5"/>
<path d="M153.181 49.5605C153.123 49.9673 153.047 50.9087 152.837 51.1928C150.818 51.4254 147.448 51.3244 145.325 51.3199L132.558 51.2921H123.522C121.994 51.3023 119.348 51.4004 117.926 51.2541L117.899 51.3675L117.929 53.4516C117.225 54.1288 117.042 56.265 116.611 57.4335C115.165 61.3541 112.781 63.7406 109.496 66.2019L124.232 82.6317C126.732 85.4446 129.994 88.7721 131.92 91.8798C133.495 94.4215 132.508 99.3682 130.169 101.2C127.933 102.953 125.887 103.465 123.242 104.295L123.216 148.668C123.22 155.703 123.331 162.971 123.208 169.978H135.185H205.223H219.323H287.277H313.541L313.537 68.3124C313.412 68.3383 313.287 68.363 313.162 68.3864C305.031 69.9232 296.416 64.7042 293.826 56.9437C293.339 55.4822 293.083 54.1192 292.799 52.6132L292.719 52.5978L292.629 51.049C291.851 51.5173 261.447 51.2777 257.903 51.2546L257.763 51.2273C253.196 51.4043 248.333 51.3079 243.737 51.3049C236.803 51.3204 229.869 51.2994 222.935 51.2423C222.933 51.822 222.96 52.7854 222.905 53.3327L222.804 53.3105C222.763 52.6479 222.798 51.885 222.812 51.214C218.56 51.4187 213.537 51.3042 209.214 51.31C202.139 51.3576 195.064 51.3381 187.989 51.2516L187.968 51.3714C187.208 51.169 180.03 51.3044 178.726 51.3053L153.137 51.2463C153.221 50.8297 153.186 50.0163 153.181 49.5605Z" fill="#D0D0D0"/>
<path d="M205.223 169.978L205.216 111.908L205.229 92.992C205.233 89.6575 205.261 86.3201 205.207 82.9867C205.187 81.7521 204.411 81.1843 203.24 81.1474C200.873 81.0727 198.503 81.0994 196.135 81.0987L182.303 81.0967L140.115 81.0894C139.143 81.0918 136.491 80.9824 135.827 81.6424C135.455 82.011 135.305 82.2796 135.292 82.8065C135.21 86.0285 135.241 89.3125 135.243 92.5367L135.255 111.128L135.185 169.978H205.223Z" fill="#9B9797"/>
<path d="M161.914 84.3275C159.386 84.3127 156.59 84.2384 154.081 84.3075C151.96 84.3202 149.582 84.2803 147.481 84.3558C144.473 84.316 141.465 84.3048 138.458 84.3216L138.444 150.713L176.708 150.72C183.221 150.723 189.991 150.822 196.486 150.72L202.067 150.721L202.058 84.3272L167.796 84.3173L161.914 84.3275Z" fill="#C1C1C1"/>
<path d="M174.525 112.639L174.412 112.086C173.8 111.564 168.755 111.77 167.596 111.776C167.031 111.777 166.101 111.705 165.663 111.989C165.525 112.444 165.465 112.694 165.687 113.138C165.962 113.686 166.357 114.153 166.569 114.738C167.53 117.372 167.45 121.384 166.683 124.061C165.967 126.565 164.121 128.599 163.493 131.098C163.117 132.593 163.072 147.223 163.615 148.156C164.056 148.916 164.599 149.384 165.461 149.587C167.042 149.959 174.159 150.016 175.419 149.245C176.062 148.852 176.466 148.227 176.614 147.494C176.979 145.689 176.818 132.353 176.322 130.697C175.93 129.39 175.269 128.204 174.62 127.011C172.935 123.914 172.709 121.878 172.695 118.37L172.673 118.287C172.868 117.066 173.026 115.478 173.623 114.368C174.097 113.486 174.107 113.782 174.525 112.639Z" fill="#918787"/>
<path d="M174.525 112.639L174.412 112.086C173.8 111.564 168.755 111.77 167.596 111.776C168.684 113.122 171.783 117.502 172.673 118.287C172.868 117.066 173.026 115.478 173.623 114.368C174.097 113.486 174.107 113.782 174.525 112.639Z" fill="#B4A5B3"/>
<path d="M167.796 84.3174L161.914 84.3276C165.788 90.3178 170.683 96.6936 174.771 102.628C183.707 115.6 193.048 128.413 201.894 141.439C201.911 138.619 201.875 135.775 201.858 132.953C199.846 130.434 196.756 125.761 194.791 122.967L181.173 103.566L172.717 91.5632C171.271 89.5195 168.957 86.4247 167.796 84.3174Z" fill="#D8D8D8"/>
<path d="M154.081 84.3076C151.96 84.3203 149.582 84.2804 147.481 84.3559C147.577 84.8719 165.343 108.737 167.427 111.635L173.841 111.676C172.712 110.262 171.438 108.35 170.344 106.855L162.91 96.758C161.036 94.2099 155.422 86.862 154.081 84.3076Z" fill="#D8D8D8"/>
<path d="M183.455 132.973C183.483 133.662 183.62 134.504 183.229 135.034C181.771 136.199 181.631 135.275 180.322 137.203C180.269 140.081 179.601 147.383 181.17 149.322C181.695 149.971 194.152 150.094 195.349 149.139C195.026 148.103 184.788 134.671 183.455 132.973Z" fill="#918787"/>
<path d="M188.128 131.281C185.916 127.715 181.982 123.105 179.585 119.483C178.917 118.472 175.122 113.213 174.525 112.639C174.107 113.782 174.097 113.486 173.623 114.368C173.026 115.478 172.868 117.066 172.673 118.287L172.695 118.37C173.625 119.627 182.884 132.33 183.23 132.451L183.417 131.316C184.863 131.248 186.616 131.32 188.128 131.281Z" fill="#D8D8D8"/>
<path d="M188.274 131.29L188.128 131.281C186.616 131.321 184.863 131.249 183.417 131.316C183.431 131.83 183.466 132.47 183.455 132.973C184.788 134.671 195.026 148.103 195.35 149.139L195.43 149.155C196.67 147.935 196.205 144.337 196.176 142.525L196.16 142.258C194.577 140.127 189.356 133.376 188.274 131.29Z" fill="#B4A5B3"/>
<path d="M193.087 131.337C191.542 131.256 189.833 131.29 188.274 131.29C189.356 133.375 194.577 140.126 196.16 142.258L196.22 137.405C193.945 133.67 192.924 137.707 193.087 131.337Z" fill="#918787"/>
<path d="M196.176 142.524C196.205 144.337 196.669 147.935 195.43 149.155C195.711 149.874 195.977 150.127 196.486 150.72L202.067 150.721C201.923 150.007 196.95 143.345 196.176 142.524Z" fill="#E6CFE7"/>
<path d="M155.088 118.291L147.181 118.288C147.104 120.351 146.982 119.86 147.779 121.633C148.926 124.187 145.731 126.835 144.95 128.881L144.906 128.997C144.571 129.866 144.686 130.841 144.726 131.783C145.092 132.319 145.619 132.936 146.035 133.452C145.56 133.906 145.132 134.426 144.705 134.925L144.708 137.479L145.908 138.845C145.924 139.558 145.88 140.397 145.861 141.12C145.492 141.534 145.073 142.178 144.746 142.649C144.691 145.041 143.955 149.117 147.094 149.69C149.936 149.709 152.777 149.707 155.62 149.685C156.582 149.047 156.865 148.698 157.474 147.726C157.564 146.225 157.507 144.248 157.505 142.713C157.162 142.129 156.749 141.517 156.378 140.945C156.34 140.274 156.375 139.403 156.382 138.717L157.547 137.39L157.548 134.889L156.232 133.262C156.696 132.795 157.119 132.269 157.541 131.761C157.576 130.921 157.687 129.778 157.385 129.015L157.34 128.906C156.571 126.96 153.756 124.408 154.24 122.377C154.728 120.328 155.189 120.996 155.088 118.291Z" fill="#918787"/>
<path d="M287.277 169.978L287.279 111.796L287.288 93.0126C287.291 89.737 287.324 86.4578 287.26 83.1839C287.229 81.5907 286.362 81.1852 284.916 81.1374C282.25 81.0494 279.579 81.0819 276.912 81.0836L262.351 81.0926C248.613 81.0916 234.864 81.0282 221.129 81.1555C220.095 81.165 219.469 81.9878 219.444 82.9763C219.365 86.068 219.399 89.1679 219.401 92.262L219.415 110.218L219.323 169.978H287.277Z" fill="#9B9797"/>
<path d="M234.665 84.3547C231.041 84.1075 226.332 84.2834 222.618 84.3152L222.582 150.715L278.36 150.727C279.463 150.739 283.217 150.862 283.946 150.58L284.058 150.198C284.038 146.68 284.048 143.162 284.089 139.644C284.099 138.083 284.182 134.989 283.993 133.544L284.043 133.153C283.974 117.079 283.888 100.373 284.094 84.3159C272.764 84.4832 261.121 84.3464 249.769 84.3112L243.896 84.3334L235.822 84.3259L234.665 84.3547Z" fill="#C1C1C1"/>
<path d="M284.094 84.316C272.764 84.4833 261.121 84.3465 249.769 84.3113L243.896 84.3335L235.822 84.326L254.21 109.446C257.356 113.757 260.725 118.608 263.965 122.77C262.729 122.814 261.589 122.846 260.353 122.83C259.475 123.488 259.328 123.495 259.078 124.541L259.13 124.72C261.642 127.771 264.394 131.646 266.789 134.847C270.471 139.721 274.121 144.618 277.741 149.538L277.862 149.518L278.36 150.727C279.463 150.739 283.217 150.862 283.946 150.581L284.058 150.198C284.038 146.68 284.048 143.162 284.089 139.644C284.099 138.083 284.182 134.989 283.993 133.544L284.043 133.153C283.974 117.079 283.888 100.373 284.094 84.316Z" fill="#D8D8D8"/>
<path d="M284.094 84.316C272.764 84.4833 261.121 84.3465 249.769 84.3113C251.66 87.5969 255.05 92.1525 257.312 95.365L270.663 114.306L280.003 127.593C280.752 128.645 283.369 132.45 284.043 133.153C283.974 117.079 283.888 100.373 284.094 84.316Z" fill="#C1C1C1"/>
<path d="M243.896 84.3334L235.822 84.3259L254.21 109.446C257.355 113.757 260.725 118.608 263.965 122.77C265.611 122.62 268.769 122.736 270.482 122.76L270.685 122.697C270.137 121.756 268.661 119.767 267.976 118.788L262.472 110.896L243.896 84.3334Z" fill="#C6C6C6"/>
<path d="M270.482 122.76C268.769 122.736 265.611 122.62 263.965 122.77C262.729 122.814 261.589 122.846 260.353 122.83C259.475 123.488 259.328 123.495 259.078 124.541L259.13 124.72C261.642 127.771 264.394 131.646 266.789 134.847C270.471 139.721 274.121 144.618 277.741 149.538L277.862 149.518C278.748 148.872 279.093 148.585 279.322 147.487C279.257 146.404 279.293 144.949 279.288 143.837C279.276 142.152 279.699 137.327 278.933 136.144C278.14 134.917 275.473 135.443 274.105 135.231C273.799 134.893 273.965 128.342 273.955 127.473L273.917 127.222C272.939 126.069 271.534 123.327 270.464 122.859L270.482 122.76Z" fill="#B4A5B3"/>
<path d="M270.464 122.859C268.28 122.9 266.096 122.906 263.912 122.876C265.058 124.32 266.167 125.857 267.24 127.359C271.192 132.891 275.338 138.305 279.288 143.837C279.276 142.152 279.699 137.327 278.933 136.144C278.14 134.917 275.473 135.443 274.105 135.231C273.799 134.893 273.965 128.342 273.955 127.473L273.917 127.222C272.939 126.068 271.534 123.327 270.464 122.859Z" fill="#918787"/>
<path d="M283.917 141.535C281.261 137.93 278.799 134.138 276.211 130.483C275.485 129.457 274.816 128.393 273.955 127.473C273.965 128.342 273.799 134.893 274.105 135.231C275.473 135.443 278.14 134.917 278.933 136.144C279.699 137.327 279.276 142.152 279.288 143.837C279.293 144.949 279.257 146.404 279.322 147.487C279.093 148.585 278.748 148.872 277.862 149.518L278.36 150.727C279.463 150.739 283.217 150.862 283.946 150.581L284.058 150.198C284.038 146.68 284.048 143.162 284.089 139.644C284.099 138.083 284.182 134.989 283.993 133.544C283.815 134.576 283.911 140.168 283.917 141.535Z" fill="#C1C1C1"/>
<path d="M279.453 144.239C279.463 145.36 279.506 146.377 279.322 147.487C279.093 148.585 278.748 148.872 277.862 149.518L278.36 150.727C279.463 150.739 283.217 150.862 283.946 150.581L284.058 150.198C283.168 149.348 280.345 145.431 279.453 144.239Z" fill="#D8D8D8"/>
<path d="M270.685 122.698L270.482 122.76L270.464 122.859C271.534 123.327 272.939 126.068 273.917 127.222C274.092 123.595 274.518 123.042 270.685 122.698Z" fill="#B4A5B3"/>
<path d="M259.13 124.719C259.122 127.855 258.98 132.396 259.162 135.414C257.528 135.375 254.392 135.078 253.155 135.964C251.857 137.949 252.45 145.38 252.529 147.979C252.551 148.716 253.572 149.354 254.151 149.716C256.808 149.716 276.79 149.926 277.741 149.538C274.121 144.617 270.471 139.721 266.789 134.847C264.394 131.646 261.642 127.77 259.13 124.719Z" fill="#918787"/>
<path d="M235.822 84.3259L234.665 84.3547C233.022 84.5155 230.839 84.4407 229.15 84.4285C230.727 86.3101 232.308 88.3792 233.754 90.3696C242.029 101.761 251.149 112.938 259.078 124.541C259.328 123.495 259.475 123.488 260.353 122.829C261.589 122.846 262.729 122.814 263.965 122.77C260.725 118.608 257.356 113.757 254.21 109.446L235.822 84.3259Z" fill="#D8D8D8"/>
<path d="M242.752 122.82C240.688 122.834 233.662 122.498 231.663 123.053C230.714 123.317 230.938 128.37 230.939 129.759L230.952 139.401C229.861 139.389 226.881 139.26 226.037 139.526C224.89 140.793 224.96 147.948 225.905 149.396C226.604 149.953 231.602 149.698 232.898 149.688L249.112 149.725C249.41 149.414 249.77 149.125 250.1 148.844C250.073 146.317 250.368 142.868 249.985 140.342C249.956 140.149 249.436 139.572 249.269 139.394L243.628 139.391C243.613 134.802 243.679 130.205 243.655 125.618C243.648 124.222 243.704 123.716 242.752 122.82Z" fill="#918787"/>
<path d="M153.181 49.5605C153.123 49.9673 153.047 50.9087 152.837 51.1928C150.818 51.4254 147.448 51.3244 145.325 51.3199L132.558 51.2921H123.522C121.994 51.3023 119.348 51.4004 117.926 51.2541L117.899 51.3675L117.929 53.4516C118.689 56.5696 119.233 58.8621 121.217 61.4781C124.249 65.4789 128.194 67.8063 133.186 68.4751C137.679 69.0512 142.218 67.8426 145.826 65.1096C150.835 61.2793 152.341 57.2462 153.137 51.2463C153.221 50.8297 153.186 50.0163 153.181 49.5605Z" fill="#EBEBEB"/>
<path d="M187.968 51.3715C187.208 51.1691 180.03 51.3045 178.726 51.3054L153.137 51.2463C153.256 61.1415 161.167 68.8079 171.061 68.6171C175.727 68.5032 180.159 66.5523 183.391 63.1896C186.222 60.2189 187.197 57.5326 187.957 53.6021C187.993 52.9671 187.966 52.0316 187.968 51.3715Z" fill="#2F2D2D"/>
<path d="M222.812 51.2139C218.56 51.4186 213.537 51.3041 209.214 51.3099C202.139 51.3575 195.064 51.338 187.989 51.2515L187.968 51.3713C187.966 52.0315 187.993 52.9669 187.957 53.6019C188.364 55.3173 188.767 57.0749 189.517 58.6858C195.881 72.3401 215.962 71.7037 221.488 57.7232C222.049 56.3045 222.228 54.8039 222.748 53.4531L222.804 53.3104C222.763 52.6478 222.798 51.8849 222.812 51.2139Z" fill="#EBEBEB"/>
<path d="M292.719 52.5978L292.629 51.0491C291.851 51.5173 261.447 51.2777 257.903 51.2546L257.707 53.3951C257.977 53.8871 258.314 55.216 258.476 55.8498C261.468 67.6093 276.011 72.4338 285.639 65.1687C290.16 61.7577 291.893 58.0982 292.719 52.5978Z" fill="#EBEBEB"/>
<path d="M257.763 51.2273C253.196 51.4042 248.333 51.3079 243.737 51.3049C236.803 51.3204 229.869 51.2993 222.935 51.2422C222.933 51.822 222.96 52.7854 222.905 53.3327C224.554 59.1588 226.081 63.1153 231.824 66.3324C235.848 68.6164 240.62 69.1998 245.077 67.9523C249.57 66.677 253.38 63.6879 255.684 59.6307C256.826 57.5925 257.332 55.6688 257.707 53.395L257.902 51.2546L257.763 51.2273Z" fill="#2F2D2D"/>
<path d="M92.3687 60.1874C90.7969 59.8491 89.8754 59.5486 88.3888 58.9709C88.3801 60.3631 87.9663 61.342 87.982 62.1306C87.9855 62.5247 88.0289 63.0296 87.8985 63.3836C87.8064 64.5859 87.5438 65.9086 87.3109 67.0995C86.4154 71.6944 85.7026 76.354 84.7758 80.941C84.5985 82.061 84.3725 83.1578 84.1499 84.2693C83.7013 86.1299 83.444 86.9994 82.3695 88.6842C80.5178 90.6641 79.459 91.3072 76.7014 91.7853C75.5974 91.9498 74.7819 91.7701 73.7196 91.5558C73.2658 92.2243 73.2084 93.9237 73.2414 94.7288L73.1719 95.0396C72.4312 97.362 72.2139 97.9262 70.4648 99.7411C70.4561 100.766 70.4909 102.815 70.317 103.736C69.1451 123.865 66.8466 143.688 61.7574 163.248C61.2167 165.32 60.2309 167.929 59.9144 169.978H69.3694H123.208C123.331 162.971 123.22 155.703 123.216 148.668L123.242 104.295C125.887 103.465 127.933 102.953 130.169 101.2C132.508 99.3682 133.495 94.4215 131.92 91.8798C129.994 88.7721 126.732 85.4446 124.232 82.6317L109.496 66.2019C108.413 65.1056 103.953 59.7446 103.124 59.3574C100.77 61.4065 98.6523 62.9278 96.4128 65.1568C95.4148 63.6185 93.7022 61.4138 92.3687 60.1874Z" fill="#454141"/>
<path d="M123.242 104.295L119.88 105.437C114.733 107.096 108.975 109.118 103.863 110.617C102.425 111.08 100.713 111.585 99.3181 112.112L93.6813 113.929L88.5365 115.559C86.8744 116.069 84.8106 116.648 83.204 117.224C81.8774 124.187 79.3876 133.338 77.4646 140.246C76.6544 143.486 75.7468 146.504 74.8635 149.703C74.8079 149.962 74.7071 150.496 74.6323 150.724C72.8415 157.09 71.3201 163.644 69.3693 169.978H123.208C123.331 162.971 123.22 155.703 123.216 148.668L123.242 104.295Z" fill="#C1C1C1"/>
<path d="M123.242 104.295L119.88 105.437C120.118 106.237 120.024 112.444 120.024 113.723L120.012 133.575L119.998 140.979L120.033 150.7L114.471 150.729L74.6323 150.724C72.8415 157.09 71.3201 163.644 69.3693 169.978H123.208C123.331 162.971 123.22 155.703 123.216 148.668L123.242 104.295Z" fill="#9B9797"/>
<path d="M119.88 105.437C114.733 107.096 108.975 109.118 103.863 110.617C102.425 111.08 100.713 111.585 99.3182 112.112C100.12 113.788 102.498 116.48 103.039 117.717C104.15 117.461 107.511 117.554 108.836 117.545C109.627 117.536 110.5 117.489 111.268 117.643C111.294 118.316 111.409 119.407 111.179 119.996L110.903 120.193L110.425 120.257C109.957 122.265 110.388 126.675 110.844 128.661L111.649 130.336C112.621 131.149 113.153 132.086 113.822 132.821C114.697 133.783 119.103 140.836 119.998 140.979L120.012 133.575L120.024 113.723C120.024 112.444 120.118 106.237 119.88 105.437Z" fill="#C1C1C1"/>
<path d="M110.425 120.257C109.957 122.265 110.388 126.675 110.844 128.661L111.649 130.336C112.621 131.149 113.153 132.086 113.822 132.821C114.697 133.783 119.103 140.836 119.998 140.979L120.012 133.575C119.906 133.233 119.012 131.866 118.797 131.611C117.341 129.896 111.8 120.947 110.425 120.257Z" fill="#D8D8D8"/>
<path d="M108.836 117.545C108.01 116.385 104.75 111.436 103.863 110.617C102.425 111.08 100.713 111.585 99.3182 112.112C100.12 113.788 102.498 116.48 103.039 117.717C104.15 117.461 107.511 117.554 108.836 117.545Z" fill="#D8D8D8"/>
<path d="M111.268 117.643C110.5 117.489 109.627 117.536 108.836 117.545C107.511 117.554 104.15 117.461 103.039 117.717L103.126 117.926C103.086 119.28 102.874 119.602 103.983 120.508C104.439 122.499 104.242 125.681 103.776 127.655L103.7 127.729C103.477 129.276 102.262 131.459 101.874 133.571C101.77 133.985 101.737 134.061 101.747 134.482L102.062 133.952C103.328 135.292 106.336 139.455 107.547 141.102C108.996 143.069 111.703 146.369 112.923 148.252L113.002 147.102C113.036 148.764 113.793 149.298 114.471 150.729L120.033 150.7L119.998 140.979C119.103 140.836 114.697 133.783 113.822 132.821C113.153 132.086 112.621 131.149 111.649 130.336L110.844 128.661C110.388 126.675 109.957 122.265 110.425 120.256L110.903 120.193L111.179 119.996C111.409 119.407 111.294 118.316 111.268 117.643Z" fill="#918787"/>
<path d="M119.998 140.979C119.103 140.836 114.697 133.783 113.822 132.821C113.153 132.086 112.621 131.149 111.649 130.336C112.574 133.13 112.765 133.42 112.939 136.335C113.215 136.932 113.116 140.002 113.028 140.778C112.949 142.871 113.099 145.13 113.002 147.102C113.036 148.764 113.793 149.298 114.471 150.729L120.033 150.7L119.998 140.979Z" fill="#C1C1C1"/>
<path d="M113.028 140.778C112.949 142.871 113.099 145.13 113.002 147.102C113.036 148.764 113.793 149.298 114.471 150.729L120.033 150.7L120.005 150.614C119.767 149.807 114.04 142.111 113.028 140.778Z" fill="#E6CFE7"/>
<path d="M103.776 127.656L103.7 127.729C103.477 129.276 102.262 131.459 101.874 133.572C101.77 133.985 101.737 134.062 101.747 134.482L102.062 133.952C103.328 135.292 106.335 139.455 107.547 141.103C108.996 143.069 111.703 146.369 112.923 148.252L113.002 147.102C113.099 145.13 112.949 142.871 113.028 140.778C113.116 140.002 113.215 136.932 112.939 136.335C112.953 137.768 112.948 139.201 112.929 140.634C111.668 138.892 103.833 128.614 103.776 127.656Z" fill="#B4A5B3"/>
<path d="M111.268 117.643C110.5 117.489 109.627 117.536 108.836 117.545C107.511 117.554 104.15 117.461 103.039 117.717L103.126 117.926C105.795 121.325 108.194 125.213 110.844 128.661C110.388 126.675 109.957 122.265 110.425 120.256L110.903 120.193L111.179 119.996C111.409 119.407 111.294 118.316 111.268 117.643Z" fill="#B4A5B3"/>
<path d="M111.268 117.643C110.367 117.681 109.764 117.686 108.858 117.646C109.352 118.328 110.291 119.724 110.903 120.193L111.179 119.996C111.409 119.407 111.294 118.316 111.268 117.643Z" fill="#918787"/>
<path d="M90.6509 140.081C90.6752 138.905 90.8543 136.653 90.331 135.721C89.2652 135.318 79.8711 135.183 79.2034 135.689C78.4662 136.865 78.8574 138.39 78.7288 139.852C78.3358 140.275 78.2019 140.154 77.4647 140.247C76.6545 143.487 75.7469 146.505 74.8637 149.703C82.5173 149.606 90.3136 149.771 97.9916 149.743L98.0524 149.708C99.7737 148.699 101.231 146.74 99.5981 144.732C98.734 143.669 96.2286 143.941 94.8411 143.97C94.7976 141.019 93.4589 140.306 90.6509 140.081Z" fill="#918787"/>
<path d="M99.3181 112.112L93.6813 113.929L88.5366 115.559C91.9148 120.82 96.6301 125.998 100.146 131.239C100.601 131.92 101.349 132.959 101.874 133.572C102.262 131.459 103.477 129.276 103.7 127.729L103.776 127.655C104.242 125.681 104.439 122.499 103.983 120.508C102.874 119.602 103.086 119.281 103.126 117.927L103.039 117.717C102.498 116.481 100.12 113.788 99.3181 112.112Z" fill="#D8D8D8"/>
<path d="M99.3181 112.112L93.6813 113.929C94.5072 115.388 103.082 127.471 103.7 127.729L103.776 127.655C104.242 125.681 104.439 122.499 103.983 120.508C102.874 119.602 103.086 119.281 103.126 117.927L103.039 117.717C102.498 116.481 100.12 113.788 99.3181 112.112Z" fill="#C1C1C1"/>
<path d="M112.923 148.252C111.703 146.369 108.996 143.069 107.547 141.102C106.335 139.455 103.328 135.292 102.062 133.952L101.747 134.482C101.742 138.204 101.638 141.928 101.662 145.651C101.671 147.004 101.601 148.272 102.512 149.367C103.491 150.044 109.98 149.733 111.649 149.712C112.268 149.281 112.784 149.042 112.923 148.252Z" fill="#918787"/>
<path d="M92.3687 60.1874C90.7969 59.8491 89.8754 59.5486 88.3888 58.9709C88.3801 60.3631 87.9663 61.342 87.982 62.1306C87.9854 62.5247 88.0289 63.0296 87.8985 63.3836C87.8064 64.5859 87.5438 65.9086 87.3108 67.0995C86.4154 71.6944 85.7025 76.354 84.7758 80.941C85.36 81.2509 104.519 81.0908 107.099 81.096L101.759 73.006C100.885 71.684 99.5824 69.5797 98.5983 68.4204C97.889 67.3196 97.1605 66.2317 96.4128 65.1568C95.4148 63.6185 93.7022 61.4138 92.3687 60.1874Z" fill="#D0D0D0"/>
<path d="M92.3687 60.1874C90.7969 59.8491 89.8754 59.5486 88.3889 58.9709C88.3802 60.3631 87.9664 61.342 87.982 62.1306C87.9855 62.5247 88.029 63.0296 87.8986 63.3836C88.4549 63.5704 89.4216 64.5214 89.945 64.9348C92.7512 67.1512 95.121 67.9858 98.5984 68.4204C97.889 67.3196 97.1605 66.2317 96.4129 65.1568C95.4149 63.6185 93.7023 61.4138 92.3687 60.1874Z" fill="#2F2D2D"/>
<path d="M84.7758 80.9409C84.5985 82.061 84.3725 83.1577 84.1499 84.2693L84.3638 84.2712C84.4577 84.2913 85.6 84.5368 85.6 84.5368C87.9837 87.6487 90.0162 90.9814 92.3669 94.1231C93.6605 94.1434 97.4369 93.4993 98.9531 93.3187C103.853 92.735 108.949 91.8683 113.866 91.5304C112.725 89.5459 110.533 86.1757 109.23 84.3158C109.029 83.8804 107.457 81.6283 107.099 81.096C104.519 81.0908 85.36 81.2508 84.7758 80.9409Z" fill="#C1C1C1"/>
<path d="M84.7758 80.9409C84.5984 82.061 84.3724 83.1577 84.1499 84.2693L84.3637 84.2712C92.652 84.3295 100.942 84.3443 109.23 84.3158C109.029 83.8804 107.457 81.6283 107.099 81.096C104.519 81.0908 85.36 81.2508 84.7758 80.9409Z" fill="#876686"/>
<path d="M84.3637 84.2712L84.1498 84.2693C83.7012 86.1298 83.4439 86.9994 82.3694 88.6842C83.4022 89.4759 86.5231 93.6781 87.0186 94.8498C88.7173 94.706 90.6994 94.4075 92.3668 94.1231C90.0161 90.9814 87.9836 87.6487 85.5999 84.5368C85.5999 84.5368 84.4576 84.2913 84.3637 84.2712Z" fill="#D8D8D8"/>
<path d="M82.3694 88.6843C80.5178 90.6642 79.4589 91.3073 76.7014 91.7854C77.4855 92.757 79.1285 94.6749 79.6119 95.7532C81.6809 95.6385 84.7914 95.0971 87.0187 94.8499C86.5232 93.6783 83.4022 89.4761 82.3694 88.6843Z" fill="#C1C1C1"/>
<path d="M76.7014 91.7854C75.5973 91.9499 74.7819 91.7702 73.7195 91.5559C73.2658 92.2244 73.2084 93.9238 73.2414 94.7289L75.0757 96.3564C76.2233 96.2083 78.5548 95.988 79.6119 95.7533C79.1286 94.6749 77.4855 92.757 76.7014 91.7854Z" fill="#D8D8D8"/>
<path d="M240.339 4.50882C240.195 4.47739 212.497 4.16513 212.03 4.32087C209.334 4.59738 205.07 4.47873 202.235 4.48065L185.151 4.46444C175.396 4.56415 165.381 4.30279 155.684 4.48737C155.495 6.42239 155.512 8.34792 155.398 10.2951C155.06 15.4731 154.756 20.6531 154.483 25.8347L153.744 39.0152C153.537 42.2328 153.142 46.3841 153.181 49.5606C153.186 50.0163 153.221 50.8298 153.137 51.2463L178.726 51.3053C180.03 51.3045 187.208 51.169 187.968 51.3715L187.989 51.2517C195.064 51.3381 202.139 51.3576 209.214 51.31C213.537 51.3043 218.56 51.4187 222.812 51.214C222.798 51.8851 222.763 52.648 222.804 53.3105L222.905 53.3327C222.96 52.7855 222.933 51.822 222.935 51.2423C229.869 51.2994 236.803 51.3204 243.737 51.305C248.333 51.3079 253.196 51.4043 257.763 51.2274C255.695 44.6922 252.786 37.9693 250.44 31.4895C247.175 22.4667 243.613 13.5355 240.339 4.50882Z" fill="#454141"/>
<path d="M185.151 4.46439C175.396 4.5641 165.381 4.30274 155.684 4.48732C155.495 6.42234 155.512 8.34787 155.398 10.295C155.06 15.473 154.756 20.653 154.483 25.8347L153.744 39.0151C153.537 42.2327 153.142 46.3841 153.181 49.5605C153.186 50.0163 153.221 50.8297 153.137 51.2463L178.726 51.3053C180.03 51.3044 187.208 51.169 187.968 51.3714L187.989 51.2516C187.9 50.1877 187.964 48.8468 187.875 47.6639C187.151 37.3256 186.513 26.9814 185.962 16.6324C185.873 15.0174 185.471 5.44446 185.151 4.46439Z" fill="#454141"/>
<path d="M212.03 4.3208C209.334 4.59731 205.07 4.47866 202.235 4.48059L185.151 4.46437C185.471 5.44444 185.874 15.0174 185.963 16.6324C186.513 26.9814 187.151 37.3256 187.875 47.6638C187.964 48.8467 187.9 50.1876 187.989 51.2516C195.064 51.3381 202.139 51.3575 209.214 51.3099C213.537 51.3042 218.56 51.4186 222.812 51.2139C222.436 49.0235 221.751 46.4355 221.24 44.2322L218.377 31.8729C216.272 22.8224 214.259 13.2758 212.03 4.3208Z" fill="white"/>
<path d="M54.3958 87.5903C54.1419 87.724 49.251 90.8902 49.3223 90.81C45.372 92.4848 40.4533 93.4017 36.3517 94.8815C32.2867 96.3486 30.9879 97.7458 28.592 101.173C23.409 109.787 18.4607 119.104 13.5472 127.91L9.23703 135.556C8.32075 137.171 6.62553 139.996 6.10044 141.636C4.66082 146.137 4.20528 151.297 3.0821 155.9C3.5498 156.127 3.78453 156.127 3.95666 156.509C3.56198 156.789 3.43854 156.831 2.98474 157.005C1.98152 161.372 1.37994 165.636 0.566231 169.978H10.6853H24.1028H41.5452H59.9144C60.2308 167.929 61.2166 165.32 61.7574 163.248C66.8465 143.688 69.145 123.865 70.3169 103.736C70.2543 102.592 70.3065 101.001 70.3099 99.8232C69.5849 100.216 68.6165 100.761 67.8027 100.926C61.2114 102.267 54.9487 95.2456 54.6062 89.1201C54.5731 88.5526 54.5192 88.1666 54.3958 87.5903Z" fill="#454141"/>
<path d="M54.3958 87.5903C54.1419 87.724 49.251 90.8902 49.3223 90.81C53.7855 98.3126 51.214 109.474 50.1621 117.605C48.5034 130.931 46.4865 144.211 44.115 157.429C43.4612 161.272 42.0112 166.537 41.5452 169.978H59.9144C60.2308 167.929 61.2166 165.32 61.7574 163.248C66.8465 143.688 69.145 123.865 70.3169 103.736C70.2543 102.592 70.3065 101.001 70.3099 99.8232C69.5849 100.216 68.6165 100.761 67.8027 100.926C61.2114 102.267 54.9487 95.2456 54.6062 89.1201C54.5731 88.5526 54.5192 88.1666 54.3958 87.5903Z" fill="#FBF0FB"/>
<path d="M28.3452 134.065L22.8945 141.522C22.1955 142.478 20.2882 144.976 19.8048 145.918C18.5147 148.431 17.4072 151.91 16.4022 154.638L10.6854 169.978H24.1028C25.3721 164.627 27.4428 158.902 28.7521 153.36C28.114 150.297 29.0668 135.31 28.3452 134.065Z" fill="#E6CFE7"/>
<path d="M31.2661 130.199C30.1499 131.564 29.3536 132.634 28.3452 134.064C29.0667 135.31 28.1139 150.297 28.752 153.36C30.5307 146.662 31.5426 137.177 31.2661 130.199Z" fill="#DEAFDE"/>
<path d="M271.508 4.47169L250.118 4.4709C248.218 4.47172 241.811 4.34313 240.339 4.50865C243.613 13.5353 247.175 22.4666 250.44 31.4893C252.786 37.9691 255.695 44.692 257.763 51.2272L257.903 51.2545C261.447 51.2776 291.851 51.5172 292.628 51.0489L292.719 52.5976L292.799 52.6131C293.083 54.1191 293.339 55.482 293.826 56.9436C296.416 64.7041 305.031 69.923 313.162 68.3863C313.287 68.3628 313.412 68.3382 313.537 68.3123C319.733 66.8827 324.721 62.9786 326.792 56.8203C327.28 55.3702 327.892 52.7688 327.693 51.2479C325.84 48.0067 323.561 44.6608 321.64 41.397C314.399 29.0921 306.209 16.8084 299.123 4.47153C290.034 4.60343 280.62 4.49964 271.508 4.47169Z" fill="#454141"/>
<path d="M271.508 4.47169L250.118 4.4709C248.218 4.47172 241.811 4.34313 240.339 4.50865C243.613 13.5353 247.175 22.4666 250.44 31.4893C252.786 37.9691 255.695 44.692 257.763 51.2272L257.903 51.2545C261.447 51.2776 291.851 51.5172 292.629 51.0489C290.969 46.8701 288.566 42.0602 286.683 37.891C281.551 26.7848 276.493 15.6447 271.508 4.47169Z" fill="white"/>
<path d="M327.693 51.2482C319.53 51.3109 311.366 51.3243 303.203 51.2881C301.55 51.2868 294.116 51.1564 292.932 51.3197C292.746 51.8399 292.781 52.0755 292.799 52.6134C293.083 54.1194 293.339 55.4824 293.826 56.9439C296.416 64.7044 305.031 69.9234 313.162 68.3866C313.287 68.3632 313.412 68.3385 313.537 68.3127C319.733 66.883 324.721 62.9789 326.792 56.8207C327.28 55.3706 327.892 52.7692 327.693 51.2482Z" fill="#2F2D2D"/>
<path d="M128.451 4.30132C127.952 4.04843 123.914 4.21723 123.086 4.23729C119.546 4.34092 116.004 4.41938 112.464 4.47268C110.821 4.48223 101.356 4.28889 100.434 4.56479L100.297 4.8016C98.8244 8.34399 85.6156 44.751 84.8715 45.4726C86.3928 47.6941 86.8066 48.7294 87.6707 51.2476L87.8881 52.2784C93.3875 52.1972 95.6235 53.1513 99.885 56.7916C100.617 57.4153 102.34 58.9121 103.124 59.3574C103.953 59.7446 108.413 65.1056 109.496 66.2019C112.781 63.7406 115.164 61.3541 116.611 57.4335C117.042 56.265 117.225 54.1288 117.929 53.4516L117.899 51.3674L117.926 51.2541C119.348 51.4004 121.994 51.3023 123.522 51.2921H132.558L145.325 51.3199C147.448 51.3244 150.818 51.4254 152.836 51.1928C153.047 50.9087 153.123 49.9673 153.181 49.5605C153.142 46.3841 153.537 42.2327 153.744 39.0151L154.483 25.8347C154.756 20.653 155.06 15.473 155.398 10.295C155.512 8.34786 155.495 6.42234 155.684 4.48732C149.496 4.24828 142.709 4.6423 136.481 4.49753C134.459 4.45048 130.263 4.66539 128.451 4.30132Z" fill="#454141"/>
<path d="M155.684 4.48727C149.496 4.24823 142.709 4.64225 136.481 4.49748C134.459 4.45043 130.263 4.66534 128.451 4.30127C128.006 7.39174 126.511 13.1007 125.753 16.4198L120.421 39.7631C119.88 42.111 118.108 49.1587 117.926 51.254C119.348 51.4004 121.994 51.3023 123.522 51.292H132.558L145.325 51.3198C147.448 51.3243 150.818 51.4254 152.836 51.1927C153.047 50.9087 153.123 49.9673 153.181 49.5605C153.142 46.384 153.537 42.2327 153.744 39.0151L154.483 25.8346C154.756 20.653 155.06 15.473 155.398 10.295C155.512 8.34782 155.495 6.42229 155.684 4.48727Z" fill="white"/>
<path d="M117.9 51.3674C117.239 51.1908 109.615 51.2667 108.58 51.2682L87.6708 51.2476L87.8881 52.2784C93.3876 52.1971 95.6235 53.1512 99.885 56.7915C100.617 57.4152 102.34 58.912 103.124 59.3574C103.954 59.7445 108.413 65.1055 109.496 66.2018C112.781 63.7405 115.165 61.354 116.611 57.4334C117.042 56.2649 117.225 54.1287 117.929 53.4515L117.9 51.3674Z" fill="#2F2D2D"/>
<path d="M48.1001 51.165L48.0202 51.2951L48.0827 52.6401C47.622 55.8982 46.5544 59.3245 44.3324 61.8294C45.0227 64.6945 43.4352 65.9288 40.6412 65.1925C37.6159 67.6378 33.25 68.9261 29.3571 68.5892C29.0233 68.5602 28.8981 68.5462 28.6478 68.3318L28.4878 68.4429C28.5504 75.8078 28.566 83.173 28.5313 90.5379C28.5295 93.3391 28.3748 98.576 28.5921 101.173C30.988 97.7457 32.2868 96.3486 36.3519 94.8814C40.4534 93.4016 45.3721 92.4847 49.3224 90.81C49.2511 90.8902 54.142 87.724 54.3959 87.5903C54.5193 88.1665 54.5732 88.5525 54.6063 89.1201C54.9488 95.2455 61.2115 102.267 67.8029 100.926C68.6166 100.761 69.585 100.216 70.31 99.8231C70.3066 101.001 70.2544 102.592 70.317 103.736C70.4909 102.815 70.4561 100.766 70.4648 99.7412C72.2139 97.9263 72.4312 97.362 73.1719 95.0396L73.2415 94.7288C73.2084 93.9237 73.2658 92.2243 73.7196 91.5559C74.7819 91.7701 75.5974 91.9498 76.7014 91.7854C79.459 91.3072 80.5178 90.6641 82.3695 88.6843C83.444 86.9994 83.7014 86.1299 84.1499 84.2694C84.3725 83.1578 84.5985 82.0611 84.7759 80.941C85.7026 76.354 86.4154 71.6945 87.3109 67.0995C87.5438 65.9087 87.8064 64.586 87.8985 63.3836C88.0289 63.0296 87.9855 62.5247 87.982 62.1306L87.7716 61.4363C87.5804 61.8795 87.5265 62.5065 87.4239 62.6669C87.4048 62.282 87.3926 62.2676 87.2204 61.9164C86.6849 61.787 86.1477 61.6755 85.6087 61.5608C77.5308 59.8393 68.2445 58.8403 60.3561 56.596C58.0958 56.0239 55.0861 55.8317 52.6172 55.1278L52.4277 54.725L53.3023 51.3796C52.2121 51.3982 48.8704 51.525 48.1001 51.165Z" fill="#FEA59B"/>
<path d="M48.1001 51.165L48.0201 51.2951L48.0827 52.6401C47.6219 55.8982 46.5544 59.3245 44.3323 61.8294C45.0226 64.6945 43.4352 65.9288 40.6411 65.1925C37.6158 67.6378 33.25 68.9261 29.3571 68.5892C29.0233 68.5602 28.8981 68.5462 28.6477 68.3318L28.4877 68.4429C28.5503 75.8078 28.566 83.173 28.5312 90.5379C28.5295 93.3391 28.3747 98.576 28.5921 101.173C30.988 97.7457 32.2868 96.3486 36.3518 94.8814C40.4533 93.4016 45.3721 92.4847 49.3224 90.81C49.2511 90.8902 54.142 87.724 54.3958 87.5903L54.2985 87.5087C54.7314 85.7181 55.3069 82.8665 55.5747 81.0499L57.6211 70.0862C55.7451 68.2696 55.0791 67.4268 53.8012 65.1824C53.2657 64.0389 52.8815 62.923 52.6485 61.6833C52.3094 59.587 52.0677 57.2634 52.3546 55.149L52.4277 54.725L53.3022 51.3796C52.2121 51.3982 48.8703 51.525 48.1001 51.165Z" fill="#D0D0D0"/>
<path d="M48.1001 51.165L48.0201 51.2951L48.0827 52.6401C48.5956 55.5095 49.7049 60.3055 52.2295 62.1065L52.499 62.0191L52.6485 61.6833C52.3095 59.587 52.0678 57.2634 52.3547 55.149L52.4277 54.725L53.3022 51.3796C52.2121 51.3982 48.8703 51.525 48.1001 51.165Z" fill="#EBEBEB"/>
<path d="M55.5747 81.0498C54.7993 81.4406 54.6723 81.64 54.1194 82.3256C54.1125 83.3885 54.0116 86.6594 54.2985 87.5086C54.7315 85.718 55.307 82.8664 55.5747 81.0498Z" fill="#876686"/>
<path d="M73.7195 91.5557C69.1589 90.723 65.4521 87.4245 62.3781 84.1687C62.2911 86.731 63.7151 89.2312 65.4242 91.0605C67.4568 93.2557 70.2004 94.6644 73.1718 95.0395L73.2413 94.7287C73.2083 93.9236 73.2657 92.2242 73.7195 91.5557Z" fill="#DB8D86"/>
<path d="M87.982 62.1306L87.7716 61.4363C87.5804 61.8795 87.5265 62.5065 87.4239 62.6669L87.3821 62.7838C87.1439 63.4628 87.064 64.1729 86.9405 64.8796C86.0155 70.2183 84.9915 75.5319 84.0926 80.8763C83.4997 84.398 82.7816 88.6284 79.2103 90.3717C73.2345 93.0721 66.584 87.6679 62.7433 83.587C62.5833 83.4186 62.4321 83.545 62.2356 83.6344L62.18 83.9273L62.3782 84.1689C65.4522 87.4247 69.159 90.7232 73.7196 91.5559C74.7819 91.7701 75.5974 91.9498 76.7014 91.7854C79.459 91.3072 80.5178 90.6641 82.3695 88.6843C83.444 86.9994 83.7014 86.1299 84.1499 84.2694C84.3725 83.1578 84.5985 82.0611 84.7759 80.941C85.7026 76.354 86.4154 71.6945 87.3109 67.0995C87.5438 65.9087 87.8064 64.586 87.8985 63.3836C88.0289 63.0296 87.9855 62.5247 87.982 62.1306Z" fill="black"/>
<path d="M52.4276 54.7251L52.3546 55.1491C52.0677 57.2635 52.3094 59.5871 52.6484 61.6834C52.8814 62.9231 53.2656 64.039 53.8012 65.1825L54.0341 65.1687C54.8235 65.12 55.6494 65.1665 56.1779 64.5706C55.2112 62.9438 55.2964 62.1812 56.124 60.5403C57.6888 59.4376 57.7775 59.8071 59.4553 59.627C59.883 59.5812 59.4362 57.3847 60.356 56.5961C58.0957 56.024 55.086 55.8318 52.6171 55.1279L52.4276 54.7251Z" fill="url(#paint0_linear_173_3177)"/>
<path d="M52.3546 55.1491C52.0677 57.2635 52.3094 59.5871 52.6484 61.6834C52.8814 62.9231 53.2656 64.039 53.8012 65.1825L54.0341 65.1687C54.8235 65.12 55.6494 65.1665 56.1779 64.5706C55.2112 62.9438 55.2964 62.1812 56.124 60.5403C52.285 58.8858 52.5788 59.4522 52.3546 55.1491Z" fill="url(#paint1_linear_173_3177)"/>
<path d="M56.1779 64.5706C55.6494 65.1665 54.8235 65.12 54.0341 65.1687L53.8012 65.1825C55.0791 67.4269 55.745 68.2697 57.621 70.0863C57.8853 68.5669 58.16 67.0499 58.4504 65.5351C57.3307 65.3556 57.0977 65.2486 56.1779 64.5706Z" fill="url(#paint2_linear_173_3177)"/>
<path d="M76.8509 72.1025C75.6565 72.747 75.7086 74.0339 75.5417 75.2514C76.3676 75.658 77.1135 75.8914 77.3569 76.8388C76.7623 78.0478 75.2566 77.2642 74.6411 78.6021C76.2893 79.3017 78.5166 78.6511 78.228 76.5249C78.0889 75.5111 77.416 75.1151 76.6701 74.5227C76.8614 73.5016 76.9344 73.1689 76.8509 72.1025Z" fill="black"/>
<path d="M73.7596 63.2338C72.3425 63.0574 70.2387 63.0638 69.6128 64.6441L69.8162 64.9315C70.5187 64.9815 70.4561 64.8606 71.1881 64.447C73.544 63.9788 73.5005 65.0566 75.4982 64.9026L75.6217 64.67C75.2218 63.8255 74.5733 63.6015 73.7596 63.2338Z" fill="black"/>
<path d="M82.2026 65.5024C81.0273 65.5597 80.118 65.6861 79.2052 66.5291L79.2799 66.8333C80.0658 67.4012 80.7995 66.5426 82.5625 66.6973L82.653 66.7058C83.5188 67.1941 83.877 67.9023 84.995 67.6819L85.075 67.4231C84.4403 66.1676 83.5067 65.796 82.2026 65.5024Z" fill="black"/>
<path d="M73.0484 67.4592L72.3077 67.5882C70.9707 68.5206 71.1098 69.7696 72 70.9821C72.2312 70.9532 72.5598 70.8798 72.798 70.8336C74.1629 69.8561 73.8899 68.6932 73.0484 67.4592Z" fill="black"/>
<path d="M81.7002 69.3677C79.5894 69.6295 79.7546 71.5692 80.7387 72.9905L81.4063 72.8756C82.8059 71.8996 82.5452 70.6469 81.7002 69.3677Z" fill="black"/>
<path d="M73.3892 80.9493C72.5755 80.8583 71.4819 80.5822 70.9429 81.2453L70.9864 81.6538C71.3793 81.9066 72.4156 81.7702 73.1754 81.89L73.3232 81.9139C73.8569 82.3148 74.3873 82.8982 75.0132 82.52C74.8915 81.6057 74.1351 81.337 73.3892 80.9493Z" fill="black"/>
<path d="M58.3358 61.3377C57.802 61.2895 57.6073 61.2383 57.1083 61.4711C57.1952 62.0571 57.9446 61.8116 58.2819 62.3927L57.6021 63.0189L57.6629 63.3056C58.1915 63.3705 58.0959 63.2934 58.6627 62.9038C58.7079 62.853 58.8974 62.7925 58.9739 62.7616C59.3668 63.0561 59.7389 63.3162 60.224 63.1506C60.0014 62.4536 58.953 61.6878 58.3358 61.3377Z" fill="black"/>
<path d="M100.297 4.80158L100.019 4.50358C99.1165 4.43189 94.01 4.38254 93.1702 4.46276C90.2562 4.74066 70.2161 4.03708 69.2007 4.6935L55.2044 35.5593C52.9284 40.5642 50.19 46.1526 48.1001 51.165C48.8704 51.5249 52.2121 51.3982 53.3023 51.3796L52.4277 54.725L52.6172 55.1278C55.0861 55.8316 58.0958 56.0238 60.3561 56.5959C68.2445 58.8402 77.5308 59.8392 85.6087 61.5607C86.1477 61.6755 86.6849 61.7869 87.2204 61.9163C87.3926 62.2675 87.4047 62.2819 87.4239 62.6669C87.5265 62.5064 87.5804 61.8795 87.7716 61.4362L87.982 62.1305C87.9663 61.3419 88.3801 60.363 88.3888 58.9709C89.8754 59.5486 90.7969 59.8491 92.3687 60.1873C93.7022 61.4138 95.4148 63.6185 96.4128 65.1568C98.6523 62.9278 100.77 61.4065 103.124 59.3574C102.34 58.9121 100.617 57.4153 99.885 56.7916C95.6235 53.1512 93.3875 52.1972 87.8881 52.2784L87.6707 51.2476C86.8066 48.7294 86.3928 47.6941 84.8715 45.4725C85.6156 44.751 98.8244 8.34398 100.297 4.80158Z" fill="white"/>
<path d="M84.8715 45.4726C82.4373 42.5668 79.944 40.3321 76.2789 39.1143C65.4747 35.5229 56.5258 40.874 53.3023 51.3796L52.4277 54.725L52.6172 55.1278C55.0861 55.8317 58.0958 56.0239 60.3561 56.596C68.2445 58.8403 77.5308 59.8393 85.6087 61.5608C86.1477 61.6755 86.6849 61.787 87.2204 61.9164C87.3926 62.2676 87.4047 62.282 87.4239 62.6669C87.5265 62.5065 87.5804 61.8795 87.7716 61.4363L87.982 62.1306C87.9663 61.342 88.3801 60.3631 88.3888 58.971C89.8754 59.5486 90.7969 59.8492 92.3687 60.1874C93.7022 61.4139 95.4148 63.6186 96.4128 65.1569C98.6523 62.9279 100.77 61.4066 103.124 59.3575C102.34 58.9121 100.617 57.4153 99.885 56.7917C95.6235 53.1513 93.3875 52.1972 87.8881 52.2785L87.6708 51.2477C86.8066 48.7295 86.3928 47.6941 84.8715 45.4726Z" fill="#3F0829"/>
<path d="M87.8881 52.2786C85.873 52.243 71.734 54.2117 69.3103 55.3703C69.0599 55.4898 69.0564 55.8497 69.0373 56.1147C69.5259 56.7493 69.7206 56.7414 70.5239 56.8918C76.3067 57.9766 82.7659 57.3863 88.3888 58.9711C89.8754 59.5488 90.7969 59.8493 92.3687 60.1875C93.7022 61.414 95.4148 63.6187 96.4128 65.157C98.6523 62.928 100.77 61.4067 103.124 59.3576C102.34 58.9123 100.617 57.4155 99.885 56.7918C95.6235 53.1514 93.3875 52.1974 87.8881 52.2786Z" fill="#FEA59B"/>
<path d="M27.9245 26.8154L27.7993 26.8375C26.0867 27.1248 23.9951 26.7772 22.2581 27.0179C10.6559 28.6248 2.89444 39.5799 4.73222 51.0311C5.58765 56.5674 8.6147 61.5366 13.1422 64.8425C17.5307 68.0198 22.738 68.9963 28.1157 68.5518C28.2479 68.5409 28.3644 68.4904 28.4878 68.443L28.6478 68.3319C28.8982 68.5463 29.0233 68.5603 29.3572 68.5893C33.2501 68.9262 37.6159 67.6379 40.6412 65.1926C43.4353 65.9289 45.0227 64.6946 44.3324 61.8295C46.5545 59.3246 47.622 55.8983 48.0828 52.6402L48.0202 51.2952C47.4534 51.2075 46.7109 51.0344 46.1824 51.1905L46.0102 51.3987C47.4968 41.5695 42.5764 31.7958 32.9754 28.1662C31.3184 27.54 29.6041 27.3858 27.9245 26.8154Z" fill="#FBF0FB"/>
<path d="M21.2601 39.3257C23.0701 39.3257 24.6901 40.204 25.7001 41.5515C26.7101 40.204 28.3301 39.3257 30.1401 39.3257C33.2101 39.3257 35.7001 41.821 35.7001 44.9051C35.7001 46.0929 35.5101 47.1908 35.1801 48.2088C33.6001 53.1994 28.7301 56.1837 26.3201 57.0022C25.9801 57.1219 25.4201 57.1219 25.0801 57.0022C22.6701 56.1837 17.8001 53.1994 16.2201 48.2088C15.8901 47.1908 15.7001 46.0929 15.7001 44.9051C15.7001 41.821 18.1901 39.3257 21.2601 39.3257Z" fill="#454141"/>
<path d="M174.151 84.9601C168.262 94.4226 155.817 97.3194 146.354 91.4302C136.892 85.5411 133.995 73.096 139.884 63.6335C145.773 54.1709 158.218 51.2741 167.681 57.1633C177.143 63.0525 180.04 75.4975 174.151 84.9601Z" fill="white"/>
<path d="M141.269 91.3775C139.481 91.7032 138.012 89.972 138.623 88.2614L139.918 84.6388C140.53 82.9281 142.764 82.5209 143.939 83.9059L146.429 86.8386C147.605 88.2236 146.841 90.3619 145.053 90.6876L141.269 91.3775Z" fill="white"/>
<path d="M161.987 65.5C160.177 65.5 158.557 66.3783 157.547 67.7258C156.537 66.3783 154.917 65.5 153.107 65.5C150.037 65.5 147.547 67.9953 147.547 71.0794C147.547 72.2672 147.737 73.3651 148.067 74.3832C149.647 79.3737 154.517 82.358 156.927 83.1765C157.267 83.2963 157.827 83.2963 158.167 83.1765C160.577 82.358 165.447 79.3737 167.027 74.3832C167.357 73.3651 167.547 72.2672 167.547 71.0794C167.547 67.9953 165.057 65.5 161.987 65.5Z" fill="#454141"/>
<path d="M48.0202 51.295C47.4534 51.2073 46.7109 51.0342 46.1824 51.1903L46.0102 51.3985C45.2539 54.5794 44.7845 55.8462 43.2336 58.7349L44.3324 61.8293C46.5545 59.3244 47.622 55.8981 48.0828 52.6401L48.0202 51.295Z" fill="#2F2D2D"/>
<path d="M40.6411 65.1926C39.4936 65.0337 38.925 64.9242 37.8071 64.6118C35.2338 66.3038 31.7408 68.0103 28.6477 68.3319C28.8981 68.5463 29.0232 68.5604 29.3571 68.5894C33.25 68.9262 37.6158 67.6379 40.6411 65.1926Z" fill="#2F2D2D"/>
<path d="M69.2007 4.69346C68.5643 4.31472 44.5897 4.48575 41.62 4.4761C37.1168 11.8471 32.292 19.4041 27.9244 26.8152C29.604 27.3856 31.3183 27.5398 32.9753 28.166C42.5763 31.7956 47.4967 41.5693 46.0102 51.3985L46.1823 51.1903C46.7108 51.0342 47.4533 51.2073 48.0201 51.295L48.1001 51.1649C50.19 46.1526 52.9284 40.5642 55.2043 35.5593L69.2007 4.69346Z" fill="#454141"/>
<path d="M-1.53396 150.39C-2.565 152.983 -3.42044 154.685 -6.20059 155.893C-6.68221 156.098 -7.1673 156.294 -7.65413 156.481C-3.94378 157.863 -2.9562 158.826 -1.56004 162.532C-0.35166 159.588 0.150821 158.677 2.98487 157.005C3.43867 156.831 3.56211 156.789 3.95679 156.509C3.78466 156.127 3.54993 156.127 3.08223 155.9C0.0882175 154.331 -0.30645 153.289 -1.53396 150.39Z" fill="#FBF0FB"/>
</g>
<defs>
<linearGradient id="paint0_linear_173_3177" x1="56.2916" y1="70.0863" x2="56.2916" y2="54.7251" gradientUnits="userSpaceOnUse">
<stop stop-color="#FEA59B"/>
<stop offset="1" stop-color="#3F0829"/>
</linearGradient>
<linearGradient id="paint1_linear_173_3177" x1="56.2916" y1="70.0863" x2="56.2916" y2="54.7251" gradientUnits="userSpaceOnUse">
<stop stop-color="#FEA59B"/>
<stop offset="1" stop-color="#3F0829"/>
</linearGradient>
<linearGradient id="paint2_linear_173_3177" x1="56.2916" y1="70.0863" x2="56.2916" y2="54.7251" gradientUnits="userSpaceOnUse">
<stop stop-color="#FEA59B"/>
<stop offset="1" stop-color="#3F0829"/>
</linearGradient>
<clipPath id="clip0_173_3177">
<rect width="326" height="170" rx="24" transform="matrix(-1 0 0 1 326 0)" fill="white"/>
</clipPath>
</defs>
</svg>
