<svg width="124" height="40" viewBox="0 0 124 40" fill="none" xmlns="http://www.w3.org/2000/svg">
<g clip-path="url(#clip0_2003_1637)">
<path d="M19.9999 0C31.0459 0 39.9999 8.954 39.9999 20V34C39.9999 35.5913 39.3678 37.1174 38.2426 38.2426C37.1174 39.3679 35.5912 40 33.9999 40H20.9999V31.226C20.9999 29.224 21.1219 27.15 22.1719 25.446C22.9237 24.2248 23.9292 23.1796 25.1205 22.3813C26.3117 21.5829 27.6607 21.0501 29.0759 20.819L29.4589 20.757C29.6168 20.703 29.7539 20.601 29.8509 20.4653C29.948 20.3296 30.0002 20.1669 30.0002 20C30.0002 19.8331 29.948 19.6704 29.8509 19.5347C29.7539 19.399 29.6168 19.297 29.4589 19.243L29.0759 19.181C27.0081 18.8432 25.0986 17.8644 23.617 16.3829C22.1355 14.9013 21.1567 12.9918 20.8189 10.924L20.7569 10.541C20.703 10.3831 20.601 10.246 20.4652 10.149C20.3295 10.0519 20.1668 9.99975 19.9999 9.99975C19.8331 9.99975 19.6704 10.0519 19.5346 10.149C19.3989 10.246 19.2969 10.3831 19.2429 10.541L19.1809 10.924C18.9499 12.3393 18.4171 13.6883 17.6187 14.8795C16.8204 16.0707 15.7751 17.0763 14.5539 17.828C12.8499 18.878 10.7759 19 8.77393 19H0.0239258C0.546926 8.419 9.28993 0 19.9999 0Z" fill="url(#paint0_linear_2003_1637)"/>
<path d="M0 21H8.774C10.776 21 12.85 21.122 14.554 22.172C15.886 22.9928 17.0072 24.114 17.828 25.446C18.878 27.15 19 29.224 19 31.226V40H6C4.4087 40 2.88258 39.3679 1.75736 38.2426C0.632141 37.1174 0 35.5913 0 34L0 21ZM40 2C40 2.53043 39.7893 3.03914 39.4142 3.41421C39.0391 3.78929 38.5304 4 38 4C37.4696 4 36.9609 3.78929 36.5858 3.41421C36.2107 3.03914 36 2.53043 36 2C36 1.46957 36.2107 0.960859 36.5858 0.585786C36.9609 0.210714 37.4696 0 38 0C38.5304 0 39.0391 0.210714 39.4142 0.585786C39.7893 0.960859 40 1.46957 40 2Z" fill="#F06225"/>
</g>
<path d="M55.04 12.72V17.968C55.04 18.2667 55.168 18.416 55.424 18.416H60.768C61.024 18.416 61.152 18.2667 61.152 17.968V12.688C61.152 12.2187 61.0667 11.8773 60.896 11.664C60.7467 11.4293 60.48 11.2693 60.096 11.184C59.7333 11.12 59.4667 11.0667 59.296 11.024C59.1467 10.9813 59.072 10.8213 59.072 10.544C59.072 10.0747 59.2747 9.84 59.68 9.84C59.808 9.84 60.16 9.88266 60.736 9.968C61.3333 10.032 62.176 10.064 63.264 10.064C64.352 10.064 65.184 10.032 65.76 9.968C66.3573 9.88266 66.72 9.84 66.848 9.84C67.2533 9.84 67.456 10.0747 67.456 10.544C67.456 10.7787 67.3813 10.928 67.232 10.992C67.104 11.056 66.8693 11.12 66.528 11.184C66.1227 11.2693 65.8347 11.408 65.664 11.6C65.4933 11.792 65.408 12.1653 65.408 12.72V27.216C65.408 27.6853 65.472 28.0373 65.6 28.272C65.728 28.4853 65.9733 28.6347 66.336 28.72C66.72 28.8053 66.9973 28.8693 67.168 28.912C67.36 28.9547 67.456 29.1147 67.456 29.392C67.456 29.8613 67.2533 30.096 66.848 30.096C66.6987 30.096 66.336 30.0533 65.76 29.968C65.184 29.8827 64.352 29.84 63.264 29.84C62.176 29.84 61.344 29.8827 60.768 29.968C60.192 30.0533 59.8293 30.096 59.68 30.096C59.2747 30.096 59.072 29.8507 59.072 29.36C59.072 29.1253 59.1253 28.9867 59.232 28.944C59.36 28.88 59.584 28.8267 59.904 28.784C60.3733 28.72 60.6933 28.592 60.864 28.4C61.056 28.1867 61.152 27.8027 61.152 27.248V20.336C61.152 20.0373 61.024 19.888 60.768 19.888H55.424C55.168 19.888 55.04 20.0373 55.04 20.336V27.248C55.04 27.7173 55.1147 28.0693 55.264 28.304C55.4347 28.5387 55.712 28.688 56.096 28.752C56.4587 28.816 56.7147 28.8693 56.864 28.912C57.0347 28.9547 57.12 29.104 57.12 29.36C57.12 29.8507 56.9173 30.096 56.512 30.096C56.3627 30.096 56 30.0533 55.424 29.968C54.848 29.8827 54.016 29.84 52.928 29.84C51.84 29.84 51.008 29.8827 50.432 29.968C49.856 30.0533 49.4933 30.096 49.344 30.096C48.9387 30.096 48.736 29.8613 48.736 29.392C48.736 29.1573 48.8 29.008 48.928 28.944C49.0773 28.88 49.3227 28.816 49.664 28.752C50.0907 28.6667 50.3787 28.528 50.528 28.336C50.6987 28.144 50.784 27.7707 50.784 27.216V12.72C50.784 12.2507 50.72 11.9093 50.592 11.696C50.464 11.4613 50.2187 11.3013 49.856 11.216C49.4933 11.1307 49.216 11.0667 49.024 11.024C48.832 10.96 48.736 10.7893 48.736 10.512C48.736 10.064 48.9387 9.84 49.344 9.84C49.4933 9.84 49.856 9.88266 50.432 9.968C51.008 10.032 51.84 10.064 52.928 10.064C54.016 10.064 54.848 10.032 55.424 9.968C56.0213 9.88266 56.384 9.84 56.512 9.84C56.9173 9.84 57.12 10.0747 57.12 10.544C57.12 10.7787 57.056 10.928 56.928 10.992C56.8213 11.056 56.608 11.1093 56.288 11.152C55.7973 11.2373 55.4667 11.3867 55.296 11.6C55.1253 11.792 55.04 12.1653 55.04 12.72ZM76.2175 15.184C77.3268 15.184 78.3188 15.376 79.1935 15.76C80.0895 16.1227 80.8362 16.6453 81.4335 17.328C82.0308 18.0107 82.4895 18.832 82.8095 19.792C83.1295 20.752 83.2895 21.808 83.2895 22.96C83.2895 24.112 83.1188 25.1573 82.7775 26.096C82.4575 27.0347 81.9775 27.8453 81.3375 28.528C80.7188 29.1893 79.9508 29.7013 79.0335 30.064C78.1375 30.4267 77.1242 30.608 75.9935 30.608C74.9695 30.608 74.0415 30.416 73.2095 30.032C72.3988 29.6693 71.6948 29.1467 71.0975 28.464C70.5002 27.7813 70.0415 26.9707 69.7215 26.032C69.4015 25.072 69.2415 24.0267 69.2415 22.896C69.2415 21.744 69.4122 20.6987 69.7535 19.76C70.0948 18.8 70.5642 17.9893 71.1615 17.328C71.7802 16.6453 72.5162 16.1227 73.3695 15.76C74.2442 15.376 75.1935 15.184 76.2175 15.184ZM76.0575 16.368C75.2468 16.368 74.5855 16.8587 74.0735 17.84C73.5828 18.8 73.3375 20.208 73.3375 22.064C73.3375 24.432 73.6362 26.256 74.2335 27.536C74.8308 28.7947 75.5775 29.424 76.4735 29.424C77.2842 29.424 77.9348 28.9333 78.4255 27.952C78.9162 26.9707 79.1615 25.552 79.1615 23.696C79.1615 21.3707 78.8628 19.568 78.2655 18.288C77.6895 17.008 76.9535 16.368 76.0575 16.368ZM90.0203 15.536V17.008C90.0203 17.2 90.0629 17.296 90.1483 17.296C90.1909 17.296 90.2763 17.232 90.4043 17.104L90.8523 16.656C91.7909 15.696 92.9323 15.216 94.2763 15.216C95.8976 15.216 97.1243 15.9307 97.9563 17.36H98.0843C98.6389 16.6773 99.2789 16.1547 100.004 15.792C100.73 15.408 101.466 15.216 102.212 15.216C104.986 15.216 106.372 16.784 106.372 19.92V26.96C106.372 27.4293 106.394 27.792 106.436 28.048C106.5 28.2827 106.65 28.4747 106.884 28.624C107.034 28.7093 107.194 28.7627 107.364 28.784C107.535 28.8053 107.695 28.8373 107.844 28.88C107.994 28.9013 108.111 28.9547 108.196 29.04C108.303 29.1253 108.356 29.2747 108.356 29.488C108.356 29.872 108.154 30.064 107.748 30.064C107.556 30.064 107.236 30.0213 106.788 29.936C106.34 29.8507 105.743 29.808 104.996 29.808C103.78 29.808 102.852 29.8507 102.212 29.936C101.572 30 101.199 30.032 101.092 30.032C100.772 30.032 100.612 29.8507 100.612 29.488C100.612 29.2747 100.644 29.1253 100.708 29.04C100.794 28.9547 100.89 28.9013 100.996 28.88C101.124 28.8373 101.252 28.816 101.38 28.816C101.53 28.7947 101.668 28.752 101.796 28.688C102.074 28.56 102.244 28.3787 102.308 28.144C102.372 27.888 102.404 27.4933 102.404 26.96V20.752C102.404 18.3627 101.786 17.168 100.548 17.168C99.6736 17.168 99.0976 17.5093 98.8203 18.192C98.5643 18.8747 98.4363 19.8027 98.4363 20.976V27.024C98.4363 27.5147 98.4576 27.888 98.5003 28.144C98.5643 28.3787 98.7136 28.56 98.9483 28.688C99.0549 28.752 99.1616 28.7947 99.2683 28.816C99.3963 28.816 99.5029 28.8373 99.5883 28.88C99.6949 28.9013 99.7803 28.9547 99.8443 29.04C99.9083 29.1253 99.9403 29.2747 99.9403 29.488C99.9403 29.8507 99.8229 30.032 99.5883 30.032C99.4603 30.032 99.1296 30 98.5963 29.936C98.0843 29.8507 97.3696 29.808 96.4523 29.808C95.4923 29.808 94.7349 29.8507 94.1803 29.936C93.6469 30 93.3056 30.032 93.1563 30.032C92.8363 30.032 92.6763 29.8507 92.6763 29.488C92.6763 29.2747 92.7083 29.1253 92.7723 29.04C92.8576 28.9547 92.9536 28.9013 93.0603 28.88C93.1883 28.8373 93.3163 28.816 93.4443 28.816C93.5936 28.7947 93.7323 28.752 93.8603 28.688C94.1376 28.56 94.3083 28.3787 94.3723 28.144C94.4363 27.888 94.4683 27.4933 94.4683 26.96V20.752C94.4683 18.3627 93.8496 17.168 92.6123 17.168C91.7376 17.168 91.1616 17.5093 90.8843 18.192C90.6283 18.8747 90.5003 19.8027 90.5003 20.976V26.96C90.5003 27.408 90.5216 27.76 90.5643 28.016C90.6069 28.272 90.7136 28.4747 90.8843 28.624C91.0123 28.7093 91.1403 28.7627 91.2683 28.784C91.3963 28.8053 91.5136 28.8267 91.6203 28.848C91.7269 28.8693 91.8123 28.9227 91.8763 29.008C91.9616 29.0933 92.0043 29.2427 92.0043 29.456C92.0043 29.84 91.9083 30.032 91.7163 30.032C91.5883 30.032 91.2576 30 90.7243 29.936C90.2123 29.8507 89.4763 29.808 88.5163 29.808C87.5136 29.808 86.7243 29.8507 86.1483 29.936C85.5723 30 85.1989 30.032 85.0283 30.032C84.7083 30.032 84.5483 29.8507 84.5483 29.488C84.5483 29.2747 84.5909 29.1253 84.6763 29.04C84.7616 28.9547 84.8683 28.9013 84.9963 28.88C85.1243 28.8373 85.2629 28.816 85.4123 28.816C85.5616 28.7947 85.7109 28.752 85.8603 28.688C86.1589 28.5387 86.3403 28.3467 86.4043 28.112C86.4896 27.856 86.5323 27.472 86.5323 26.96V20.4C86.5323 19.952 86.5109 19.6107 86.4683 19.376C86.4469 19.1413 86.3189 18.9493 86.0843 18.8C85.9349 18.7147 85.7749 18.6613 85.6043 18.64C85.4549 18.6187 85.3163 18.5973 85.1883 18.576C85.0603 18.5547 84.9536 18.512 84.8683 18.448C84.7829 18.384 84.7403 18.256 84.7403 18.064C84.7403 17.8507 84.7936 17.7013 84.9003 17.616C85.0069 17.5307 85.1563 17.456 85.3483 17.392C85.5403 17.328 85.7643 17.264 86.0203 17.2C86.2976 17.136 86.5963 17.0293 86.9163 16.88C87.3643 16.6667 87.7376 16.432 88.0363 16.176C88.3349 15.92 88.5909 15.6853 88.8043 15.472C89.0176 15.2587 89.1883 15.088 89.3163 14.96C89.4656 14.8107 89.5936 14.736 89.7003 14.736C89.8496 14.736 89.9349 14.8107 89.9563 14.96C89.9989 15.1093 90.0203 15.3013 90.0203 15.536ZM120.928 19.056L117.184 28.688C116.288 31.0133 115.669 32.7627 115.328 33.936C114.987 35.1093 114.784 35.7707 114.72 35.92C114.528 36.368 114.283 36.6667 113.984 36.816C113.707 36.9653 113.269 37.04 112.672 37.04C111.925 37.04 111.435 36.9013 111.2 36.624C110.965 36.368 110.848 35.8773 110.848 35.152C110.848 34.4693 110.944 33.968 111.136 33.648C111.328 33.328 111.701 33.168 112.256 33.168C112.448 33.168 112.629 33.168 112.8 33.168C112.971 33.1893 113.131 33.2 113.28 33.2C113.536 33.2 113.771 33.1253 113.984 32.976C114.197 32.848 114.368 32.6773 114.496 32.464C114.645 32.2507 114.752 32.0053 114.816 31.728C114.901 31.472 114.944 31.2267 114.944 30.992C114.944 30.7147 114.901 30.416 114.816 30.096C114.731 29.7973 114.613 29.4667 114.464 29.104L110.208 18.288C110.037 17.8613 109.835 17.5627 109.6 17.392C109.365 17.2213 109.131 17.104 108.896 17.04C108.683 16.9547 108.501 16.88 108.352 16.816C108.181 16.752 108.096 16.592 108.096 16.336C108.096 15.9733 108.288 15.792 108.672 15.792C108.821 15.792 109.131 15.824 109.6 15.888C110.069 15.9307 110.72 15.952 111.552 15.952C112.725 15.952 113.632 15.9307 114.272 15.888C114.912 15.8453 115.285 15.824 115.392 15.824C115.605 15.824 115.765 15.856 115.872 15.92C116 15.9627 116.064 16.0907 116.064 16.304C116.064 16.5813 115.979 16.7627 115.808 16.848C115.637 16.912 115.445 16.9653 115.232 17.008C115.019 17.0293 114.827 17.0827 114.656 17.168C114.485 17.232 114.4 17.392 114.4 17.648C114.4 17.776 114.517 18.1707 114.752 18.832L116.992 25.04C117.056 25.1893 117.131 25.264 117.216 25.264C117.301 25.264 117.376 25.168 117.44 24.976L119.232 19.92C119.403 19.4933 119.509 19.1307 119.552 18.832C119.616 18.512 119.648 18.2667 119.648 18.096C119.648 17.7333 119.541 17.488 119.328 17.36C119.136 17.232 118.912 17.136 118.656 17.072C118.4 17.008 118.165 16.944 117.952 16.88C117.76 16.7947 117.664 16.6133 117.664 16.336C117.664 16.1013 117.707 15.952 117.792 15.888C117.877 15.8027 118.016 15.76 118.208 15.76C118.336 15.76 118.581 15.792 118.944 15.856C119.328 15.8987 119.84 15.92 120.48 15.92C121.077 15.92 121.579 15.9093 121.984 15.888C122.389 15.8453 122.699 15.824 122.912 15.824C123.083 15.824 123.2 15.856 123.264 15.92C123.349 15.9627 123.392 16.0907 123.392 16.304C123.392 16.4747 123.36 16.6027 123.296 16.688C123.253 16.7733 123.189 16.8373 123.104 16.88C123.019 16.9227 122.923 16.9547 122.816 16.976C122.709 16.9973 122.613 17.0187 122.528 17.04C121.909 17.2747 121.376 17.9467 120.928 19.056Z" fill="url(#paint1_linear_2003_1637)"/>
<defs>
<linearGradient id="paint0_linear_2003_1637" x1="20.0119" y1="0" x2="20.0119" y2="40" gradientUnits="userSpaceOnUse">
<stop stop-color="#F06225"/>
<stop offset="1" stop-color="#A8A0F2"/>
</linearGradient>
<linearGradient id="paint1_linear_2003_1637" x1="48" y1="20" x2="123" y2="20" gradientUnits="userSpaceOnUse">
<stop offset="0.451923" stop-color="#1C2730"/>
<stop offset="1" stop-color="#E86A3E"/>
</linearGradient>
<clipPath id="clip0_2003_1637">
<rect width="40" height="40" fill="white"/>
</clipPath>
</defs>
</svg>
